<svg xmlns="http://www.w3.org/2000/svg" width="210mm" height="297mm" viewBox="0 0 210 297">
<rect width="210" height="297" fill="white"/>

<text x="105" y="12" text-anchor="middle" font-family="Arial" font-size="6" font-weight="bold">KIRKET 3×3 A4 — SHEET B2 — MID-CENTER</text>
<text x="105" y="18" text-anchor="middle" font-family="Arial" font-size="3.2">Print at 100% / Actual Size · Temporary board: place → calibrate → remove</text>
<text x="105" y="23" text-anchor="middle" font-family="Arial" font-size="3">Overlap 15 mm · Stick sheets ON TOP at dashed attach lines · Crosses = exact corners</text>

<rect x="172.0" y="26.0" width="10" height="10" fill="#f3f4f6" stroke="#111" stroke-width="0.3"/>
<text x="177.0" y="32.2" text-anchor="middle" font-family="Arial" font-size="2.4" fill="#111">A1</text>
<rect x="183.5" y="26.0" width="10" height="10" fill="#f3f4f6" stroke="#111" stroke-width="0.3"/>
<text x="188.5" y="32.2" text-anchor="middle" font-family="Arial" font-size="2.4" fill="#111">A2</text>
<rect x="195.0" y="26.0" width="10" height="10" fill="#f3f4f6" stroke="#111" stroke-width="0.3"/>
<text x="200.0" y="32.2" text-anchor="middle" font-family="Arial" font-size="2.4" fill="#111">A3</text>
<rect x="172.0" y="37.5" width="10" height="10" fill="#f3f4f6" stroke="#111" stroke-width="0.3"/>
<text x="177.0" y="43.7" text-anchor="middle" font-family="Arial" font-size="2.4" fill="#111">B1</text>
<rect x="183.5" y="37.5" width="10" height="10" fill="#e11d48" stroke="#111" stroke-width="0.3"/>
<text x="188.5" y="43.7" text-anchor="middle" font-family="Arial" font-size="2.4" fill="#fff">B2</text>
<rect x="195.0" y="37.5" width="10" height="10" fill="#f3f4f6" stroke="#111" stroke-width="0.3"/>
<text x="200.0" y="43.7" text-anchor="middle" font-family="Arial" font-size="2.4" fill="#111">B3</text>
<rect x="172.0" y="49.0" width="10" height="10" fill="#f3f4f6" stroke="#111" stroke-width="0.3"/>
<text x="177.0" y="55.2" text-anchor="middle" font-family="Arial" font-size="2.4" fill="#111">C1</text>
<rect x="183.5" y="49.0" width="10" height="10" fill="#f3f4f6" stroke="#111" stroke-width="0.3"/>
<text x="188.5" y="55.2" text-anchor="middle" font-family="Arial" font-size="2.4" fill="#111">C2</text>
<rect x="195.0" y="49.0" width="10" height="10" fill="#f3f4f6" stroke="#111" stroke-width="0.3"/>
<text x="200.0" y="55.2" text-anchor="middle" font-family="Arial" font-size="2.4" fill="#111">C3</text>
<text x="189.25" y="64.5" text-anchor="middle" font-family="Arial" font-size="2.2">camera ↓</text>
<line x1="15.0" y1="282.0" x2="195.0" y2="282.0" stroke="#111" stroke-width="0.45" stroke-dasharray="3 2"/>
<line x1="19.0" y1="282.0" x2="27.0" y2="282.0" stroke="#111" stroke-width="0.35"/><line x1="23.0" y1="278.0" x2="23.0" y2="286.0" stroke="#111" stroke-width="0.35"/>
<line x1="101.0" y1="282.0" x2="109.0" y2="282.0" stroke="#111" stroke-width="0.35"/><line x1="105.0" y1="278.0" x2="105.0" y2="286.0" stroke="#111" stroke-width="0.35"/>
<line x1="183.0" y1="282.0" x2="191.0" y2="282.0" stroke="#111" stroke-width="0.35"/><line x1="187.0" y1="278.0" x2="187.0" y2="286.0" stroke="#111" stroke-width="0.35"/>
<text x="105.0" y="279.0" text-anchor="middle" font-family="Arial" font-size="3.2">ALIGN TOP EDGE OF C2 ON THIS LINE (tape C2 ON TOP)</text>
<rect x="0" y="282.0" width="210.0" height="15.0" fill="#000" fill-opacity="0.04"/>
<line x1="0.4" y1="15.0" x2="0.4" y2="282.0" stroke="#e11d48" stroke-width="0.8"/>
<line x1="-0.5" y1="23.0" x2="5.5" y2="23.0" stroke="#111" stroke-width="0.4"/><line x1="2.5" y1="20.0" x2="2.5" y2="26.0" stroke="#111" stroke-width="0.4"/>
<line x1="-0.5" y1="148.5" x2="5.5" y2="148.5" stroke="#111" stroke-width="0.4"/><line x1="2.5" y1="145.5" x2="2.5" y2="151.5" stroke="#111" stroke-width="0.4"/>
<line x1="-0.5" y1="274.0" x2="5.5" y2="274.0" stroke="#111" stroke-width="0.4"/><line x1="2.5" y1="271.0" x2="2.5" y2="277.0" stroke="#111" stroke-width="0.4"/>
<text x="5" y="148.5" font-family="Arial" font-size="3" fill="#e11d48" transform="rotate(90 5 148.5)">PLACE THIS EDGE ON B1 ATTACH LINE</text>
<line x1="209.6" y1="15.0" x2="209.6" y2="282.0" stroke="#e11d48" stroke-width="0.8"/>
<line x1="204.5" y1="23.0" x2="210.5" y2="23.0" stroke="#111" stroke-width="0.4"/><line x1="207.5" y1="20.0" x2="207.5" y2="26.0" stroke="#111" stroke-width="0.4"/>
<line x1="204.5" y1="148.5" x2="210.5" y2="148.5" stroke="#111" stroke-width="0.4"/><line x1="207.5" y1="145.5" x2="207.5" y2="151.5" stroke="#111" stroke-width="0.4"/>
<line x1="204.5" y1="274.0" x2="210.5" y2="274.0" stroke="#111" stroke-width="0.4"/><line x1="207.5" y1="271.0" x2="207.5" y2="277.0" stroke="#111" stroke-width="0.4"/>
<text x="205.0" y="148.5" font-family="Arial" font-size="3" fill="#e11d48" transform="rotate(-90 205.0 148.5)">PLACE THIS EDGE ON B3 ATTACH LINE</text>
<line x1="15.0" y1="0.4" x2="195.0" y2="0.4" stroke="#e11d48" stroke-width="0.8"/>
<line x1="20.0" y1="2.5" x2="26.0" y2="2.5" stroke="#111" stroke-width="0.4"/><line x1="23.0" y1="-0.5" x2="23.0" y2="5.5" stroke="#111" stroke-width="0.4"/>
<line x1="102.0" y1="2.5" x2="108.0" y2="2.5" stroke="#111" stroke-width="0.4"/><line x1="105.0" y1="-0.5" x2="105.0" y2="5.5" stroke="#111" stroke-width="0.4"/>
<line x1="184.0" y1="2.5" x2="190.0" y2="2.5" stroke="#111" stroke-width="0.4"/><line x1="187.0" y1="-0.5" x2="187.0" y2="5.5" stroke="#111" stroke-width="0.4"/>
<text x="105.0" y="8" text-anchor="middle" font-family="Arial" font-size="3" fill="#e11d48">PLACE THIS EDGE ON A2 ATTACH LINE</text>
<rect x="8" y="42" width="194.0" height="240.0" fill="white" stroke="#111" stroke-width="0.5"/>
<rect x="11" y="45" width="188.0" height="234.0" fill="none" stroke="#111" stroke-width="2"/>
<defs><clipPath id="clip_B2"><rect x="14" y="48" width="182.0" height="228.0"/></clipPath></defs>
<g clip-path="url(#clip_B2)">
<line x1="-232" y1="48" x2="8.0" y2="276.0" stroke="#111" stroke-width="4"/>
<line x1="-220" y1="48" x2="20.0" y2="276.0" stroke="#111" stroke-width="4"/>
<line x1="-208" y1="48" x2="32.0" y2="276.0" stroke="#111" stroke-width="4"/>
<line x1="-196" y1="48" x2="44.0" y2="276.0" stroke="#111" stroke-width="4"/>
<line x1="-184" y1="48" x2="56.0" y2="276.0" stroke="#111" stroke-width="4"/>
<line x1="-172" y1="48" x2="68.0" y2="276.0" stroke="#111" stroke-width="4"/>
<line x1="-160" y1="48" x2="80.0" y2="276.0" stroke="#111" stroke-width="4"/>
<line x1="-148" y1="48" x2="92.0" y2="276.0" stroke="#111" stroke-width="4"/>
<line x1="-136" y1="48" x2="104.0" y2="276.0" stroke="#111" stroke-width="4"/>
<line x1="-124" y1="48" x2="116.0" y2="276.0" stroke="#111" stroke-width="4"/>
<line x1="-112" y1="48" x2="128.0" y2="276.0" stroke="#111" stroke-width="4"/>
<line x1="-100" y1="48" x2="140.0" y2="276.0" stroke="#111" stroke-width="4"/>
<line x1="-88" y1="48" x2="152.0" y2="276.0" stroke="#111" stroke-width="4"/>
<line x1="-76" y1="48" x2="164.0" y2="276.0" stroke="#111" stroke-width="4"/>
<line x1="-64" y1="48" x2="176.0" y2="276.0" stroke="#111" stroke-width="4"/>
<line x1="-52" y1="48" x2="188.0" y2="276.0" stroke="#111" stroke-width="4"/>
<line x1="-40" y1="48" x2="200.0" y2="276.0" stroke="#111" stroke-width="4"/>
<line x1="-28" y1="48" x2="212.0" y2="276.0" stroke="#111" stroke-width="4"/>
<line x1="-16" y1="48" x2="224.0" y2="276.0" stroke="#111" stroke-width="4"/>
<line x1="-4" y1="48" x2="236.0" y2="276.0" stroke="#111" stroke-width="4"/>
<line x1="8" y1="48" x2="248.0" y2="276.0" stroke="#111" stroke-width="4"/>
<line x1="20" y1="48" x2="260.0" y2="276.0" stroke="#111" stroke-width="4"/>
<line x1="32" y1="48" x2="272.0" y2="276.0" stroke="#111" stroke-width="4"/>
<line x1="44" y1="48" x2="284.0" y2="276.0" stroke="#111" stroke-width="4"/>
<line x1="56" y1="48" x2="296.0" y2="276.0" stroke="#111" stroke-width="4"/>
<line x1="68" y1="48" x2="308.0" y2="276.0" stroke="#111" stroke-width="4"/>
<line x1="80" y1="48" x2="320.0" y2="276.0" stroke="#111" stroke-width="4"/>
<line x1="92" y1="48" x2="332.0" y2="276.0" stroke="#111" stroke-width="4"/>
<line x1="104" y1="48" x2="344.0" y2="276.0" stroke="#111" stroke-width="4"/>
<line x1="116" y1="48" x2="356.0" y2="276.0" stroke="#111" stroke-width="4"/>
<line x1="128" y1="48" x2="368.0" y2="276.0" stroke="#111" stroke-width="4"/>
<line x1="140" y1="48" x2="380.0" y2="276.0" stroke="#111" stroke-width="4"/>
<line x1="152" y1="48" x2="392.0" y2="276.0" stroke="#111" stroke-width="4"/>
<line x1="164" y1="48" x2="404.0" y2="276.0" stroke="#111" stroke-width="4"/>
<line x1="176" y1="48" x2="416.0" y2="276.0" stroke="#111" stroke-width="4"/>
<line x1="188" y1="48" x2="428.0" y2="276.0" stroke="#111" stroke-width="4"/>
<line x1="200" y1="48" x2="440.0" y2="276.0" stroke="#111" stroke-width="4"/>
<line x1="212" y1="48" x2="452.0" y2="276.0" stroke="#111" stroke-width="4"/>
<line x1="224" y1="48" x2="464.0" y2="276.0" stroke="#111" stroke-width="4"/>
<line x1="236" y1="48" x2="476.0" y2="276.0" stroke="#111" stroke-width="4"/>
<line x1="248" y1="48" x2="488.0" y2="276.0" stroke="#111" stroke-width="4"/>
<line x1="260" y1="48" x2="500.0" y2="276.0" stroke="#111" stroke-width="4"/>
<line x1="272" y1="48" x2="512.0" y2="276.0" stroke="#111" stroke-width="4"/>
<line x1="284" y1="48" x2="524.0" y2="276.0" stroke="#111" stroke-width="4"/>
<line x1="296" y1="48" x2="536.0" y2="276.0" stroke="#111" stroke-width="4"/>
<line x1="308" y1="48" x2="548.0" y2="276.0" stroke="#111" stroke-width="4"/>
<line x1="320" y1="48" x2="560.0" y2="276.0" stroke="#111" stroke-width="4"/>
<line x1="332" y1="48" x2="572.0" y2="276.0" stroke="#111" stroke-width="4"/>
<line x1="344" y1="48" x2="584.0" y2="276.0" stroke="#111" stroke-width="4"/>
<line x1="356" y1="48" x2="596.0" y2="276.0" stroke="#111" stroke-width="4"/>
<line x1="368" y1="48" x2="608.0" y2="276.0" stroke="#111" stroke-width="4"/>
<line x1="380" y1="48" x2="620.0" y2="276.0" stroke="#111" stroke-width="4"/>
<line x1="392" y1="48" x2="632.0" y2="276.0" stroke="#111" stroke-width="4"/>
<line x1="404" y1="48" x2="644.0" y2="276.0" stroke="#111" stroke-width="4"/>
<line x1="416" y1="48" x2="656.0" y2="276.0" stroke="#111" stroke-width="4"/>
<line x1="428" y1="48" x2="668.0" y2="276.0" stroke="#111" stroke-width="4"/>
<line x1="440" y1="48" x2="680.0" y2="276.0" stroke="#111" stroke-width="4"/>
</g>
<text x="105" y="162.0" text-anchor="middle" font-family="Arial" font-size="14" font-weight="bold" fill="#111">B2</text>
<text x="105" y="172.0" text-anchor="middle" font-family="Arial" font-size="5" fill="#111">MID-CENTER</text>
<text x="105" y="182.0" text-anchor="middle" font-family="Arial" font-size="3.5" fill="#333">Visibility panel · temporary 3×3 board</text>
</svg>