<svg xmlns="http://www.w3.org/2000/svg" width="210mm" height="297mm" viewBox="0 0 210 297">
<rect width="210" height="297" fill="white"/>

<text x="105" y="12" text-anchor="middle" font-family="Arial" font-size="6" font-weight="bold">KIRKET 3×3 A4 — SHEET B3 — MID-RIGHT</text>
<text x="105" y="18" text-anchor="middle" font-family="Arial" font-size="3.2">Print at 100% / Actual Size · Temporary board: place → calibrate → remove</text>
<text x="105" y="23" text-anchor="middle" font-family="Arial" font-size="3">Overlap 15 mm · Stick sheets ON TOP at dashed attach lines · Crosses = exact corners</text>

<rect x="172.0" y="26.0" width="10" height="10" fill="#f3f4f6" stroke="#111" stroke-width="0.3"/>
<text x="177.0" y="32.2" text-anchor="middle" font-family="Arial" font-size="2.4" fill="#111">A1</text>
<rect x="183.5" y="26.0" width="10" height="10" fill="#f3f4f6" stroke="#111" stroke-width="0.3"/>
<text x="188.5" y="32.2" text-anchor="middle" font-family="Arial" font-size="2.4" fill="#111">A2</text>
<rect x="195.0" y="26.0" width="10" height="10" fill="#f3f4f6" stroke="#111" stroke-width="0.3"/>
<text x="200.0" y="32.2" text-anchor="middle" font-family="Arial" font-size="2.4" fill="#111">A3</text>
<rect x="172.0" y="37.5" width="10" height="10" fill="#f3f4f6" stroke="#111" stroke-width="0.3"/>
<text x="177.0" y="43.7" text-anchor="middle" font-family="Arial" font-size="2.4" fill="#111">B1</text>
<rect x="183.5" y="37.5" width="10" height="10" fill="#f3f4f6" stroke="#111" stroke-width="0.3"/>
<text x="188.5" y="43.7" text-anchor="middle" font-family="Arial" font-size="2.4" fill="#111">B2</text>
<rect x="195.0" y="37.5" width="10" height="10" fill="#e11d48" stroke="#111" stroke-width="0.3"/>
<text x="200.0" y="43.7" text-anchor="middle" font-family="Arial" font-size="2.4" fill="#fff">B3</text>
<rect x="172.0" y="49.0" width="10" height="10" fill="#f3f4f6" stroke="#111" stroke-width="0.3"/>
<text x="177.0" y="55.2" text-anchor="middle" font-family="Arial" font-size="2.4" fill="#111">C1</text>
<rect x="183.5" y="49.0" width="10" height="10" fill="#f3f4f6" stroke="#111" stroke-width="0.3"/>
<text x="188.5" y="55.2" text-anchor="middle" font-family="Arial" font-size="2.4" fill="#111">C2</text>
<rect x="195.0" y="49.0" width="10" height="10" fill="#f3f4f6" stroke="#111" stroke-width="0.3"/>
<text x="200.0" y="55.2" text-anchor="middle" font-family="Arial" font-size="2.4" fill="#111">C3</text>
<text x="189.25" y="64.5" text-anchor="middle" font-family="Arial" font-size="2.2">camera ↓</text>
<line x1="15.0" y1="15.0" x2="15.0" y2="282.0" stroke="#111" stroke-width="0.45" stroke-dasharray="3 2"/>
<line x1="11.0" y1="23.0" x2="19.0" y2="23.0" stroke="#111" stroke-width="0.35"/><line x1="15.0" y1="19.0" x2="15.0" y2="27.0" stroke="#111" stroke-width="0.35"/>
<line x1="11.0" y1="148.5" x2="19.0" y2="148.5" stroke="#111" stroke-width="0.35"/><line x1="15.0" y1="144.5" x2="15.0" y2="152.5" stroke="#111" stroke-width="0.35"/>
<line x1="11.0" y1="274.0" x2="19.0" y2="274.0" stroke="#111" stroke-width="0.35"/><line x1="15.0" y1="270.0" x2="15.0" y2="278.0" stroke="#111" stroke-width="0.35"/>
<text x="17.0" y="148.5" text-anchor="start" font-family="Arial" font-size="3.2" transform="rotate(90 17.0 148.5)">ALIGN RIGHT EDGE OF B2 ON THIS LINE (tape B2 ON TOP)</text>
<rect x="0" y="0" width="15.0" height="297.0" fill="#000" fill-opacity="0.04"/>
<line x1="15.0" y1="282.0" x2="195.0" y2="282.0" stroke="#111" stroke-width="0.45" stroke-dasharray="3 2"/>
<line x1="19.0" y1="282.0" x2="27.0" y2="282.0" stroke="#111" stroke-width="0.35"/><line x1="23.0" y1="278.0" x2="23.0" y2="286.0" stroke="#111" stroke-width="0.35"/>
<line x1="101.0" y1="282.0" x2="109.0" y2="282.0" stroke="#111" stroke-width="0.35"/><line x1="105.0" y1="278.0" x2="105.0" y2="286.0" stroke="#111" stroke-width="0.35"/>
<line x1="183.0" y1="282.0" x2="191.0" y2="282.0" stroke="#111" stroke-width="0.35"/><line x1="187.0" y1="278.0" x2="187.0" y2="286.0" stroke="#111" stroke-width="0.35"/>
<text x="105.0" y="279.0" text-anchor="middle" font-family="Arial" font-size="3.2">ALIGN TOP EDGE OF C3 ON THIS LINE (tape C3 ON TOP)</text>
<rect x="0" y="282.0" width="210.0" height="15.0" fill="#000" fill-opacity="0.04"/>
<line x1="15.0" y1="0.4" x2="195.0" y2="0.4" stroke="#e11d48" stroke-width="0.8"/>
<line x1="20.0" y1="2.5" x2="26.0" y2="2.5" stroke="#111" stroke-width="0.4"/><line x1="23.0" y1="-0.5" x2="23.0" y2="5.5" stroke="#111" stroke-width="0.4"/>
<line x1="102.0" y1="2.5" x2="108.0" y2="2.5" stroke="#111" stroke-width="0.4"/><line x1="105.0" y1="-0.5" x2="105.0" y2="5.5" stroke="#111" stroke-width="0.4"/>
<line x1="184.0" y1="2.5" x2="190.0" y2="2.5" stroke="#111" stroke-width="0.4"/><line x1="187.0" y1="-0.5" x2="187.0" y2="5.5" stroke="#111" stroke-width="0.4"/>
<text x="105.0" y="8" text-anchor="middle" font-family="Arial" font-size="3" fill="#e11d48">PLACE THIS EDGE ON A3 ATTACH LINE</text>
<rect x="15.0" y="42" width="187.0" height="240.0" fill="white" stroke="#111" stroke-width="0.5"/>
<rect x="18.0" y="45" width="181.0" height="234.0" fill="none" stroke="#111" stroke-width="2"/>
<defs><clipPath id="clip_B3"><rect x="21.0" y="48" width="175.0" height="228.0"/></clipPath></defs>
<g clip-path="url(#clip_B3)">
<line x1="-225.0" y1="48" x2="15.0" y2="276.0" stroke="#111" stroke-width="4"/>
<line x1="-213.0" y1="48" x2="27.0" y2="276.0" stroke="#111" stroke-width="4"/>
<line x1="-201.0" y1="48" x2="39.0" y2="276.0" stroke="#111" stroke-width="4"/>
<line x1="-189.0" y1="48" x2="51.0" y2="276.0" stroke="#111" stroke-width="4"/>
<line x1="-177.0" y1="48" x2="63.0" y2="276.0" stroke="#111" stroke-width="4"/>
<line x1="-165.0" y1="48" x2="75.0" y2="276.0" stroke="#111" stroke-width="4"/>
<line x1="-153.0" y1="48" x2="87.0" y2="276.0" stroke="#111" stroke-width="4"/>
<line x1="-141.0" y1="48" x2="99.0" y2="276.0" stroke="#111" stroke-width="4"/>
<line x1="-129.0" y1="48" x2="111.0" y2="276.0" stroke="#111" stroke-width="4"/>
<line x1="-117.0" y1="48" x2="123.0" y2="276.0" stroke="#111" stroke-width="4"/>
<line x1="-105.0" y1="48" x2="135.0" y2="276.0" stroke="#111" stroke-width="4"/>
<line x1="-93.0" y1="48" x2="147.0" y2="276.0" stroke="#111" stroke-width="4"/>
<line x1="-81.0" y1="48" x2="159.0" y2="276.0" stroke="#111" stroke-width="4"/>
<line x1="-69.0" y1="48" x2="171.0" y2="276.0" stroke="#111" stroke-width="4"/>
<line x1="-57.0" y1="48" x2="183.0" y2="276.0" stroke="#111" stroke-width="4"/>
<line x1="-45.0" y1="48" x2="195.0" y2="276.0" stroke="#111" stroke-width="4"/>
<line x1="-33.0" y1="48" x2="207.0" y2="276.0" stroke="#111" stroke-width="4"/>
<line x1="-21.0" y1="48" x2="219.0" y2="276.0" stroke="#111" stroke-width="4"/>
<line x1="-9.0" y1="48" x2="231.0" y2="276.0" stroke="#111" stroke-width="4"/>
<line x1="3.0" y1="48" x2="243.0" y2="276.0" stroke="#111" stroke-width="4"/>
<line x1="15.0" y1="48" x2="255.0" y2="276.0" stroke="#111" stroke-width="4"/>
<line x1="27.0" y1="48" x2="267.0" y2="276.0" stroke="#111" stroke-width="4"/>
<line x1="39.0" y1="48" x2="279.0" y2="276.0" stroke="#111" stroke-width="4"/>
<line x1="51.0" y1="48" x2="291.0" y2="276.0" stroke="#111" stroke-width="4"/>
<line x1="63.0" y1="48" x2="303.0" y2="276.0" stroke="#111" stroke-width="4"/>
<line x1="75.0" y1="48" x2="315.0" y2="276.0" stroke="#111" stroke-width="4"/>
<line x1="87.0" y1="48" x2="327.0" y2="276.0" stroke="#111" stroke-width="4"/>
<line x1="99.0" y1="48" x2="339.0" y2="276.0" stroke="#111" stroke-width="4"/>
<line x1="111.0" y1="48" x2="351.0" y2="276.0" stroke="#111" stroke-width="4"/>
<line x1="123.0" y1="48" x2="363.0" y2="276.0" stroke="#111" stroke-width="4"/>
<line x1="135.0" y1="48" x2="375.0" y2="276.0" stroke="#111" stroke-width="4"/>
<line x1="147.0" y1="48" x2="387.0" y2="276.0" stroke="#111" stroke-width="4"/>
<line x1="159.0" y1="48" x2="399.0" y2="276.0" stroke="#111" stroke-width="4"/>
<line x1="171.0" y1="48" x2="411.0" y2="276.0" stroke="#111" stroke-width="4"/>
<line x1="183.0" y1="48" x2="423.0" y2="276.0" stroke="#111" stroke-width="4"/>
<line x1="195.0" y1="48" x2="435.0" y2="276.0" stroke="#111" stroke-width="4"/>
<line x1="207.0" y1="48" x2="447.0" y2="276.0" stroke="#111" stroke-width="4"/>
<line x1="219.0" y1="48" x2="459.0" y2="276.0" stroke="#111" stroke-width="4"/>
<line x1="231.0" y1="48" x2="471.0" y2="276.0" stroke="#111" stroke-width="4"/>
<line x1="243.0" y1="48" x2="483.0" y2="276.0" stroke="#111" stroke-width="4"/>
<line x1="255.0" y1="48" x2="495.0" y2="276.0" stroke="#111" stroke-width="4"/>
<line x1="267.0" y1="48" x2="507.0" y2="276.0" stroke="#111" stroke-width="4"/>
<line x1="279.0" y1="48" x2="519.0" y2="276.0" stroke="#111" stroke-width="4"/>
<line x1="291.0" y1="48" x2="531.0" y2="276.0" stroke="#111" stroke-width="4"/>
<line x1="303.0" y1="48" x2="543.0" y2="276.0" stroke="#111" stroke-width="4"/>
<line x1="315.0" y1="48" x2="555.0" y2="276.0" stroke="#111" stroke-width="4"/>
<line x1="327.0" y1="48" x2="567.0" y2="276.0" stroke="#111" stroke-width="4"/>
<line x1="339.0" y1="48" x2="579.0" y2="276.0" stroke="#111" stroke-width="4"/>
<line x1="351.0" y1="48" x2="591.0" y2="276.0" stroke="#111" stroke-width="4"/>
<line x1="363.0" y1="48" x2="603.0" y2="276.0" stroke="#111" stroke-width="4"/>
<line x1="375.0" y1="48" x2="615.0" y2="276.0" stroke="#111" stroke-width="4"/>
<line x1="387.0" y1="48" x2="627.0" y2="276.0" stroke="#111" stroke-width="4"/>
<line x1="399.0" y1="48" x2="639.0" y2="276.0" stroke="#111" stroke-width="4"/>
<line x1="411.0" y1="48" x2="651.0" y2="276.0" stroke="#111" stroke-width="4"/>
<line x1="423.0" y1="48" x2="663.0" y2="276.0" stroke="#111" stroke-width="4"/>
<line x1="435.0" y1="48" x2="675.0" y2="276.0" stroke="#111" stroke-width="4"/>
</g>
<text x="105" y="162.0" text-anchor="middle" font-family="Arial" font-size="14" font-weight="bold" fill="#111">B3</text>
<text x="105" y="172.0" text-anchor="middle" font-family="Arial" font-size="5" fill="#111">MID-RIGHT</text>
<text x="105" y="182.0" text-anchor="middle" font-family="Arial" font-size="3.5" fill="#333">Visibility panel · temporary 3×3 board</text>
</svg>