<svg xmlns="http://www.w3.org/2000/svg" width="210mm" height="297mm" viewBox="0 0 210 297">
<rect width="210" height="297" fill="white"/>

<text x="105" y="12" text-anchor="middle" font-family="Arial" font-size="6" font-weight="bold">KIRKET 3×3 A4 — SHEET C1 — FRONT-LEFT</text>
<text x="105" y="18" text-anchor="middle" font-family="Arial" font-size="3.2">Print at 100% / Actual Size · Temporary board: place → calibrate → remove</text>
<text x="105" y="23" text-anchor="middle" font-family="Arial" font-size="3">Overlap 15 mm · Stick sheets ON TOP at dashed attach lines · Crosses = exact corners</text>

<rect x="172.0" y="26.0" width="10" height="10" fill="#f3f4f6" stroke="#111" stroke-width="0.3"/>
<text x="177.0" y="32.2" text-anchor="middle" font-family="Arial" font-size="2.4" fill="#111">A1</text>
<rect x="183.5" y="26.0" width="10" height="10" fill="#f3f4f6" stroke="#111" stroke-width="0.3"/>
<text x="188.5" y="32.2" text-anchor="middle" font-family="Arial" font-size="2.4" fill="#111">A2</text>
<rect x="195.0" y="26.0" width="10" height="10" fill="#f3f4f6" stroke="#111" stroke-width="0.3"/>
<text x="200.0" y="32.2" text-anchor="middle" font-family="Arial" font-size="2.4" fill="#111">A3</text>
<rect x="172.0" y="37.5" width="10" height="10" fill="#f3f4f6" stroke="#111" stroke-width="0.3"/>
<text x="177.0" y="43.7" text-anchor="middle" font-family="Arial" font-size="2.4" fill="#111">B1</text>
<rect x="183.5" y="37.5" width="10" height="10" fill="#f3f4f6" stroke="#111" stroke-width="0.3"/>
<text x="188.5" y="43.7" text-anchor="middle" font-family="Arial" font-size="2.4" fill="#111">B2</text>
<rect x="195.0" y="37.5" width="10" height="10" fill="#f3f4f6" stroke="#111" stroke-width="0.3"/>
<text x="200.0" y="43.7" text-anchor="middle" font-family="Arial" font-size="2.4" fill="#111">B3</text>
<rect x="172.0" y="49.0" width="10" height="10" fill="#e11d48" stroke="#111" stroke-width="0.3"/>
<text x="177.0" y="55.2" text-anchor="middle" font-family="Arial" font-size="2.4" fill="#fff">C1</text>
<rect x="183.5" y="49.0" width="10" height="10" fill="#f3f4f6" stroke="#111" stroke-width="0.3"/>
<text x="188.5" y="55.2" text-anchor="middle" font-family="Arial" font-size="2.4" fill="#111">C2</text>
<rect x="195.0" y="49.0" width="10" height="10" fill="#f3f4f6" stroke="#111" stroke-width="0.3"/>
<text x="200.0" y="55.2" text-anchor="middle" font-family="Arial" font-size="2.4" fill="#111">C3</text>
<text x="189.25" y="64.5" text-anchor="middle" font-family="Arial" font-size="2.2">camera ↓</text>
<line x1="195.0" y1="15.0" x2="195.0" y2="282.0" stroke="#111" stroke-width="0.45" stroke-dasharray="3 2"/>
<line x1="191.0" y1="23.0" x2="199.0" y2="23.0" stroke="#111" stroke-width="0.35"/><line x1="195.0" y1="19.0" x2="195.0" y2="27.0" stroke="#111" stroke-width="0.35"/>
<line x1="191.0" y1="148.5" x2="199.0" y2="148.5" stroke="#111" stroke-width="0.35"/><line x1="195.0" y1="144.5" x2="195.0" y2="152.5" stroke="#111" stroke-width="0.35"/>
<line x1="191.0" y1="274.0" x2="199.0" y2="274.0" stroke="#111" stroke-width="0.35"/><line x1="195.0" y1="270.0" x2="195.0" y2="278.0" stroke="#111" stroke-width="0.35"/>
<text x="193.0" y="148.5" text-anchor="end" font-family="Arial" font-size="3.2" transform="rotate(-90 193.0 148.5)">ALIGN LEFT EDGE OF C2 ON THIS LINE (tape C2 ON TOP)</text>
<rect x="195.0" y="0" width="15.0" height="297.0" fill="#000" fill-opacity="0.04"/>
<line x1="15.0" y1="0.4" x2="195.0" y2="0.4" stroke="#e11d48" stroke-width="0.8"/>
<line x1="20.0" y1="2.5" x2="26.0" y2="2.5" stroke="#111" stroke-width="0.4"/><line x1="23.0" y1="-0.5" x2="23.0" y2="5.5" stroke="#111" stroke-width="0.4"/>
<line x1="102.0" y1="2.5" x2="108.0" y2="2.5" stroke="#111" stroke-width="0.4"/><line x1="105.0" y1="-0.5" x2="105.0" y2="5.5" stroke="#111" stroke-width="0.4"/>
<line x1="184.0" y1="2.5" x2="190.0" y2="2.5" stroke="#111" stroke-width="0.4"/><line x1="187.0" y1="-0.5" x2="187.0" y2="5.5" stroke="#111" stroke-width="0.4"/>
<text x="105.0" y="8" text-anchor="middle" font-family="Arial" font-size="3" fill="#e11d48">PLACE THIS EDGE ON B1 ATTACH LINE</text>
<rect x="8" y="42" width="187.0" height="243.0" fill="white" stroke="#111" stroke-width="0.5"/>
<rect x="11" y="45" width="181.0" height="237.0" fill="none" stroke="#111" stroke-width="2"/>
<defs><clipPath id="clip_C1"><rect x="14" y="48" width="175.0" height="231.0"/></clipPath></defs>
<g clip-path="url(#clip_C1)">
<line x1="-235" y1="48" x2="8.0" y2="279.0" stroke="#111" stroke-width="4"/>
<line x1="-223" y1="48" x2="20.0" y2="279.0" stroke="#111" stroke-width="4"/>
<line x1="-211" y1="48" x2="32.0" y2="279.0" stroke="#111" stroke-width="4"/>
<line x1="-199" y1="48" x2="44.0" y2="279.0" stroke="#111" stroke-width="4"/>
<line x1="-187" y1="48" x2="56.0" y2="279.0" stroke="#111" stroke-width="4"/>
<line x1="-175" y1="48" x2="68.0" y2="279.0" stroke="#111" stroke-width="4"/>
<line x1="-163" y1="48" x2="80.0" y2="279.0" stroke="#111" stroke-width="4"/>
<line x1="-151" y1="48" x2="92.0" y2="279.0" stroke="#111" stroke-width="4"/>
<line x1="-139" y1="48" x2="104.0" y2="279.0" stroke="#111" stroke-width="4"/>
<line x1="-127" y1="48" x2="116.0" y2="279.0" stroke="#111" stroke-width="4"/>
<line x1="-115" y1="48" x2="128.0" y2="279.0" stroke="#111" stroke-width="4"/>
<line x1="-103" y1="48" x2="140.0" y2="279.0" stroke="#111" stroke-width="4"/>
<line x1="-91" y1="48" x2="152.0" y2="279.0" stroke="#111" stroke-width="4"/>
<line x1="-79" y1="48" x2="164.0" y2="279.0" stroke="#111" stroke-width="4"/>
<line x1="-67" y1="48" x2="176.0" y2="279.0" stroke="#111" stroke-width="4"/>
<line x1="-55" y1="48" x2="188.0" y2="279.0" stroke="#111" stroke-width="4"/>
<line x1="-43" y1="48" x2="200.0" y2="279.0" stroke="#111" stroke-width="4"/>
<line x1="-31" y1="48" x2="212.0" y2="279.0" stroke="#111" stroke-width="4"/>
<line x1="-19" y1="48" x2="224.0" y2="279.0" stroke="#111" stroke-width="4"/>
<line x1="-7" y1="48" x2="236.0" y2="279.0" stroke="#111" stroke-width="4"/>
<line x1="5" y1="48" x2="248.0" y2="279.0" stroke="#111" stroke-width="4"/>
<line x1="17" y1="48" x2="260.0" y2="279.0" stroke="#111" stroke-width="4"/>
<line x1="29" y1="48" x2="272.0" y2="279.0" stroke="#111" stroke-width="4"/>
<line x1="41" y1="48" x2="284.0" y2="279.0" stroke="#111" stroke-width="4"/>
<line x1="53" y1="48" x2="296.0" y2="279.0" stroke="#111" stroke-width="4"/>
<line x1="65" y1="48" x2="308.0" y2="279.0" stroke="#111" stroke-width="4"/>
<line x1="77" y1="48" x2="320.0" y2="279.0" stroke="#111" stroke-width="4"/>
<line x1="89" y1="48" x2="332.0" y2="279.0" stroke="#111" stroke-width="4"/>
<line x1="101" y1="48" x2="344.0" y2="279.0" stroke="#111" stroke-width="4"/>
<line x1="113" y1="48" x2="356.0" y2="279.0" stroke="#111" stroke-width="4"/>
<line x1="125" y1="48" x2="368.0" y2="279.0" stroke="#111" stroke-width="4"/>
<line x1="137" y1="48" x2="380.0" y2="279.0" stroke="#111" stroke-width="4"/>
<line x1="149" y1="48" x2="392.0" y2="279.0" stroke="#111" stroke-width="4"/>
<line x1="161" y1="48" x2="404.0" y2="279.0" stroke="#111" stroke-width="4"/>
<line x1="173" y1="48" x2="416.0" y2="279.0" stroke="#111" stroke-width="4"/>
<line x1="185" y1="48" x2="428.0" y2="279.0" stroke="#111" stroke-width="4"/>
<line x1="197" y1="48" x2="440.0" y2="279.0" stroke="#111" stroke-width="4"/>
<line x1="209" y1="48" x2="452.0" y2="279.0" stroke="#111" stroke-width="4"/>
<line x1="221" y1="48" x2="464.0" y2="279.0" stroke="#111" stroke-width="4"/>
<line x1="233" y1="48" x2="476.0" y2="279.0" stroke="#111" stroke-width="4"/>
<line x1="245" y1="48" x2="488.0" y2="279.0" stroke="#111" stroke-width="4"/>
<line x1="257" y1="48" x2="500.0" y2="279.0" stroke="#111" stroke-width="4"/>
<line x1="269" y1="48" x2="512.0" y2="279.0" stroke="#111" stroke-width="4"/>
<line x1="281" y1="48" x2="524.0" y2="279.0" stroke="#111" stroke-width="4"/>
<line x1="293" y1="48" x2="536.0" y2="279.0" stroke="#111" stroke-width="4"/>
<line x1="305" y1="48" x2="548.0" y2="279.0" stroke="#111" stroke-width="4"/>
<line x1="317" y1="48" x2="560.0" y2="279.0" stroke="#111" stroke-width="4"/>
<line x1="329" y1="48" x2="572.0" y2="279.0" stroke="#111" stroke-width="4"/>
<line x1="341" y1="48" x2="584.0" y2="279.0" stroke="#111" stroke-width="4"/>
<line x1="353" y1="48" x2="596.0" y2="279.0" stroke="#111" stroke-width="4"/>
<line x1="365" y1="48" x2="608.0" y2="279.0" stroke="#111" stroke-width="4"/>
<line x1="377" y1="48" x2="620.0" y2="279.0" stroke="#111" stroke-width="4"/>
<line x1="389" y1="48" x2="632.0" y2="279.0" stroke="#111" stroke-width="4"/>
<line x1="401" y1="48" x2="644.0" y2="279.0" stroke="#111" stroke-width="4"/>
<line x1="413" y1="48" x2="656.0" y2="279.0" stroke="#111" stroke-width="4"/>
<line x1="425" y1="48" x2="668.0" y2="279.0" stroke="#111" stroke-width="4"/>
<line x1="437" y1="48" x2="680.0" y2="279.0" stroke="#111" stroke-width="4"/>
</g>
<text x="105" y="163.5" text-anchor="middle" font-family="Arial" font-size="14" font-weight="bold" fill="#111">C1</text>
<text x="105" y="173.5" text-anchor="middle" font-family="Arial" font-size="5" fill="#111">FRONT-LEFT</text>
<text x="105" y="183.5" text-anchor="middle" font-family="Arial" font-size="3.5" fill="#333">Visibility panel · temporary 3×3 board</text>
</svg>