<svg xmlns="http://www.w3.org/2000/svg" width="210mm" height="297mm" viewBox="0 0 210 297">
<rect width="210" height="297" fill="white"/>

<text x="105" y="12" text-anchor="middle" font-family="Arial" font-size="6" font-weight="bold">KIRKET 3×3 A4 — SHEET C2 — FRONT-CENTER (QR)</text>
<text x="105" y="18" text-anchor="middle" font-family="Arial" font-size="3.2">Print at 100% / Actual Size · Temporary board: place → calibrate → remove</text>
<text x="105" y="23" text-anchor="middle" font-family="Arial" font-size="3">Overlap 15 mm · Stick sheets ON TOP at dashed attach lines · Crosses = exact corners</text>

<rect x="172.0" y="26.0" width="10" height="10" fill="#f3f4f6" stroke="#111" stroke-width="0.3"/>
<text x="177.0" y="32.2" text-anchor="middle" font-family="Arial" font-size="2.4" fill="#111">A1</text>
<rect x="183.5" y="26.0" width="10" height="10" fill="#f3f4f6" stroke="#111" stroke-width="0.3"/>
<text x="188.5" y="32.2" text-anchor="middle" font-family="Arial" font-size="2.4" fill="#111">A2</text>
<rect x="195.0" y="26.0" width="10" height="10" fill="#f3f4f6" stroke="#111" stroke-width="0.3"/>
<text x="200.0" y="32.2" text-anchor="middle" font-family="Arial" font-size="2.4" fill="#111">A3</text>
<rect x="172.0" y="37.5" width="10" height="10" fill="#f3f4f6" stroke="#111" stroke-width="0.3"/>
<text x="177.0" y="43.7" text-anchor="middle" font-family="Arial" font-size="2.4" fill="#111">B1</text>
<rect x="183.5" y="37.5" width="10" height="10" fill="#f3f4f6" stroke="#111" stroke-width="0.3"/>
<text x="188.5" y="43.7" text-anchor="middle" font-family="Arial" font-size="2.4" fill="#111">B2</text>
<rect x="195.0" y="37.5" width="10" height="10" fill="#f3f4f6" stroke="#111" stroke-width="0.3"/>
<text x="200.0" y="43.7" text-anchor="middle" font-family="Arial" font-size="2.4" fill="#111">B3</text>
<rect x="172.0" y="49.0" width="10" height="10" fill="#f3f4f6" stroke="#111" stroke-width="0.3"/>
<text x="177.0" y="55.2" text-anchor="middle" font-family="Arial" font-size="2.4" fill="#111">C1</text>
<rect x="183.5" y="49.0" width="10" height="10" fill="#e11d48" stroke="#111" stroke-width="0.3"/>
<text x="188.5" y="55.2" text-anchor="middle" font-family="Arial" font-size="2.4" fill="#fff">C2</text>
<rect x="195.0" y="49.0" width="10" height="10" fill="#f3f4f6" stroke="#111" stroke-width="0.3"/>
<text x="200.0" y="55.2" text-anchor="middle" font-family="Arial" font-size="2.4" fill="#111">C3</text>
<text x="189.25" y="64.5" text-anchor="middle" font-family="Arial" font-size="2.2">camera ↓</text>
<line x1="0.4" y1="15.0" x2="0.4" y2="282.0" stroke="#e11d48" stroke-width="0.8"/>
<line x1="-0.5" y1="23.0" x2="5.5" y2="23.0" stroke="#111" stroke-width="0.4"/><line x1="2.5" y1="20.0" x2="2.5" y2="26.0" stroke="#111" stroke-width="0.4"/>
<line x1="-0.5" y1="148.5" x2="5.5" y2="148.5" stroke="#111" stroke-width="0.4"/><line x1="2.5" y1="145.5" x2="2.5" y2="151.5" stroke="#111" stroke-width="0.4"/>
<line x1="-0.5" y1="274.0" x2="5.5" y2="274.0" stroke="#111" stroke-width="0.4"/><line x1="2.5" y1="271.0" x2="2.5" y2="277.0" stroke="#111" stroke-width="0.4"/>
<text x="5" y="148.5" font-family="Arial" font-size="3" fill="#e11d48" transform="rotate(90 5 148.5)">PLACE THIS EDGE ON C1 ATTACH LINE</text>
<line x1="209.6" y1="15.0" x2="209.6" y2="282.0" stroke="#e11d48" stroke-width="0.8"/>
<line x1="204.5" y1="23.0" x2="210.5" y2="23.0" stroke="#111" stroke-width="0.4"/><line x1="207.5" y1="20.0" x2="207.5" y2="26.0" stroke="#111" stroke-width="0.4"/>
<line x1="204.5" y1="148.5" x2="210.5" y2="148.5" stroke="#111" stroke-width="0.4"/><line x1="207.5" y1="145.5" x2="207.5" y2="151.5" stroke="#111" stroke-width="0.4"/>
<line x1="204.5" y1="274.0" x2="210.5" y2="274.0" stroke="#111" stroke-width="0.4"/><line x1="207.5" y1="271.0" x2="207.5" y2="277.0" stroke="#111" stroke-width="0.4"/>
<text x="205.0" y="148.5" font-family="Arial" font-size="3" fill="#e11d48" transform="rotate(-90 205.0 148.5)">PLACE THIS EDGE ON C3 ATTACH LINE</text>
<line x1="15.0" y1="0.4" x2="195.0" y2="0.4" stroke="#e11d48" stroke-width="0.8"/>
<line x1="20.0" y1="2.5" x2="26.0" y2="2.5" stroke="#111" stroke-width="0.4"/><line x1="23.0" y1="-0.5" x2="23.0" y2="5.5" stroke="#111" stroke-width="0.4"/>
<line x1="102.0" y1="2.5" x2="108.0" y2="2.5" stroke="#111" stroke-width="0.4"/><line x1="105.0" y1="-0.5" x2="105.0" y2="5.5" stroke="#111" stroke-width="0.4"/>
<line x1="184.0" y1="2.5" x2="190.0" y2="2.5" stroke="#111" stroke-width="0.4"/><line x1="187.0" y1="-0.5" x2="187.0" y2="5.5" stroke="#111" stroke-width="0.4"/>
<text x="105.0" y="8" text-anchor="middle" font-family="Arial" font-size="3" fill="#e11d48">PLACE THIS EDGE ON B2 ATTACH LINE</text>
<rect x="25.0" y="30.0" width="160.0" height="160.0" fill="white" stroke="black" stroke-width="0.4"/>
<rect x="40.60976" y="45.60976" width="3.90244" height="3.90244" fill="black"/>
<rect x="44.51220" y="45.60976" width="3.90244" height="3.90244" fill="black"/>
<rect x="48.41463" y="45.60976" width="3.90244" height="3.90244" fill="black"/>
<rect x="52.31707" y="45.60976" width="3.90244" height="3.90244" fill="black"/>
<rect x="56.21951" y="45.60976" width="3.90244" height="3.90244" fill="black"/>
<rect x="60.12195" y="45.60976" width="3.90244" height="3.90244" fill="black"/>
<rect x="64.02439" y="45.60976" width="3.90244" height="3.90244" fill="black"/>
<rect x="83.53659" y="45.60976" width="3.90244" height="3.90244" fill="black"/>
<rect x="87.43902" y="45.60976" width="3.90244" height="3.90244" fill="black"/>
<rect x="103.04878" y="45.60976" width="3.90244" height="3.90244" fill="black"/>
<rect x="114.75610" y="45.60976" width="3.90244" height="3.90244" fill="black"/>
<rect x="122.56098" y="45.60976" width="3.90244" height="3.90244" fill="black"/>
<rect x="130.36585" y="45.60976" width="3.90244" height="3.90244" fill="black"/>
<rect x="142.07317" y="45.60976" width="3.90244" height="3.90244" fill="black"/>
<rect x="145.97561" y="45.60976" width="3.90244" height="3.90244" fill="black"/>
<rect x="149.87805" y="45.60976" width="3.90244" height="3.90244" fill="black"/>
<rect x="153.78049" y="45.60976" width="3.90244" height="3.90244" fill="black"/>
<rect x="157.68293" y="45.60976" width="3.90244" height="3.90244" fill="black"/>
<rect x="161.58537" y="45.60976" width="3.90244" height="3.90244" fill="black"/>
<rect x="165.48780" y="45.60976" width="3.90244" height="3.90244" fill="black"/>
<rect x="40.60976" y="49.51220" width="3.90244" height="3.90244" fill="black"/>
<rect x="64.02439" y="49.51220" width="3.90244" height="3.90244" fill="black"/>
<rect x="71.82927" y="49.51220" width="3.90244" height="3.90244" fill="black"/>
<rect x="83.53659" y="49.51220" width="3.90244" height="3.90244" fill="black"/>
<rect x="91.34146" y="49.51220" width="3.90244" height="3.90244" fill="black"/>
<rect x="95.24390" y="49.51220" width="3.90244" height="3.90244" fill="black"/>
<rect x="103.04878" y="49.51220" width="3.90244" height="3.90244" fill="black"/>
<rect x="106.95122" y="49.51220" width="3.90244" height="3.90244" fill="black"/>
<rect x="118.65854" y="49.51220" width="3.90244" height="3.90244" fill="black"/>
<rect x="126.46341" y="49.51220" width="3.90244" height="3.90244" fill="black"/>
<rect x="142.07317" y="49.51220" width="3.90244" height="3.90244" fill="black"/>
<rect x="165.48780" y="49.51220" width="3.90244" height="3.90244" fill="black"/>
<rect x="40.60976" y="53.41463" width="3.90244" height="3.90244" fill="black"/>
<rect x="48.41463" y="53.41463" width="3.90244" height="3.90244" fill="black"/>
<rect x="52.31707" y="53.41463" width="3.90244" height="3.90244" fill="black"/>
<rect x="56.21951" y="53.41463" width="3.90244" height="3.90244" fill="black"/>
<rect x="64.02439" y="53.41463" width="3.90244" height="3.90244" fill="black"/>
<rect x="71.82927" y="53.41463" width="3.90244" height="3.90244" fill="black"/>
<rect x="75.73171" y="53.41463" width="3.90244" height="3.90244" fill="black"/>
<rect x="83.53659" y="53.41463" width="3.90244" height="3.90244" fill="black"/>
<rect x="87.43902" y="53.41463" width="3.90244" height="3.90244" fill="black"/>
<rect x="91.34146" y="53.41463" width="3.90244" height="3.90244" fill="black"/>
<rect x="103.04878" y="53.41463" width="3.90244" height="3.90244" fill="black"/>
<rect x="106.95122" y="53.41463" width="3.90244" height="3.90244" fill="black"/>
<rect x="110.85366" y="53.41463" width="3.90244" height="3.90244" fill="black"/>
<rect x="114.75610" y="53.41463" width="3.90244" height="3.90244" fill="black"/>
<rect x="118.65854" y="53.41463" width="3.90244" height="3.90244" fill="black"/>
<rect x="122.56098" y="53.41463" width="3.90244" height="3.90244" fill="black"/>
<rect x="126.46341" y="53.41463" width="3.90244" height="3.90244" fill="black"/>
<rect x="130.36585" y="53.41463" width="3.90244" height="3.90244" fill="black"/>
<rect x="134.26829" y="53.41463" width="3.90244" height="3.90244" fill="black"/>
<rect x="142.07317" y="53.41463" width="3.90244" height="3.90244" fill="black"/>
<rect x="149.87805" y="53.41463" width="3.90244" height="3.90244" fill="black"/>
<rect x="153.78049" y="53.41463" width="3.90244" height="3.90244" fill="black"/>
<rect x="157.68293" y="53.41463" width="3.90244" height="3.90244" fill="black"/>
<rect x="165.48780" y="53.41463" width="3.90244" height="3.90244" fill="black"/>
<rect x="40.60976" y="57.31707" width="3.90244" height="3.90244" fill="black"/>
<rect x="48.41463" y="57.31707" width="3.90244" height="3.90244" fill="black"/>
<rect x="52.31707" y="57.31707" width="3.90244" height="3.90244" fill="black"/>
<rect x="56.21951" y="57.31707" width="3.90244" height="3.90244" fill="black"/>
<rect x="64.02439" y="57.31707" width="3.90244" height="3.90244" fill="black"/>
<rect x="71.82927" y="57.31707" width="3.90244" height="3.90244" fill="black"/>
<rect x="75.73171" y="57.31707" width="3.90244" height="3.90244" fill="black"/>
<rect x="79.63415" y="57.31707" width="3.90244" height="3.90244" fill="black"/>
<rect x="99.14634" y="57.31707" width="3.90244" height="3.90244" fill="black"/>
<rect x="114.75610" y="57.31707" width="3.90244" height="3.90244" fill="black"/>
<rect x="118.65854" y="57.31707" width="3.90244" height="3.90244" fill="black"/>
<rect x="134.26829" y="57.31707" width="3.90244" height="3.90244" fill="black"/>
<rect x="142.07317" y="57.31707" width="3.90244" height="3.90244" fill="black"/>
<rect x="149.87805" y="57.31707" width="3.90244" height="3.90244" fill="black"/>
<rect x="153.78049" y="57.31707" width="3.90244" height="3.90244" fill="black"/>
<rect x="157.68293" y="57.31707" width="3.90244" height="3.90244" fill="black"/>
<rect x="165.48780" y="57.31707" width="3.90244" height="3.90244" fill="black"/>
<rect x="40.60976" y="61.21951" width="3.90244" height="3.90244" fill="black"/>
<rect x="48.41463" y="61.21951" width="3.90244" height="3.90244" fill="black"/>
<rect x="52.31707" y="61.21951" width="3.90244" height="3.90244" fill="black"/>
<rect x="56.21951" y="61.21951" width="3.90244" height="3.90244" fill="black"/>
<rect x="64.02439" y="61.21951" width="3.90244" height="3.90244" fill="black"/>
<rect x="79.63415" y="61.21951" width="3.90244" height="3.90244" fill="black"/>
<rect x="87.43902" y="61.21951" width="3.90244" height="3.90244" fill="black"/>
<rect x="99.14634" y="61.21951" width="3.90244" height="3.90244" fill="black"/>
<rect x="110.85366" y="61.21951" width="3.90244" height="3.90244" fill="black"/>
<rect x="126.46341" y="61.21951" width="3.90244" height="3.90244" fill="black"/>
<rect x="142.07317" y="61.21951" width="3.90244" height="3.90244" fill="black"/>
<rect x="149.87805" y="61.21951" width="3.90244" height="3.90244" fill="black"/>
<rect x="153.78049" y="61.21951" width="3.90244" height="3.90244" fill="black"/>
<rect x="157.68293" y="61.21951" width="3.90244" height="3.90244" fill="black"/>
<rect x="165.48780" y="61.21951" width="3.90244" height="3.90244" fill="black"/>
<rect x="40.60976" y="65.12195" width="3.90244" height="3.90244" fill="black"/>
<rect x="64.02439" y="65.12195" width="3.90244" height="3.90244" fill="black"/>
<rect x="83.53659" y="65.12195" width="3.90244" height="3.90244" fill="black"/>
<rect x="87.43902" y="65.12195" width="3.90244" height="3.90244" fill="black"/>
<rect x="103.04878" y="65.12195" width="3.90244" height="3.90244" fill="black"/>
<rect x="106.95122" y="65.12195" width="3.90244" height="3.90244" fill="black"/>
<rect x="118.65854" y="65.12195" width="3.90244" height="3.90244" fill="black"/>
<rect x="122.56098" y="65.12195" width="3.90244" height="3.90244" fill="black"/>
<rect x="126.46341" y="65.12195" width="3.90244" height="3.90244" fill="black"/>
<rect x="142.07317" y="65.12195" width="3.90244" height="3.90244" fill="black"/>
<rect x="165.48780" y="65.12195" width="3.90244" height="3.90244" fill="black"/>
<rect x="40.60976" y="69.02439" width="3.90244" height="3.90244" fill="black"/>
<rect x="44.51220" y="69.02439" width="3.90244" height="3.90244" fill="black"/>
<rect x="48.41463" y="69.02439" width="3.90244" height="3.90244" fill="black"/>
<rect x="52.31707" y="69.02439" width="3.90244" height="3.90244" fill="black"/>
<rect x="56.21951" y="69.02439" width="3.90244" height="3.90244" fill="black"/>
<rect x="60.12195" y="69.02439" width="3.90244" height="3.90244" fill="black"/>
<rect x="64.02439" y="69.02439" width="3.90244" height="3.90244" fill="black"/>
<rect x="71.82927" y="69.02439" width="3.90244" height="3.90244" fill="black"/>
<rect x="79.63415" y="69.02439" width="3.90244" height="3.90244" fill="black"/>
<rect x="87.43902" y="69.02439" width="3.90244" height="3.90244" fill="black"/>
<rect x="95.24390" y="69.02439" width="3.90244" height="3.90244" fill="black"/>
<rect x="103.04878" y="69.02439" width="3.90244" height="3.90244" fill="black"/>
<rect x="110.85366" y="69.02439" width="3.90244" height="3.90244" fill="black"/>
<rect x="118.65854" y="69.02439" width="3.90244" height="3.90244" fill="black"/>
<rect x="126.46341" y="69.02439" width="3.90244" height="3.90244" fill="black"/>
<rect x="134.26829" y="69.02439" width="3.90244" height="3.90244" fill="black"/>
<rect x="142.07317" y="69.02439" width="3.90244" height="3.90244" fill="black"/>
<rect x="145.97561" y="69.02439" width="3.90244" height="3.90244" fill="black"/>
<rect x="149.87805" y="69.02439" width="3.90244" height="3.90244" fill="black"/>
<rect x="153.78049" y="69.02439" width="3.90244" height="3.90244" fill="black"/>
<rect x="157.68293" y="69.02439" width="3.90244" height="3.90244" fill="black"/>
<rect x="161.58537" y="69.02439" width="3.90244" height="3.90244" fill="black"/>
<rect x="165.48780" y="69.02439" width="3.90244" height="3.90244" fill="black"/>
<rect x="71.82927" y="72.92683" width="3.90244" height="3.90244" fill="black"/>
<rect x="75.73171" y="72.92683" width="3.90244" height="3.90244" fill="black"/>
<rect x="87.43902" y="72.92683" width="3.90244" height="3.90244" fill="black"/>
<rect x="95.24390" y="72.92683" width="3.90244" height="3.90244" fill="black"/>
<rect x="110.85366" y="72.92683" width="3.90244" height="3.90244" fill="black"/>
<rect x="118.65854" y="72.92683" width="3.90244" height="3.90244" fill="black"/>
<rect x="126.46341" y="72.92683" width="3.90244" height="3.90244" fill="black"/>
<rect x="130.36585" y="72.92683" width="3.90244" height="3.90244" fill="black"/>
<rect x="40.60976" y="76.82927" width="3.90244" height="3.90244" fill="black"/>
<rect x="64.02439" y="76.82927" width="3.90244" height="3.90244" fill="black"/>
<rect x="71.82927" y="76.82927" width="3.90244" height="3.90244" fill="black"/>
<rect x="87.43902" y="76.82927" width="3.90244" height="3.90244" fill="black"/>
<rect x="91.34146" y="76.82927" width="3.90244" height="3.90244" fill="black"/>
<rect x="99.14634" y="76.82927" width="3.90244" height="3.90244" fill="black"/>
<rect x="103.04878" y="76.82927" width="3.90244" height="3.90244" fill="black"/>
<rect x="106.95122" y="76.82927" width="3.90244" height="3.90244" fill="black"/>
<rect x="110.85366" y="76.82927" width="3.90244" height="3.90244" fill="black"/>
<rect x="114.75610" y="76.82927" width="3.90244" height="3.90244" fill="black"/>
<rect x="118.65854" y="76.82927" width="3.90244" height="3.90244" fill="black"/>
<rect x="122.56098" y="76.82927" width="3.90244" height="3.90244" fill="black"/>
<rect x="126.46341" y="76.82927" width="3.90244" height="3.90244" fill="black"/>
<rect x="134.26829" y="76.82927" width="3.90244" height="3.90244" fill="black"/>
<rect x="138.17073" y="76.82927" width="3.90244" height="3.90244" fill="black"/>
<rect x="142.07317" y="76.82927" width="3.90244" height="3.90244" fill="black"/>
<rect x="153.78049" y="76.82927" width="3.90244" height="3.90244" fill="black"/>
<rect x="157.68293" y="76.82927" width="3.90244" height="3.90244" fill="black"/>
<rect x="161.58537" y="76.82927" width="3.90244" height="3.90244" fill="black"/>
<rect x="40.60976" y="80.73171" width="3.90244" height="3.90244" fill="black"/>
<rect x="52.31707" y="80.73171" width="3.90244" height="3.90244" fill="black"/>
<rect x="56.21951" y="80.73171" width="3.90244" height="3.90244" fill="black"/>
<rect x="67.92683" y="80.73171" width="3.90244" height="3.90244" fill="black"/>
<rect x="83.53659" y="80.73171" width="3.90244" height="3.90244" fill="black"/>
<rect x="122.56098" y="80.73171" width="3.90244" height="3.90244" fill="black"/>
<rect x="142.07317" y="80.73171" width="3.90244" height="3.90244" fill="black"/>
<rect x="145.97561" y="80.73171" width="3.90244" height="3.90244" fill="black"/>
<rect x="149.87805" y="80.73171" width="3.90244" height="3.90244" fill="black"/>
<rect x="165.48780" y="80.73171" width="3.90244" height="3.90244" fill="black"/>
<rect x="48.41463" y="84.63415" width="3.90244" height="3.90244" fill="black"/>
<rect x="52.31707" y="84.63415" width="3.90244" height="3.90244" fill="black"/>
<rect x="56.21951" y="84.63415" width="3.90244" height="3.90244" fill="black"/>
<rect x="60.12195" y="84.63415" width="3.90244" height="3.90244" fill="black"/>
<rect x="64.02439" y="84.63415" width="3.90244" height="3.90244" fill="black"/>
<rect x="71.82927" y="84.63415" width="3.90244" height="3.90244" fill="black"/>
<rect x="83.53659" y="84.63415" width="3.90244" height="3.90244" fill="black"/>
<rect x="87.43902" y="84.63415" width="3.90244" height="3.90244" fill="black"/>
<rect x="99.14634" y="84.63415" width="3.90244" height="3.90244" fill="black"/>
<rect x="103.04878" y="84.63415" width="3.90244" height="3.90244" fill="black"/>
<rect x="110.85366" y="84.63415" width="3.90244" height="3.90244" fill="black"/>
<rect x="126.46341" y="84.63415" width="3.90244" height="3.90244" fill="black"/>
<rect x="138.17073" y="84.63415" width="3.90244" height="3.90244" fill="black"/>
<rect x="142.07317" y="84.63415" width="3.90244" height="3.90244" fill="black"/>
<rect x="149.87805" y="84.63415" width="3.90244" height="3.90244" fill="black"/>
<rect x="153.78049" y="84.63415" width="3.90244" height="3.90244" fill="black"/>
<rect x="157.68293" y="84.63415" width="3.90244" height="3.90244" fill="black"/>
<rect x="161.58537" y="84.63415" width="3.90244" height="3.90244" fill="black"/>
<rect x="40.60976" y="88.53659" width="3.90244" height="3.90244" fill="black"/>
<rect x="44.51220" y="88.53659" width="3.90244" height="3.90244" fill="black"/>
<rect x="52.31707" y="88.53659" width="3.90244" height="3.90244" fill="black"/>
<rect x="60.12195" y="88.53659" width="3.90244" height="3.90244" fill="black"/>
<rect x="67.92683" y="88.53659" width="3.90244" height="3.90244" fill="black"/>
<rect x="71.82927" y="88.53659" width="3.90244" height="3.90244" fill="black"/>
<rect x="83.53659" y="88.53659" width="3.90244" height="3.90244" fill="black"/>
<rect x="87.43902" y="88.53659" width="3.90244" height="3.90244" fill="black"/>
<rect x="95.24390" y="88.53659" width="3.90244" height="3.90244" fill="black"/>
<rect x="103.04878" y="88.53659" width="3.90244" height="3.90244" fill="black"/>
<rect x="118.65854" y="88.53659" width="3.90244" height="3.90244" fill="black"/>
<rect x="126.46341" y="88.53659" width="3.90244" height="3.90244" fill="black"/>
<rect x="134.26829" y="88.53659" width="3.90244" height="3.90244" fill="black"/>
<rect x="138.17073" y="88.53659" width="3.90244" height="3.90244" fill="black"/>
<rect x="145.97561" y="88.53659" width="3.90244" height="3.90244" fill="black"/>
<rect x="149.87805" y="88.53659" width="3.90244" height="3.90244" fill="black"/>
<rect x="153.78049" y="88.53659" width="3.90244" height="3.90244" fill="black"/>
<rect x="157.68293" y="88.53659" width="3.90244" height="3.90244" fill="black"/>
<rect x="161.58537" y="88.53659" width="3.90244" height="3.90244" fill="black"/>
<rect x="48.41463" y="92.43902" width="3.90244" height="3.90244" fill="black"/>
<rect x="52.31707" y="92.43902" width="3.90244" height="3.90244" fill="black"/>
<rect x="64.02439" y="92.43902" width="3.90244" height="3.90244" fill="black"/>
<rect x="67.92683" y="92.43902" width="3.90244" height="3.90244" fill="black"/>
<rect x="71.82927" y="92.43902" width="3.90244" height="3.90244" fill="black"/>
<rect x="83.53659" y="92.43902" width="3.90244" height="3.90244" fill="black"/>
<rect x="87.43902" y="92.43902" width="3.90244" height="3.90244" fill="black"/>
<rect x="91.34146" y="92.43902" width="3.90244" height="3.90244" fill="black"/>
<rect x="95.24390" y="92.43902" width="3.90244" height="3.90244" fill="black"/>
<rect x="99.14634" y="92.43902" width="3.90244" height="3.90244" fill="black"/>
<rect x="103.04878" y="92.43902" width="3.90244" height="3.90244" fill="black"/>
<rect x="106.95122" y="92.43902" width="3.90244" height="3.90244" fill="black"/>
<rect x="110.85366" y="92.43902" width="3.90244" height="3.90244" fill="black"/>
<rect x="114.75610" y="92.43902" width="3.90244" height="3.90244" fill="black"/>
<rect x="118.65854" y="92.43902" width="3.90244" height="3.90244" fill="black"/>
<rect x="122.56098" y="92.43902" width="3.90244" height="3.90244" fill="black"/>
<rect x="134.26829" y="92.43902" width="3.90244" height="3.90244" fill="black"/>
<rect x="142.07317" y="92.43902" width="3.90244" height="3.90244" fill="black"/>
<rect x="145.97561" y="92.43902" width="3.90244" height="3.90244" fill="black"/>
<rect x="149.87805" y="92.43902" width="3.90244" height="3.90244" fill="black"/>
<rect x="157.68293" y="92.43902" width="3.90244" height="3.90244" fill="black"/>
<rect x="40.60976" y="96.34146" width="3.90244" height="3.90244" fill="black"/>
<rect x="44.51220" y="96.34146" width="3.90244" height="3.90244" fill="black"/>
<rect x="48.41463" y="96.34146" width="3.90244" height="3.90244" fill="black"/>
<rect x="56.21951" y="96.34146" width="3.90244" height="3.90244" fill="black"/>
<rect x="79.63415" y="96.34146" width="3.90244" height="3.90244" fill="black"/>
<rect x="83.53659" y="96.34146" width="3.90244" height="3.90244" fill="black"/>
<rect x="95.24390" y="96.34146" width="3.90244" height="3.90244" fill="black"/>
<rect x="103.04878" y="96.34146" width="3.90244" height="3.90244" fill="black"/>
<rect x="118.65854" y="96.34146" width="3.90244" height="3.90244" fill="black"/>
<rect x="138.17073" y="96.34146" width="3.90244" height="3.90244" fill="black"/>
<rect x="145.97561" y="96.34146" width="3.90244" height="3.90244" fill="black"/>
<rect x="153.78049" y="96.34146" width="3.90244" height="3.90244" fill="black"/>
<rect x="40.60976" y="100.24390" width="3.90244" height="3.90244" fill="black"/>
<rect x="44.51220" y="100.24390" width="3.90244" height="3.90244" fill="black"/>
<rect x="52.31707" y="100.24390" width="3.90244" height="3.90244" fill="black"/>
<rect x="60.12195" y="100.24390" width="3.90244" height="3.90244" fill="black"/>
<rect x="64.02439" y="100.24390" width="3.90244" height="3.90244" fill="black"/>
<rect x="67.92683" y="100.24390" width="3.90244" height="3.90244" fill="black"/>
<rect x="71.82927" y="100.24390" width="3.90244" height="3.90244" fill="black"/>
<rect x="79.63415" y="100.24390" width="3.90244" height="3.90244" fill="black"/>
<rect x="110.85366" y="100.24390" width="3.90244" height="3.90244" fill="black"/>
<rect x="118.65854" y="100.24390" width="3.90244" height="3.90244" fill="black"/>
<rect x="122.56098" y="100.24390" width="3.90244" height="3.90244" fill="black"/>
<rect x="126.46341" y="100.24390" width="3.90244" height="3.90244" fill="black"/>
<rect x="134.26829" y="100.24390" width="3.90244" height="3.90244" fill="black"/>
<rect x="138.17073" y="100.24390" width="3.90244" height="3.90244" fill="black"/>
<rect x="142.07317" y="100.24390" width="3.90244" height="3.90244" fill="black"/>
<rect x="153.78049" y="100.24390" width="3.90244" height="3.90244" fill="black"/>
<rect x="157.68293" y="100.24390" width="3.90244" height="3.90244" fill="black"/>
<rect x="161.58537" y="100.24390" width="3.90244" height="3.90244" fill="black"/>
<rect x="52.31707" y="104.14634" width="3.90244" height="3.90244" fill="black"/>
<rect x="60.12195" y="104.14634" width="3.90244" height="3.90244" fill="black"/>
<rect x="67.92683" y="104.14634" width="3.90244" height="3.90244" fill="black"/>
<rect x="71.82927" y="104.14634" width="3.90244" height="3.90244" fill="black"/>
<rect x="79.63415" y="104.14634" width="3.90244" height="3.90244" fill="black"/>
<rect x="83.53659" y="104.14634" width="3.90244" height="3.90244" fill="black"/>
<rect x="87.43902" y="104.14634" width="3.90244" height="3.90244" fill="black"/>
<rect x="91.34146" y="104.14634" width="3.90244" height="3.90244" fill="black"/>
<rect x="95.24390" y="104.14634" width="3.90244" height="3.90244" fill="black"/>
<rect x="99.14634" y="104.14634" width="3.90244" height="3.90244" fill="black"/>
<rect x="114.75610" y="104.14634" width="3.90244" height="3.90244" fill="black"/>
<rect x="126.46341" y="104.14634" width="3.90244" height="3.90244" fill="black"/>
<rect x="138.17073" y="104.14634" width="3.90244" height="3.90244" fill="black"/>
<rect x="142.07317" y="104.14634" width="3.90244" height="3.90244" fill="black"/>
<rect x="145.97561" y="104.14634" width="3.90244" height="3.90244" fill="black"/>
<rect x="149.87805" y="104.14634" width="3.90244" height="3.90244" fill="black"/>
<rect x="153.78049" y="104.14634" width="3.90244" height="3.90244" fill="black"/>
<rect x="157.68293" y="104.14634" width="3.90244" height="3.90244" fill="black"/>
<rect x="161.58537" y="104.14634" width="3.90244" height="3.90244" fill="black"/>
<rect x="48.41463" y="108.04878" width="3.90244" height="3.90244" fill="black"/>
<rect x="60.12195" y="108.04878" width="3.90244" height="3.90244" fill="black"/>
<rect x="64.02439" y="108.04878" width="3.90244" height="3.90244" fill="black"/>
<rect x="71.82927" y="108.04878" width="3.90244" height="3.90244" fill="black"/>
<rect x="75.73171" y="108.04878" width="3.90244" height="3.90244" fill="black"/>
<rect x="79.63415" y="108.04878" width="3.90244" height="3.90244" fill="black"/>
<rect x="95.24390" y="108.04878" width="3.90244" height="3.90244" fill="black"/>
<rect x="114.75610" y="108.04878" width="3.90244" height="3.90244" fill="black"/>
<rect x="118.65854" y="108.04878" width="3.90244" height="3.90244" fill="black"/>
<rect x="122.56098" y="108.04878" width="3.90244" height="3.90244" fill="black"/>
<rect x="126.46341" y="108.04878" width="3.90244" height="3.90244" fill="black"/>
<rect x="134.26829" y="108.04878" width="3.90244" height="3.90244" fill="black"/>
<rect x="138.17073" y="108.04878" width="3.90244" height="3.90244" fill="black"/>
<rect x="153.78049" y="108.04878" width="3.90244" height="3.90244" fill="black"/>
<rect x="157.68293" y="108.04878" width="3.90244" height="3.90244" fill="black"/>
<rect x="165.48780" y="108.04878" width="3.90244" height="3.90244" fill="black"/>
<rect x="40.60976" y="111.95122" width="3.90244" height="3.90244" fill="black"/>
<rect x="56.21951" y="111.95122" width="3.90244" height="3.90244" fill="black"/>
<rect x="75.73171" y="111.95122" width="3.90244" height="3.90244" fill="black"/>
<rect x="79.63415" y="111.95122" width="3.90244" height="3.90244" fill="black"/>
<rect x="83.53659" y="111.95122" width="3.90244" height="3.90244" fill="black"/>
<rect x="95.24390" y="111.95122" width="3.90244" height="3.90244" fill="black"/>
<rect x="103.04878" y="111.95122" width="3.90244" height="3.90244" fill="black"/>
<rect x="106.95122" y="111.95122" width="3.90244" height="3.90244" fill="black"/>
<rect x="118.65854" y="111.95122" width="3.90244" height="3.90244" fill="black"/>
<rect x="145.97561" y="111.95122" width="3.90244" height="3.90244" fill="black"/>
<rect x="157.68293" y="111.95122" width="3.90244" height="3.90244" fill="black"/>
<rect x="40.60976" y="115.85366" width="3.90244" height="3.90244" fill="black"/>
<rect x="44.51220" y="115.85366" width="3.90244" height="3.90244" fill="black"/>
<rect x="52.31707" y="115.85366" width="3.90244" height="3.90244" fill="black"/>
<rect x="60.12195" y="115.85366" width="3.90244" height="3.90244" fill="black"/>
<rect x="64.02439" y="115.85366" width="3.90244" height="3.90244" fill="black"/>
<rect x="75.73171" y="115.85366" width="3.90244" height="3.90244" fill="black"/>
<rect x="83.53659" y="115.85366" width="3.90244" height="3.90244" fill="black"/>
<rect x="87.43902" y="115.85366" width="3.90244" height="3.90244" fill="black"/>
<rect x="95.24390" y="115.85366" width="3.90244" height="3.90244" fill="black"/>
<rect x="99.14634" y="115.85366" width="3.90244" height="3.90244" fill="black"/>
<rect x="103.04878" y="115.85366" width="3.90244" height="3.90244" fill="black"/>
<rect x="114.75610" y="115.85366" width="3.90244" height="3.90244" fill="black"/>
<rect x="126.46341" y="115.85366" width="3.90244" height="3.90244" fill="black"/>
<rect x="130.36585" y="115.85366" width="3.90244" height="3.90244" fill="black"/>
<rect x="134.26829" y="115.85366" width="3.90244" height="3.90244" fill="black"/>
<rect x="138.17073" y="115.85366" width="3.90244" height="3.90244" fill="black"/>
<rect x="142.07317" y="115.85366" width="3.90244" height="3.90244" fill="black"/>
<rect x="145.97561" y="115.85366" width="3.90244" height="3.90244" fill="black"/>
<rect x="149.87805" y="115.85366" width="3.90244" height="3.90244" fill="black"/>
<rect x="153.78049" y="115.85366" width="3.90244" height="3.90244" fill="black"/>
<rect x="165.48780" y="115.85366" width="3.90244" height="3.90244" fill="black"/>
<rect x="44.51220" y="119.75610" width="3.90244" height="3.90244" fill="black"/>
<rect x="48.41463" y="119.75610" width="3.90244" height="3.90244" fill="black"/>
<rect x="60.12195" y="119.75610" width="3.90244" height="3.90244" fill="black"/>
<rect x="67.92683" y="119.75610" width="3.90244" height="3.90244" fill="black"/>
<rect x="83.53659" y="119.75610" width="3.90244" height="3.90244" fill="black"/>
<rect x="91.34146" y="119.75610" width="3.90244" height="3.90244" fill="black"/>
<rect x="95.24390" y="119.75610" width="3.90244" height="3.90244" fill="black"/>
<rect x="99.14634" y="119.75610" width="3.90244" height="3.90244" fill="black"/>
<rect x="106.95122" y="119.75610" width="3.90244" height="3.90244" fill="black"/>
<rect x="110.85366" y="119.75610" width="3.90244" height="3.90244" fill="black"/>
<rect x="118.65854" y="119.75610" width="3.90244" height="3.90244" fill="black"/>
<rect x="130.36585" y="119.75610" width="3.90244" height="3.90244" fill="black"/>
<rect x="134.26829" y="119.75610" width="3.90244" height="3.90244" fill="black"/>
<rect x="145.97561" y="119.75610" width="3.90244" height="3.90244" fill="black"/>
<rect x="153.78049" y="119.75610" width="3.90244" height="3.90244" fill="black"/>
<rect x="157.68293" y="119.75610" width="3.90244" height="3.90244" fill="black"/>
<rect x="40.60976" y="123.65854" width="3.90244" height="3.90244" fill="black"/>
<rect x="60.12195" y="123.65854" width="3.90244" height="3.90244" fill="black"/>
<rect x="64.02439" y="123.65854" width="3.90244" height="3.90244" fill="black"/>
<rect x="67.92683" y="123.65854" width="3.90244" height="3.90244" fill="black"/>
<rect x="75.73171" y="123.65854" width="3.90244" height="3.90244" fill="black"/>
<rect x="79.63415" y="123.65854" width="3.90244" height="3.90244" fill="black"/>
<rect x="87.43902" y="123.65854" width="3.90244" height="3.90244" fill="black"/>
<rect x="103.04878" y="123.65854" width="3.90244" height="3.90244" fill="black"/>
<rect x="122.56098" y="123.65854" width="3.90244" height="3.90244" fill="black"/>
<rect x="126.46341" y="123.65854" width="3.90244" height="3.90244" fill="black"/>
<rect x="134.26829" y="123.65854" width="3.90244" height="3.90244" fill="black"/>
<rect x="138.17073" y="123.65854" width="3.90244" height="3.90244" fill="black"/>
<rect x="157.68293" y="123.65854" width="3.90244" height="3.90244" fill="black"/>
<rect x="40.60976" y="127.56098" width="3.90244" height="3.90244" fill="black"/>
<rect x="48.41463" y="127.56098" width="3.90244" height="3.90244" fill="black"/>
<rect x="95.24390" y="127.56098" width="3.90244" height="3.90244" fill="black"/>
<rect x="103.04878" y="127.56098" width="3.90244" height="3.90244" fill="black"/>
<rect x="106.95122" y="127.56098" width="3.90244" height="3.90244" fill="black"/>
<rect x="110.85366" y="127.56098" width="3.90244" height="3.90244" fill="black"/>
<rect x="126.46341" y="127.56098" width="3.90244" height="3.90244" fill="black"/>
<rect x="138.17073" y="127.56098" width="3.90244" height="3.90244" fill="black"/>
<rect x="142.07317" y="127.56098" width="3.90244" height="3.90244" fill="black"/>
<rect x="145.97561" y="127.56098" width="3.90244" height="3.90244" fill="black"/>
<rect x="149.87805" y="127.56098" width="3.90244" height="3.90244" fill="black"/>
<rect x="153.78049" y="127.56098" width="3.90244" height="3.90244" fill="black"/>
<rect x="165.48780" y="127.56098" width="3.90244" height="3.90244" fill="black"/>
<rect x="40.60976" y="131.46341" width="3.90244" height="3.90244" fill="black"/>
<rect x="48.41463" y="131.46341" width="3.90244" height="3.90244" fill="black"/>
<rect x="56.21951" y="131.46341" width="3.90244" height="3.90244" fill="black"/>
<rect x="64.02439" y="131.46341" width="3.90244" height="3.90244" fill="black"/>
<rect x="75.73171" y="131.46341" width="3.90244" height="3.90244" fill="black"/>
<rect x="79.63415" y="131.46341" width="3.90244" height="3.90244" fill="black"/>
<rect x="87.43902" y="131.46341" width="3.90244" height="3.90244" fill="black"/>
<rect x="95.24390" y="131.46341" width="3.90244" height="3.90244" fill="black"/>
<rect x="99.14634" y="131.46341" width="3.90244" height="3.90244" fill="black"/>
<rect x="103.04878" y="131.46341" width="3.90244" height="3.90244" fill="black"/>
<rect x="106.95122" y="131.46341" width="3.90244" height="3.90244" fill="black"/>
<rect x="122.56098" y="131.46341" width="3.90244" height="3.90244" fill="black"/>
<rect x="138.17073" y="131.46341" width="3.90244" height="3.90244" fill="black"/>
<rect x="145.97561" y="131.46341" width="3.90244" height="3.90244" fill="black"/>
<rect x="153.78049" y="131.46341" width="3.90244" height="3.90244" fill="black"/>
<rect x="161.58537" y="131.46341" width="3.90244" height="3.90244" fill="black"/>
<rect x="40.60976" y="135.36585" width="3.90244" height="3.90244" fill="black"/>
<rect x="52.31707" y="135.36585" width="3.90244" height="3.90244" fill="black"/>
<rect x="56.21951" y="135.36585" width="3.90244" height="3.90244" fill="black"/>
<rect x="60.12195" y="135.36585" width="3.90244" height="3.90244" fill="black"/>
<rect x="71.82927" y="135.36585" width="3.90244" height="3.90244" fill="black"/>
<rect x="75.73171" y="135.36585" width="3.90244" height="3.90244" fill="black"/>
<rect x="79.63415" y="135.36585" width="3.90244" height="3.90244" fill="black"/>
<rect x="83.53659" y="135.36585" width="3.90244" height="3.90244" fill="black"/>
<rect x="95.24390" y="135.36585" width="3.90244" height="3.90244" fill="black"/>
<rect x="118.65854" y="135.36585" width="3.90244" height="3.90244" fill="black"/>
<rect x="126.46341" y="135.36585" width="3.90244" height="3.90244" fill="black"/>
<rect x="138.17073" y="135.36585" width="3.90244" height="3.90244" fill="black"/>
<rect x="145.97561" y="135.36585" width="3.90244" height="3.90244" fill="black"/>
<rect x="153.78049" y="135.36585" width="3.90244" height="3.90244" fill="black"/>
<rect x="157.68293" y="135.36585" width="3.90244" height="3.90244" fill="black"/>
<rect x="40.60976" y="139.26829" width="3.90244" height="3.90244" fill="black"/>
<rect x="44.51220" y="139.26829" width="3.90244" height="3.90244" fill="black"/>
<rect x="52.31707" y="139.26829" width="3.90244" height="3.90244" fill="black"/>
<rect x="56.21951" y="139.26829" width="3.90244" height="3.90244" fill="black"/>
<rect x="64.02439" y="139.26829" width="3.90244" height="3.90244" fill="black"/>
<rect x="67.92683" y="139.26829" width="3.90244" height="3.90244" fill="black"/>
<rect x="83.53659" y="139.26829" width="3.90244" height="3.90244" fill="black"/>
<rect x="87.43902" y="139.26829" width="3.90244" height="3.90244" fill="black"/>
<rect x="95.24390" y="139.26829" width="3.90244" height="3.90244" fill="black"/>
<rect x="99.14634" y="139.26829" width="3.90244" height="3.90244" fill="black"/>
<rect x="106.95122" y="139.26829" width="3.90244" height="3.90244" fill="black"/>
<rect x="114.75610" y="139.26829" width="3.90244" height="3.90244" fill="black"/>
<rect x="118.65854" y="139.26829" width="3.90244" height="3.90244" fill="black"/>
<rect x="122.56098" y="139.26829" width="3.90244" height="3.90244" fill="black"/>
<rect x="130.36585" y="139.26829" width="3.90244" height="3.90244" fill="black"/>
<rect x="134.26829" y="139.26829" width="3.90244" height="3.90244" fill="black"/>
<rect x="138.17073" y="139.26829" width="3.90244" height="3.90244" fill="black"/>
<rect x="142.07317" y="139.26829" width="3.90244" height="3.90244" fill="black"/>
<rect x="145.97561" y="139.26829" width="3.90244" height="3.90244" fill="black"/>
<rect x="149.87805" y="139.26829" width="3.90244" height="3.90244" fill="black"/>
<rect x="157.68293" y="139.26829" width="3.90244" height="3.90244" fill="black"/>
<rect x="165.48780" y="139.26829" width="3.90244" height="3.90244" fill="black"/>
<rect x="71.82927" y="143.17073" width="3.90244" height="3.90244" fill="black"/>
<rect x="91.34146" y="143.17073" width="3.90244" height="3.90244" fill="black"/>
<rect x="103.04878" y="143.17073" width="3.90244" height="3.90244" fill="black"/>
<rect x="118.65854" y="143.17073" width="3.90244" height="3.90244" fill="black"/>
<rect x="122.56098" y="143.17073" width="3.90244" height="3.90244" fill="black"/>
<rect x="126.46341" y="143.17073" width="3.90244" height="3.90244" fill="black"/>
<rect x="130.36585" y="143.17073" width="3.90244" height="3.90244" fill="black"/>
<rect x="134.26829" y="143.17073" width="3.90244" height="3.90244" fill="black"/>
<rect x="149.87805" y="143.17073" width="3.90244" height="3.90244" fill="black"/>
<rect x="161.58537" y="143.17073" width="3.90244" height="3.90244" fill="black"/>
<rect x="165.48780" y="143.17073" width="3.90244" height="3.90244" fill="black"/>
<rect x="40.60976" y="147.07317" width="3.90244" height="3.90244" fill="black"/>
<rect x="44.51220" y="147.07317" width="3.90244" height="3.90244" fill="black"/>
<rect x="48.41463" y="147.07317" width="3.90244" height="3.90244" fill="black"/>
<rect x="52.31707" y="147.07317" width="3.90244" height="3.90244" fill="black"/>
<rect x="56.21951" y="147.07317" width="3.90244" height="3.90244" fill="black"/>
<rect x="60.12195" y="147.07317" width="3.90244" height="3.90244" fill="black"/>
<rect x="64.02439" y="147.07317" width="3.90244" height="3.90244" fill="black"/>
<rect x="75.73171" y="147.07317" width="3.90244" height="3.90244" fill="black"/>
<rect x="83.53659" y="147.07317" width="3.90244" height="3.90244" fill="black"/>
<rect x="91.34146" y="147.07317" width="3.90244" height="3.90244" fill="black"/>
<rect x="95.24390" y="147.07317" width="3.90244" height="3.90244" fill="black"/>
<rect x="99.14634" y="147.07317" width="3.90244" height="3.90244" fill="black"/>
<rect x="103.04878" y="147.07317" width="3.90244" height="3.90244" fill="black"/>
<rect x="110.85366" y="147.07317" width="3.90244" height="3.90244" fill="black"/>
<rect x="118.65854" y="147.07317" width="3.90244" height="3.90244" fill="black"/>
<rect x="126.46341" y="147.07317" width="3.90244" height="3.90244" fill="black"/>
<rect x="134.26829" y="147.07317" width="3.90244" height="3.90244" fill="black"/>
<rect x="142.07317" y="147.07317" width="3.90244" height="3.90244" fill="black"/>
<rect x="149.87805" y="147.07317" width="3.90244" height="3.90244" fill="black"/>
<rect x="153.78049" y="147.07317" width="3.90244" height="3.90244" fill="black"/>
<rect x="40.60976" y="150.97561" width="3.90244" height="3.90244" fill="black"/>
<rect x="64.02439" y="150.97561" width="3.90244" height="3.90244" fill="black"/>
<rect x="75.73171" y="150.97561" width="3.90244" height="3.90244" fill="black"/>
<rect x="103.04878" y="150.97561" width="3.90244" height="3.90244" fill="black"/>
<rect x="114.75610" y="150.97561" width="3.90244" height="3.90244" fill="black"/>
<rect x="130.36585" y="150.97561" width="3.90244" height="3.90244" fill="black"/>
<rect x="134.26829" y="150.97561" width="3.90244" height="3.90244" fill="black"/>
<rect x="149.87805" y="150.97561" width="3.90244" height="3.90244" fill="black"/>
<rect x="153.78049" y="150.97561" width="3.90244" height="3.90244" fill="black"/>
<rect x="157.68293" y="150.97561" width="3.90244" height="3.90244" fill="black"/>
<rect x="40.60976" y="154.87805" width="3.90244" height="3.90244" fill="black"/>
<rect x="48.41463" y="154.87805" width="3.90244" height="3.90244" fill="black"/>
<rect x="52.31707" y="154.87805" width="3.90244" height="3.90244" fill="black"/>
<rect x="56.21951" y="154.87805" width="3.90244" height="3.90244" fill="black"/>
<rect x="64.02439" y="154.87805" width="3.90244" height="3.90244" fill="black"/>
<rect x="79.63415" y="154.87805" width="3.90244" height="3.90244" fill="black"/>
<rect x="83.53659" y="154.87805" width="3.90244" height="3.90244" fill="black"/>
<rect x="95.24390" y="154.87805" width="3.90244" height="3.90244" fill="black"/>
<rect x="110.85366" y="154.87805" width="3.90244" height="3.90244" fill="black"/>
<rect x="118.65854" y="154.87805" width="3.90244" height="3.90244" fill="black"/>
<rect x="122.56098" y="154.87805" width="3.90244" height="3.90244" fill="black"/>
<rect x="126.46341" y="154.87805" width="3.90244" height="3.90244" fill="black"/>
<rect x="134.26829" y="154.87805" width="3.90244" height="3.90244" fill="black"/>
<rect x="138.17073" y="154.87805" width="3.90244" height="3.90244" fill="black"/>
<rect x="142.07317" y="154.87805" width="3.90244" height="3.90244" fill="black"/>
<rect x="145.97561" y="154.87805" width="3.90244" height="3.90244" fill="black"/>
<rect x="149.87805" y="154.87805" width="3.90244" height="3.90244" fill="black"/>
<rect x="157.68293" y="154.87805" width="3.90244" height="3.90244" fill="black"/>
<rect x="161.58537" y="154.87805" width="3.90244" height="3.90244" fill="black"/>
<rect x="40.60976" y="158.78049" width="3.90244" height="3.90244" fill="black"/>
<rect x="48.41463" y="158.78049" width="3.90244" height="3.90244" fill="black"/>
<rect x="52.31707" y="158.78049" width="3.90244" height="3.90244" fill="black"/>
<rect x="56.21951" y="158.78049" width="3.90244" height="3.90244" fill="black"/>
<rect x="64.02439" y="158.78049" width="3.90244" height="3.90244" fill="black"/>
<rect x="75.73171" y="158.78049" width="3.90244" height="3.90244" fill="black"/>
<rect x="79.63415" y="158.78049" width="3.90244" height="3.90244" fill="black"/>
<rect x="95.24390" y="158.78049" width="3.90244" height="3.90244" fill="black"/>
<rect x="103.04878" y="158.78049" width="3.90244" height="3.90244" fill="black"/>
<rect x="118.65854" y="158.78049" width="3.90244" height="3.90244" fill="black"/>
<rect x="126.46341" y="158.78049" width="3.90244" height="3.90244" fill="black"/>
<rect x="134.26829" y="158.78049" width="3.90244" height="3.90244" fill="black"/>
<rect x="138.17073" y="158.78049" width="3.90244" height="3.90244" fill="black"/>
<rect x="145.97561" y="158.78049" width="3.90244" height="3.90244" fill="black"/>
<rect x="157.68293" y="158.78049" width="3.90244" height="3.90244" fill="black"/>
<rect x="161.58537" y="158.78049" width="3.90244" height="3.90244" fill="black"/>
<rect x="165.48780" y="158.78049" width="3.90244" height="3.90244" fill="black"/>
<rect x="40.60976" y="162.68293" width="3.90244" height="3.90244" fill="black"/>
<rect x="48.41463" y="162.68293" width="3.90244" height="3.90244" fill="black"/>
<rect x="52.31707" y="162.68293" width="3.90244" height="3.90244" fill="black"/>
<rect x="56.21951" y="162.68293" width="3.90244" height="3.90244" fill="black"/>
<rect x="64.02439" y="162.68293" width="3.90244" height="3.90244" fill="black"/>
<rect x="75.73171" y="162.68293" width="3.90244" height="3.90244" fill="black"/>
<rect x="95.24390" y="162.68293" width="3.90244" height="3.90244" fill="black"/>
<rect x="103.04878" y="162.68293" width="3.90244" height="3.90244" fill="black"/>
<rect x="110.85366" y="162.68293" width="3.90244" height="3.90244" fill="black"/>
<rect x="114.75610" y="162.68293" width="3.90244" height="3.90244" fill="black"/>
<rect x="118.65854" y="162.68293" width="3.90244" height="3.90244" fill="black"/>
<rect x="126.46341" y="162.68293" width="3.90244" height="3.90244" fill="black"/>
<rect x="134.26829" y="162.68293" width="3.90244" height="3.90244" fill="black"/>
<rect x="142.07317" y="162.68293" width="3.90244" height="3.90244" fill="black"/>
<rect x="149.87805" y="162.68293" width="3.90244" height="3.90244" fill="black"/>
<rect x="161.58537" y="162.68293" width="3.90244" height="3.90244" fill="black"/>
<rect x="165.48780" y="162.68293" width="3.90244" height="3.90244" fill="black"/>
<rect x="40.60976" y="166.58537" width="3.90244" height="3.90244" fill="black"/>
<rect x="64.02439" y="166.58537" width="3.90244" height="3.90244" fill="black"/>
<rect x="75.73171" y="166.58537" width="3.90244" height="3.90244" fill="black"/>
<rect x="87.43902" y="166.58537" width="3.90244" height="3.90244" fill="black"/>
<rect x="91.34146" y="166.58537" width="3.90244" height="3.90244" fill="black"/>
<rect x="95.24390" y="166.58537" width="3.90244" height="3.90244" fill="black"/>
<rect x="99.14634" y="166.58537" width="3.90244" height="3.90244" fill="black"/>
<rect x="103.04878" y="166.58537" width="3.90244" height="3.90244" fill="black"/>
<rect x="118.65854" y="166.58537" width="3.90244" height="3.90244" fill="black"/>
<rect x="134.26829" y="166.58537" width="3.90244" height="3.90244" fill="black"/>
<rect x="138.17073" y="166.58537" width="3.90244" height="3.90244" fill="black"/>
<rect x="142.07317" y="166.58537" width="3.90244" height="3.90244" fill="black"/>
<rect x="145.97561" y="166.58537" width="3.90244" height="3.90244" fill="black"/>
<rect x="153.78049" y="166.58537" width="3.90244" height="3.90244" fill="black"/>
<rect x="157.68293" y="166.58537" width="3.90244" height="3.90244" fill="black"/>
<rect x="40.60976" y="170.48780" width="3.90244" height="3.90244" fill="black"/>
<rect x="44.51220" y="170.48780" width="3.90244" height="3.90244" fill="black"/>
<rect x="48.41463" y="170.48780" width="3.90244" height="3.90244" fill="black"/>
<rect x="52.31707" y="170.48780" width="3.90244" height="3.90244" fill="black"/>
<rect x="56.21951" y="170.48780" width="3.90244" height="3.90244" fill="black"/>
<rect x="60.12195" y="170.48780" width="3.90244" height="3.90244" fill="black"/>
<rect x="64.02439" y="170.48780" width="3.90244" height="3.90244" fill="black"/>
<rect x="71.82927" y="170.48780" width="3.90244" height="3.90244" fill="black"/>
<rect x="75.73171" y="170.48780" width="3.90244" height="3.90244" fill="black"/>
<rect x="79.63415" y="170.48780" width="3.90244" height="3.90244" fill="black"/>
<rect x="95.24390" y="170.48780" width="3.90244" height="3.90244" fill="black"/>
<rect x="122.56098" y="170.48780" width="3.90244" height="3.90244" fill="black"/>
<rect x="126.46341" y="170.48780" width="3.90244" height="3.90244" fill="black"/>
<rect x="130.36585" y="170.48780" width="3.90244" height="3.90244" fill="black"/>
<rect x="134.26829" y="170.48780" width="3.90244" height="3.90244" fill="black"/>
<rect x="138.17073" y="170.48780" width="3.90244" height="3.90244" fill="black"/>
<rect x="142.07317" y="170.48780" width="3.90244" height="3.90244" fill="black"/>
<rect x="153.78049" y="170.48780" width="3.90244" height="3.90244" fill="black"/>
<rect x="157.68293" y="170.48780" width="3.90244" height="3.90244" fill="black"/>
<rect x="161.58537" y="170.48780" width="3.90244" height="3.90244" fill="black"/>
<line x1="25.0" y1="190.0" x2="185.0" y2="190.0" stroke="#e11d48" stroke-width="1.6"/>
<line x1="25.0" y1="187.0" x2="25.0" y2="193.0" stroke="#e11d48" stroke-width="1.2"/>
<line x1="185.0" y1="187.0" x2="185.0" y2="193.0" stroke="#e11d48" stroke-width="1.2"/>
<path d="M105 218.0 L92 200.0 L100 200.0 L100 192.0 L110 192.0 L110 200.0 L118 200.0 Z" fill="#e11d48"/>
<text x="105" y="228.0" text-anchor="middle" font-family="Arial" font-size="6.5" font-weight="bold">MIDDLE STUMP TOUCHES THE RED QR BOTTOM EDGE</text>
<text x="105" y="236.0" text-anchor="middle" font-family="Arial" font-size="4">Arrow points DOWN THE PITCH · App origin = this QR bottom edge at middle stump</text>
<text x="105" y="244.0" text-anchor="middle" font-family="Arial" font-size="3.2">Payload: KIRKET_METRIC_TARGET_V1_SIZE_160MM_STUMP_EDGE_BOTTOM</text>
<text x="105" y="250.0" text-anchor="middle" font-family="Arial" font-size="3.2">Outer QR square = exactly 160 mm · Keep readable; not blocked by stumps</text>
<line x1="25.0" y1="278" x2="185.0" y2="278" stroke="black" stroke-width="1"/>
<line x1="25.0" y1="274" x2="25.0" y2="282" stroke="black" stroke-width="1"/>
<line x1="185.0" y1="274" x2="185.0" y2="282" stroke="black" stroke-width="1"/>
<text x="105" y="289" text-anchor="middle" font-family="Arial" font-size="4.5">CONTROL RULER: THIS LINE MUST MEASURE EXACTLY 160 mm</text>
<text x="105" y="295" text-anchor="middle" font-family="Arial" font-size="3">After calibration, remove all 9 sheets</text>
</svg>