<svg xmlns="http://www.w3.org/2000/svg" width="210mm" height="297mm" viewBox="0 0 210 297">
<rect width="210" height="297" fill="white"/>

<text x="105" y="12" text-anchor="middle" font-family="Arial" font-size="6" font-weight="bold">KIRKET 3×3 A4 — SHEET C2 — FRONT-CENTER (QR)</text>
<text x="105" y="18" text-anchor="middle" font-family="Arial" font-size="3.2">Print at 100% / Actual Size · Temporary board: place → calibrate → remove</text>
<text x="105" y="23" text-anchor="middle" font-family="Arial" font-size="3">Overlap 15 mm · Stick sheets ON TOP at dashed attach lines · Crosses = exact corners</text>

<rect x="172.0" y="26.0" width="10" height="10" fill="#f3f4f6" stroke="#111" stroke-width="0.3"/>
<text x="177.0" y="32.2" text-anchor="middle" font-family="Arial" font-size="2.4" fill="#111">A1</text>
<rect x="183.5" y="26.0" width="10" height="10" fill="#f3f4f6" stroke="#111" stroke-width="0.3"/>
<text x="188.5" y="32.2" text-anchor="middle" font-family="Arial" font-size="2.4" fill="#111">A2</text>
<rect x="195.0" y="26.0" width="10" height="10" fill="#f3f4f6" stroke="#111" stroke-width="0.3"/>
<text x="200.0" y="32.2" text-anchor="middle" font-family="Arial" font-size="2.4" fill="#111">A3</text>
<rect x="172.0" y="37.5" width="10" height="10" fill="#f3f4f6" stroke="#111" stroke-width="0.3"/>
<text x="177.0" y="43.7" text-anchor="middle" font-family="Arial" font-size="2.4" fill="#111">B1</text>
<rect x="183.5" y="37.5" width="10" height="10" fill="#f3f4f6" stroke="#111" stroke-width="0.3"/>
<text x="188.5" y="43.7" text-anchor="middle" font-family="Arial" font-size="2.4" fill="#111">B2</text>
<rect x="195.0" y="37.5" width="10" height="10" fill="#f3f4f6" stroke="#111" stroke-width="0.3"/>
<text x="200.0" y="43.7" text-anchor="middle" font-family="Arial" font-size="2.4" fill="#111">B3</text>
<rect x="172.0" y="49.0" width="10" height="10" fill="#f3f4f6" stroke="#111" stroke-width="0.3"/>
<text x="177.0" y="55.2" text-anchor="middle" font-family="Arial" font-size="2.4" fill="#111">C1</text>
<rect x="183.5" y="49.0" width="10" height="10" fill="#e11d48" stroke="#111" stroke-width="0.3"/>
<text x="188.5" y="55.2" text-anchor="middle" font-family="Arial" font-size="2.4" fill="#fff">C2</text>
<rect x="195.0" y="49.0" width="10" height="10" fill="#f3f4f6" stroke="#111" stroke-width="0.3"/>
<text x="200.0" y="55.2" text-anchor="middle" font-family="Arial" font-size="2.4" fill="#111">C3</text>
<text x="189.25" y="64.5" text-anchor="middle" font-family="Arial" font-size="2.2">camera ↓</text>
<line x1="0.4" y1="15.0" x2="0.4" y2="282.0" stroke="#e11d48" stroke-width="0.8"/>
<line x1="-0.5" y1="23.0" x2="5.5" y2="23.0" stroke="#111" stroke-width="0.4"/><line x1="2.5" y1="20.0" x2="2.5" y2="26.0" stroke="#111" stroke-width="0.4"/>
<line x1="-0.5" y1="148.5" x2="5.5" y2="148.5" stroke="#111" stroke-width="0.4"/><line x1="2.5" y1="145.5" x2="2.5" y2="151.5" stroke="#111" stroke-width="0.4"/>
<line x1="-0.5" y1="274.0" x2="5.5" y2="274.0" stroke="#111" stroke-width="0.4"/><line x1="2.5" y1="271.0" x2="2.5" y2="277.0" stroke="#111" stroke-width="0.4"/>
<text x="5" y="148.5" font-family="Arial" font-size="3" fill="#e11d48" transform="rotate(90 5 148.5)">PLACE THIS EDGE ON C1 ATTACH LINE</text>
<line x1="209.6" y1="15.0" x2="209.6" y2="282.0" stroke="#e11d48" stroke-width="0.8"/>
<line x1="204.5" y1="23.0" x2="210.5" y2="23.0" stroke="#111" stroke-width="0.4"/><line x1="207.5" y1="20.0" x2="207.5" y2="26.0" stroke="#111" stroke-width="0.4"/>
<line x1="204.5" y1="148.5" x2="210.5" y2="148.5" stroke="#111" stroke-width="0.4"/><line x1="207.5" y1="145.5" x2="207.5" y2="151.5" stroke="#111" stroke-width="0.4"/>
<line x1="204.5" y1="274.0" x2="210.5" y2="274.0" stroke="#111" stroke-width="0.4"/><line x1="207.5" y1="271.0" x2="207.5" y2="277.0" stroke="#111" stroke-width="0.4"/>
<text x="205.0" y="148.5" font-family="Arial" font-size="3" fill="#e11d48" transform="rotate(-90 205.0 148.5)">PLACE THIS EDGE ON C3 ATTACH LINE</text>
<line x1="15.0" y1="0.4" x2="195.0" y2="0.4" stroke="#e11d48" stroke-width="0.8"/>
<line x1="20.0" y1="2.5" x2="26.0" y2="2.5" stroke="#111" stroke-width="0.4"/><line x1="23.0" y1="-0.5" x2="23.0" y2="5.5" stroke="#111" stroke-width="0.4"/>
<line x1="102.0" y1="2.5" x2="108.0" y2="2.5" stroke="#111" stroke-width="0.4"/><line x1="105.0" y1="-0.5" x2="105.0" y2="5.5" stroke="#111" stroke-width="0.4"/>
<line x1="184.0" y1="2.5" x2="190.0" y2="2.5" stroke="#111" stroke-width="0.4"/><line x1="187.0" y1="-0.5" x2="187.0" y2="5.5" stroke="#111" stroke-width="0.4"/>
<text x="105.0" y="8" text-anchor="middle" font-family="Arial" font-size="3" fill="#e11d48">PLACE THIS EDGE ON B2 ATTACH LINE</text>
<rect x="5.6060606060606055" y="27.999999999999996" width="198.78787878787878" height="198.78787878787878" fill="white" stroke="#999" stroke-width="0.25" stroke-dasharray="2 1.5"/>
<rect x="25.0" y="47.39393939393939" width="160.0" height="160.0" fill="white" stroke="black" stroke-width="0.5"/>
<rect x="25.00000" y="47.39394" width="4.84848" height="4.84848" fill="black"/>
<rect x="29.84848" y="47.39394" width="4.84848" height="4.84848" fill="black"/>
<rect x="34.69697" y="47.39394" width="4.84848" height="4.84848" fill="black"/>
<rect x="39.54545" y="47.39394" width="4.84848" height="4.84848" fill="black"/>
<rect x="44.39394" y="47.39394" width="4.84848" height="4.84848" fill="black"/>
<rect x="49.24242" y="47.39394" width="4.84848" height="4.84848" fill="black"/>
<rect x="54.09091" y="47.39394" width="4.84848" height="4.84848" fill="black"/>
<rect x="78.33333" y="47.39394" width="4.84848" height="4.84848" fill="black"/>
<rect x="83.18182" y="47.39394" width="4.84848" height="4.84848" fill="black"/>
<rect x="102.57576" y="47.39394" width="4.84848" height="4.84848" fill="black"/>
<rect x="117.12121" y="47.39394" width="4.84848" height="4.84848" fill="black"/>
<rect x="126.81818" y="47.39394" width="4.84848" height="4.84848" fill="black"/>
<rect x="136.51515" y="47.39394" width="4.84848" height="4.84848" fill="black"/>
<rect x="151.06061" y="47.39394" width="4.84848" height="4.84848" fill="black"/>
<rect x="155.90909" y="47.39394" width="4.84848" height="4.84848" fill="black"/>
<rect x="160.75758" y="47.39394" width="4.84848" height="4.84848" fill="black"/>
<rect x="165.60606" y="47.39394" width="4.84848" height="4.84848" fill="black"/>
<rect x="170.45455" y="47.39394" width="4.84848" height="4.84848" fill="black"/>
<rect x="175.30303" y="47.39394" width="4.84848" height="4.84848" fill="black"/>
<rect x="180.15152" y="47.39394" width="4.84848" height="4.84848" fill="black"/>
<rect x="25.00000" y="52.24242" width="4.84848" height="4.84848" fill="black"/>
<rect x="54.09091" y="52.24242" width="4.84848" height="4.84848" fill="black"/>
<rect x="63.78788" y="52.24242" width="4.84848" height="4.84848" fill="black"/>
<rect x="78.33333" y="52.24242" width="4.84848" height="4.84848" fill="black"/>
<rect x="88.03030" y="52.24242" width="4.84848" height="4.84848" fill="black"/>
<rect x="92.87879" y="52.24242" width="4.84848" height="4.84848" fill="black"/>
<rect x="102.57576" y="52.24242" width="4.84848" height="4.84848" fill="black"/>
<rect x="107.42424" y="52.24242" width="4.84848" height="4.84848" fill="black"/>
<rect x="121.96970" y="52.24242" width="4.84848" height="4.84848" fill="black"/>
<rect x="131.66667" y="52.24242" width="4.84848" height="4.84848" fill="black"/>
<rect x="151.06061" y="52.24242" width="4.84848" height="4.84848" fill="black"/>
<rect x="180.15152" y="52.24242" width="4.84848" height="4.84848" fill="black"/>
<rect x="25.00000" y="57.09091" width="4.84848" height="4.84848" fill="black"/>
<rect x="34.69697" y="57.09091" width="4.84848" height="4.84848" fill="black"/>
<rect x="39.54545" y="57.09091" width="4.84848" height="4.84848" fill="black"/>
<rect x="44.39394" y="57.09091" width="4.84848" height="4.84848" fill="black"/>
<rect x="54.09091" y="57.09091" width="4.84848" height="4.84848" fill="black"/>
<rect x="63.78788" y="57.09091" width="4.84848" height="4.84848" fill="black"/>
<rect x="68.63636" y="57.09091" width="4.84848" height="4.84848" fill="black"/>
<rect x="78.33333" y="57.09091" width="4.84848" height="4.84848" fill="black"/>
<rect x="83.18182" y="57.09091" width="4.84848" height="4.84848" fill="black"/>
<rect x="88.03030" y="57.09091" width="4.84848" height="4.84848" fill="black"/>
<rect x="102.57576" y="57.09091" width="4.84848" height="4.84848" fill="black"/>
<rect x="107.42424" y="57.09091" width="4.84848" height="4.84848" fill="black"/>
<rect x="112.27273" y="57.09091" width="4.84848" height="4.84848" fill="black"/>
<rect x="117.12121" y="57.09091" width="4.84848" height="4.84848" fill="black"/>
<rect x="121.96970" y="57.09091" width="4.84848" height="4.84848" fill="black"/>
<rect x="126.81818" y="57.09091" width="4.84848" height="4.84848" fill="black"/>
<rect x="131.66667" y="57.09091" width="4.84848" height="4.84848" fill="black"/>
<rect x="136.51515" y="57.09091" width="4.84848" height="4.84848" fill="black"/>
<rect x="141.36364" y="57.09091" width="4.84848" height="4.84848" fill="black"/>
<rect x="151.06061" y="57.09091" width="4.84848" height="4.84848" fill="black"/>
<rect x="160.75758" y="57.09091" width="4.84848" height="4.84848" fill="black"/>
<rect x="165.60606" y="57.09091" width="4.84848" height="4.84848" fill="black"/>
<rect x="170.45455" y="57.09091" width="4.84848" height="4.84848" fill="black"/>
<rect x="180.15152" y="57.09091" width="4.84848" height="4.84848" fill="black"/>
<rect x="25.00000" y="61.93939" width="4.84848" height="4.84848" fill="black"/>
<rect x="34.69697" y="61.93939" width="4.84848" height="4.84848" fill="black"/>
<rect x="39.54545" y="61.93939" width="4.84848" height="4.84848" fill="black"/>
<rect x="44.39394" y="61.93939" width="4.84848" height="4.84848" fill="black"/>
<rect x="54.09091" y="61.93939" width="4.84848" height="4.84848" fill="black"/>
<rect x="63.78788" y="61.93939" width="4.84848" height="4.84848" fill="black"/>
<rect x="68.63636" y="61.93939" width="4.84848" height="4.84848" fill="black"/>
<rect x="73.48485" y="61.93939" width="4.84848" height="4.84848" fill="black"/>
<rect x="97.72727" y="61.93939" width="4.84848" height="4.84848" fill="black"/>
<rect x="117.12121" y="61.93939" width="4.84848" height="4.84848" fill="black"/>
<rect x="121.96970" y="61.93939" width="4.84848" height="4.84848" fill="black"/>
<rect x="141.36364" y="61.93939" width="4.84848" height="4.84848" fill="black"/>
<rect x="151.06061" y="61.93939" width="4.84848" height="4.84848" fill="black"/>
<rect x="160.75758" y="61.93939" width="4.84848" height="4.84848" fill="black"/>
<rect x="165.60606" y="61.93939" width="4.84848" height="4.84848" fill="black"/>
<rect x="170.45455" y="61.93939" width="4.84848" height="4.84848" fill="black"/>
<rect x="180.15152" y="61.93939" width="4.84848" height="4.84848" fill="black"/>
<rect x="25.00000" y="66.78788" width="4.84848" height="4.84848" fill="black"/>
<rect x="34.69697" y="66.78788" width="4.84848" height="4.84848" fill="black"/>
<rect x="39.54545" y="66.78788" width="4.84848" height="4.84848" fill="black"/>
<rect x="44.39394" y="66.78788" width="4.84848" height="4.84848" fill="black"/>
<rect x="54.09091" y="66.78788" width="4.84848" height="4.84848" fill="black"/>
<rect x="73.48485" y="66.78788" width="4.84848" height="4.84848" fill="black"/>
<rect x="83.18182" y="66.78788" width="4.84848" height="4.84848" fill="black"/>
<rect x="97.72727" y="66.78788" width="4.84848" height="4.84848" fill="black"/>
<rect x="112.27273" y="66.78788" width="4.84848" height="4.84848" fill="black"/>
<rect x="131.66667" y="66.78788" width="4.84848" height="4.84848" fill="black"/>
<rect x="151.06061" y="66.78788" width="4.84848" height="4.84848" fill="black"/>
<rect x="160.75758" y="66.78788" width="4.84848" height="4.84848" fill="black"/>
<rect x="165.60606" y="66.78788" width="4.84848" height="4.84848" fill="black"/>
<rect x="170.45455" y="66.78788" width="4.84848" height="4.84848" fill="black"/>
<rect x="180.15152" y="66.78788" width="4.84848" height="4.84848" fill="black"/>
<rect x="25.00000" y="71.63636" width="4.84848" height="4.84848" fill="black"/>
<rect x="54.09091" y="71.63636" width="4.84848" height="4.84848" fill="black"/>
<rect x="78.33333" y="71.63636" width="4.84848" height="4.84848" fill="black"/>
<rect x="83.18182" y="71.63636" width="4.84848" height="4.84848" fill="black"/>
<rect x="102.57576" y="71.63636" width="4.84848" height="4.84848" fill="black"/>
<rect x="107.42424" y="71.63636" width="4.84848" height="4.84848" fill="black"/>
<rect x="121.96970" y="71.63636" width="4.84848" height="4.84848" fill="black"/>
<rect x="126.81818" y="71.63636" width="4.84848" height="4.84848" fill="black"/>
<rect x="131.66667" y="71.63636" width="4.84848" height="4.84848" fill="black"/>
<rect x="151.06061" y="71.63636" width="4.84848" height="4.84848" fill="black"/>
<rect x="180.15152" y="71.63636" width="4.84848" height="4.84848" fill="black"/>
<rect x="25.00000" y="76.48485" width="4.84848" height="4.84848" fill="black"/>
<rect x="29.84848" y="76.48485" width="4.84848" height="4.84848" fill="black"/>
<rect x="34.69697" y="76.48485" width="4.84848" height="4.84848" fill="black"/>
<rect x="39.54545" y="76.48485" width="4.84848" height="4.84848" fill="black"/>
<rect x="44.39394" y="76.48485" width="4.84848" height="4.84848" fill="black"/>
<rect x="49.24242" y="76.48485" width="4.84848" height="4.84848" fill="black"/>
<rect x="54.09091" y="76.48485" width="4.84848" height="4.84848" fill="black"/>
<rect x="63.78788" y="76.48485" width="4.84848" height="4.84848" fill="black"/>
<rect x="73.48485" y="76.48485" width="4.84848" height="4.84848" fill="black"/>
<rect x="83.18182" y="76.48485" width="4.84848" height="4.84848" fill="black"/>
<rect x="92.87879" y="76.48485" width="4.84848" height="4.84848" fill="black"/>
<rect x="102.57576" y="76.48485" width="4.84848" height="4.84848" fill="black"/>
<rect x="112.27273" y="76.48485" width="4.84848" height="4.84848" fill="black"/>
<rect x="121.96970" y="76.48485" width="4.84848" height="4.84848" fill="black"/>
<rect x="131.66667" y="76.48485" width="4.84848" height="4.84848" fill="black"/>
<rect x="141.36364" y="76.48485" width="4.84848" height="4.84848" fill="black"/>
<rect x="151.06061" y="76.48485" width="4.84848" height="4.84848" fill="black"/>
<rect x="155.90909" y="76.48485" width="4.84848" height="4.84848" fill="black"/>
<rect x="160.75758" y="76.48485" width="4.84848" height="4.84848" fill="black"/>
<rect x="165.60606" y="76.48485" width="4.84848" height="4.84848" fill="black"/>
<rect x="170.45455" y="76.48485" width="4.84848" height="4.84848" fill="black"/>
<rect x="175.30303" y="76.48485" width="4.84848" height="4.84848" fill="black"/>
<rect x="180.15152" y="76.48485" width="4.84848" height="4.84848" fill="black"/>
<rect x="63.78788" y="81.33333" width="4.84848" height="4.84848" fill="black"/>
<rect x="68.63636" y="81.33333" width="4.84848" height="4.84848" fill="black"/>
<rect x="83.18182" y="81.33333" width="4.84848" height="4.84848" fill="black"/>
<rect x="92.87879" y="81.33333" width="4.84848" height="4.84848" fill="black"/>
<rect x="112.27273" y="81.33333" width="4.84848" height="4.84848" fill="black"/>
<rect x="121.96970" y="81.33333" width="4.84848" height="4.84848" fill="black"/>
<rect x="131.66667" y="81.33333" width="4.84848" height="4.84848" fill="black"/>
<rect x="136.51515" y="81.33333" width="4.84848" height="4.84848" fill="black"/>
<rect x="25.00000" y="86.18182" width="4.84848" height="4.84848" fill="black"/>
<rect x="54.09091" y="86.18182" width="4.84848" height="4.84848" fill="black"/>
<rect x="63.78788" y="86.18182" width="4.84848" height="4.84848" fill="black"/>
<rect x="83.18182" y="86.18182" width="4.84848" height="4.84848" fill="black"/>
<rect x="88.03030" y="86.18182" width="4.84848" height="4.84848" fill="black"/>
<rect x="97.72727" y="86.18182" width="4.84848" height="4.84848" fill="black"/>
<rect x="102.57576" y="86.18182" width="4.84848" height="4.84848" fill="black"/>
<rect x="107.42424" y="86.18182" width="4.84848" height="4.84848" fill="black"/>
<rect x="112.27273" y="86.18182" width="4.84848" height="4.84848" fill="black"/>
<rect x="117.12121" y="86.18182" width="4.84848" height="4.84848" fill="black"/>
<rect x="121.96970" y="86.18182" width="4.84848" height="4.84848" fill="black"/>
<rect x="126.81818" y="86.18182" width="4.84848" height="4.84848" fill="black"/>
<rect x="131.66667" y="86.18182" width="4.84848" height="4.84848" fill="black"/>
<rect x="141.36364" y="86.18182" width="4.84848" height="4.84848" fill="black"/>
<rect x="146.21212" y="86.18182" width="4.84848" height="4.84848" fill="black"/>
<rect x="151.06061" y="86.18182" width="4.84848" height="4.84848" fill="black"/>
<rect x="165.60606" y="86.18182" width="4.84848" height="4.84848" fill="black"/>
<rect x="170.45455" y="86.18182" width="4.84848" height="4.84848" fill="black"/>
<rect x="175.30303" y="86.18182" width="4.84848" height="4.84848" fill="black"/>
<rect x="25.00000" y="91.03030" width="4.84848" height="4.84848" fill="black"/>
<rect x="39.54545" y="91.03030" width="4.84848" height="4.84848" fill="black"/>
<rect x="44.39394" y="91.03030" width="4.84848" height="4.84848" fill="black"/>
<rect x="58.93939" y="91.03030" width="4.84848" height="4.84848" fill="black"/>
<rect x="78.33333" y="91.03030" width="4.84848" height="4.84848" fill="black"/>
<rect x="126.81818" y="91.03030" width="4.84848" height="4.84848" fill="black"/>
<rect x="151.06061" y="91.03030" width="4.84848" height="4.84848" fill="black"/>
<rect x="155.90909" y="91.03030" width="4.84848" height="4.84848" fill="black"/>
<rect x="160.75758" y="91.03030" width="4.84848" height="4.84848" fill="black"/>
<rect x="180.15152" y="91.03030" width="4.84848" height="4.84848" fill="black"/>
<rect x="34.69697" y="95.87879" width="4.84848" height="4.84848" fill="black"/>
<rect x="39.54545" y="95.87879" width="4.84848" height="4.84848" fill="black"/>
<rect x="44.39394" y="95.87879" width="4.84848" height="4.84848" fill="black"/>
<rect x="49.24242" y="95.87879" width="4.84848" height="4.84848" fill="black"/>
<rect x="54.09091" y="95.87879" width="4.84848" height="4.84848" fill="black"/>
<rect x="63.78788" y="95.87879" width="4.84848" height="4.84848" fill="black"/>
<rect x="78.33333" y="95.87879" width="4.84848" height="4.84848" fill="black"/>
<rect x="83.18182" y="95.87879" width="4.84848" height="4.84848" fill="black"/>
<rect x="97.72727" y="95.87879" width="4.84848" height="4.84848" fill="black"/>
<rect x="102.57576" y="95.87879" width="4.84848" height="4.84848" fill="black"/>
<rect x="112.27273" y="95.87879" width="4.84848" height="4.84848" fill="black"/>
<rect x="131.66667" y="95.87879" width="4.84848" height="4.84848" fill="black"/>
<rect x="146.21212" y="95.87879" width="4.84848" height="4.84848" fill="black"/>
<rect x="151.06061" y="95.87879" width="4.84848" height="4.84848" fill="black"/>
<rect x="160.75758" y="95.87879" width="4.84848" height="4.84848" fill="black"/>
<rect x="165.60606" y="95.87879" width="4.84848" height="4.84848" fill="black"/>
<rect x="170.45455" y="95.87879" width="4.84848" height="4.84848" fill="black"/>
<rect x="175.30303" y="95.87879" width="4.84848" height="4.84848" fill="black"/>
<rect x="25.00000" y="100.72727" width="4.84848" height="4.84848" fill="black"/>
<rect x="29.84848" y="100.72727" width="4.84848" height="4.84848" fill="black"/>
<rect x="39.54545" y="100.72727" width="4.84848" height="4.84848" fill="black"/>
<rect x="49.24242" y="100.72727" width="4.84848" height="4.84848" fill="black"/>
<rect x="58.93939" y="100.72727" width="4.84848" height="4.84848" fill="black"/>
<rect x="63.78788" y="100.72727" width="4.84848" height="4.84848" fill="black"/>
<rect x="78.33333" y="100.72727" width="4.84848" height="4.84848" fill="black"/>
<rect x="83.18182" y="100.72727" width="4.84848" height="4.84848" fill="black"/>
<rect x="92.87879" y="100.72727" width="4.84848" height="4.84848" fill="black"/>
<rect x="102.57576" y="100.72727" width="4.84848" height="4.84848" fill="black"/>
<rect x="121.96970" y="100.72727" width="4.84848" height="4.84848" fill="black"/>
<rect x="131.66667" y="100.72727" width="4.84848" height="4.84848" fill="black"/>
<rect x="141.36364" y="100.72727" width="4.84848" height="4.84848" fill="black"/>
<rect x="146.21212" y="100.72727" width="4.84848" height="4.84848" fill="black"/>
<rect x="155.90909" y="100.72727" width="4.84848" height="4.84848" fill="black"/>
<rect x="160.75758" y="100.72727" width="4.84848" height="4.84848" fill="black"/>
<rect x="165.60606" y="100.72727" width="4.84848" height="4.84848" fill="black"/>
<rect x="170.45455" y="100.72727" width="4.84848" height="4.84848" fill="black"/>
<rect x="175.30303" y="100.72727" width="4.84848" height="4.84848" fill="black"/>
<rect x="34.69697" y="105.57576" width="4.84848" height="4.84848" fill="black"/>
<rect x="39.54545" y="105.57576" width="4.84848" height="4.84848" fill="black"/>
<rect x="54.09091" y="105.57576" width="4.84848" height="4.84848" fill="black"/>
<rect x="58.93939" y="105.57576" width="4.84848" height="4.84848" fill="black"/>
<rect x="63.78788" y="105.57576" width="4.84848" height="4.84848" fill="black"/>
<rect x="78.33333" y="105.57576" width="4.84848" height="4.84848" fill="black"/>
<rect x="83.18182" y="105.57576" width="4.84848" height="4.84848" fill="black"/>
<rect x="88.03030" y="105.57576" width="4.84848" height="4.84848" fill="black"/>
<rect x="92.87879" y="105.57576" width="4.84848" height="4.84848" fill="black"/>
<rect x="97.72727" y="105.57576" width="4.84848" height="4.84848" fill="black"/>
<rect x="102.57576" y="105.57576" width="4.84848" height="4.84848" fill="black"/>
<rect x="107.42424" y="105.57576" width="4.84848" height="4.84848" fill="black"/>
<rect x="112.27273" y="105.57576" width="4.84848" height="4.84848" fill="black"/>
<rect x="117.12121" y="105.57576" width="4.84848" height="4.84848" fill="black"/>
<rect x="121.96970" y="105.57576" width="4.84848" height="4.84848" fill="black"/>
<rect x="126.81818" y="105.57576" width="4.84848" height="4.84848" fill="black"/>
<rect x="141.36364" y="105.57576" width="4.84848" height="4.84848" fill="black"/>
<rect x="151.06061" y="105.57576" width="4.84848" height="4.84848" fill="black"/>
<rect x="155.90909" y="105.57576" width="4.84848" height="4.84848" fill="black"/>
<rect x="160.75758" y="105.57576" width="4.84848" height="4.84848" fill="black"/>
<rect x="170.45455" y="105.57576" width="4.84848" height="4.84848" fill="black"/>
<rect x="25.00000" y="110.42424" width="4.84848" height="4.84848" fill="black"/>
<rect x="29.84848" y="110.42424" width="4.84848" height="4.84848" fill="black"/>
<rect x="34.69697" y="110.42424" width="4.84848" height="4.84848" fill="black"/>
<rect x="44.39394" y="110.42424" width="4.84848" height="4.84848" fill="black"/>
<rect x="73.48485" y="110.42424" width="4.84848" height="4.84848" fill="black"/>
<rect x="78.33333" y="110.42424" width="4.84848" height="4.84848" fill="black"/>
<rect x="92.87879" y="110.42424" width="4.84848" height="4.84848" fill="black"/>
<rect x="102.57576" y="110.42424" width="4.84848" height="4.84848" fill="black"/>
<rect x="121.96970" y="110.42424" width="4.84848" height="4.84848" fill="black"/>
<rect x="146.21212" y="110.42424" width="4.84848" height="4.84848" fill="black"/>
<rect x="155.90909" y="110.42424" width="4.84848" height="4.84848" fill="black"/>
<rect x="165.60606" y="110.42424" width="4.84848" height="4.84848" fill="black"/>
<rect x="25.00000" y="115.27273" width="4.84848" height="4.84848" fill="black"/>
<rect x="29.84848" y="115.27273" width="4.84848" height="4.84848" fill="black"/>
<rect x="39.54545" y="115.27273" width="4.84848" height="4.84848" fill="black"/>
<rect x="49.24242" y="115.27273" width="4.84848" height="4.84848" fill="black"/>
<rect x="54.09091" y="115.27273" width="4.84848" height="4.84848" fill="black"/>
<rect x="58.93939" y="115.27273" width="4.84848" height="4.84848" fill="black"/>
<rect x="63.78788" y="115.27273" width="4.84848" height="4.84848" fill="black"/>
<rect x="73.48485" y="115.27273" width="4.84848" height="4.84848" fill="black"/>
<rect x="112.27273" y="115.27273" width="4.84848" height="4.84848" fill="black"/>
<rect x="121.96970" y="115.27273" width="4.84848" height="4.84848" fill="black"/>
<rect x="126.81818" y="115.27273" width="4.84848" height="4.84848" fill="black"/>
<rect x="131.66667" y="115.27273" width="4.84848" height="4.84848" fill="black"/>
<rect x="141.36364" y="115.27273" width="4.84848" height="4.84848" fill="black"/>
<rect x="146.21212" y="115.27273" width="4.84848" height="4.84848" fill="black"/>
<rect x="151.06061" y="115.27273" width="4.84848" height="4.84848" fill="black"/>
<rect x="165.60606" y="115.27273" width="4.84848" height="4.84848" fill="black"/>
<rect x="170.45455" y="115.27273" width="4.84848" height="4.84848" fill="black"/>
<rect x="175.30303" y="115.27273" width="4.84848" height="4.84848" fill="black"/>
<rect x="39.54545" y="120.12121" width="4.84848" height="4.84848" fill="black"/>
<rect x="49.24242" y="120.12121" width="4.84848" height="4.84848" fill="black"/>
<rect x="58.93939" y="120.12121" width="4.84848" height="4.84848" fill="black"/>
<rect x="63.78788" y="120.12121" width="4.84848" height="4.84848" fill="black"/>
<rect x="73.48485" y="120.12121" width="4.84848" height="4.84848" fill="black"/>
<rect x="78.33333" y="120.12121" width="4.84848" height="4.84848" fill="black"/>
<rect x="83.18182" y="120.12121" width="4.84848" height="4.84848" fill="black"/>
<rect x="88.03030" y="120.12121" width="4.84848" height="4.84848" fill="black"/>
<rect x="92.87879" y="120.12121" width="4.84848" height="4.84848" fill="black"/>
<rect x="97.72727" y="120.12121" width="4.84848" height="4.84848" fill="black"/>
<rect x="117.12121" y="120.12121" width="4.84848" height="4.84848" fill="black"/>
<rect x="131.66667" y="120.12121" width="4.84848" height="4.84848" fill="black"/>
<rect x="146.21212" y="120.12121" width="4.84848" height="4.84848" fill="black"/>
<rect x="151.06061" y="120.12121" width="4.84848" height="4.84848" fill="black"/>
<rect x="155.90909" y="120.12121" width="4.84848" height="4.84848" fill="black"/>
<rect x="160.75758" y="120.12121" width="4.84848" height="4.84848" fill="black"/>
<rect x="165.60606" y="120.12121" width="4.84848" height="4.84848" fill="black"/>
<rect x="170.45455" y="120.12121" width="4.84848" height="4.84848" fill="black"/>
<rect x="175.30303" y="120.12121" width="4.84848" height="4.84848" fill="black"/>
<rect x="34.69697" y="124.96970" width="4.84848" height="4.84848" fill="black"/>
<rect x="49.24242" y="124.96970" width="4.84848" height="4.84848" fill="black"/>
<rect x="54.09091" y="124.96970" width="4.84848" height="4.84848" fill="black"/>
<rect x="63.78788" y="124.96970" width="4.84848" height="4.84848" fill="black"/>
<rect x="68.63636" y="124.96970" width="4.84848" height="4.84848" fill="black"/>
<rect x="73.48485" y="124.96970" width="4.84848" height="4.84848" fill="black"/>
<rect x="92.87879" y="124.96970" width="4.84848" height="4.84848" fill="black"/>
<rect x="117.12121" y="124.96970" width="4.84848" height="4.84848" fill="black"/>
<rect x="121.96970" y="124.96970" width="4.84848" height="4.84848" fill="black"/>
<rect x="126.81818" y="124.96970" width="4.84848" height="4.84848" fill="black"/>
<rect x="131.66667" y="124.96970" width="4.84848" height="4.84848" fill="black"/>
<rect x="141.36364" y="124.96970" width="4.84848" height="4.84848" fill="black"/>
<rect x="146.21212" y="124.96970" width="4.84848" height="4.84848" fill="black"/>
<rect x="165.60606" y="124.96970" width="4.84848" height="4.84848" fill="black"/>
<rect x="170.45455" y="124.96970" width="4.84848" height="4.84848" fill="black"/>
<rect x="180.15152" y="124.96970" width="4.84848" height="4.84848" fill="black"/>
<rect x="25.00000" y="129.81818" width="4.84848" height="4.84848" fill="black"/>
<rect x="44.39394" y="129.81818" width="4.84848" height="4.84848" fill="black"/>
<rect x="68.63636" y="129.81818" width="4.84848" height="4.84848" fill="black"/>
<rect x="73.48485" y="129.81818" width="4.84848" height="4.84848" fill="black"/>
<rect x="78.33333" y="129.81818" width="4.84848" height="4.84848" fill="black"/>
<rect x="92.87879" y="129.81818" width="4.84848" height="4.84848" fill="black"/>
<rect x="102.57576" y="129.81818" width="4.84848" height="4.84848" fill="black"/>
<rect x="107.42424" y="129.81818" width="4.84848" height="4.84848" fill="black"/>
<rect x="121.96970" y="129.81818" width="4.84848" height="4.84848" fill="black"/>
<rect x="155.90909" y="129.81818" width="4.84848" height="4.84848" fill="black"/>
<rect x="170.45455" y="129.81818" width="4.84848" height="4.84848" fill="black"/>
<rect x="25.00000" y="134.66667" width="4.84848" height="4.84848" fill="black"/>
<rect x="29.84848" y="134.66667" width="4.84848" height="4.84848" fill="black"/>
<rect x="39.54545" y="134.66667" width="4.84848" height="4.84848" fill="black"/>
<rect x="49.24242" y="134.66667" width="4.84848" height="4.84848" fill="black"/>
<rect x="54.09091" y="134.66667" width="4.84848" height="4.84848" fill="black"/>
<rect x="68.63636" y="134.66667" width="4.84848" height="4.84848" fill="black"/>
<rect x="78.33333" y="134.66667" width="4.84848" height="4.84848" fill="black"/>
<rect x="83.18182" y="134.66667" width="4.84848" height="4.84848" fill="black"/>
<rect x="92.87879" y="134.66667" width="4.84848" height="4.84848" fill="black"/>
<rect x="97.72727" y="134.66667" width="4.84848" height="4.84848" fill="black"/>
<rect x="102.57576" y="134.66667" width="4.84848" height="4.84848" fill="black"/>
<rect x="117.12121" y="134.66667" width="4.84848" height="4.84848" fill="black"/>
<rect x="131.66667" y="134.66667" width="4.84848" height="4.84848" fill="black"/>
<rect x="136.51515" y="134.66667" width="4.84848" height="4.84848" fill="black"/>
<rect x="141.36364" y="134.66667" width="4.84848" height="4.84848" fill="black"/>
<rect x="146.21212" y="134.66667" width="4.84848" height="4.84848" fill="black"/>
<rect x="151.06061" y="134.66667" width="4.84848" height="4.84848" fill="black"/>
<rect x="155.90909" y="134.66667" width="4.84848" height="4.84848" fill="black"/>
<rect x="160.75758" y="134.66667" width="4.84848" height="4.84848" fill="black"/>
<rect x="165.60606" y="134.66667" width="4.84848" height="4.84848" fill="black"/>
<rect x="180.15152" y="134.66667" width="4.84848" height="4.84848" fill="black"/>
<rect x="29.84848" y="139.51515" width="4.84848" height="4.84848" fill="black"/>
<rect x="34.69697" y="139.51515" width="4.84848" height="4.84848" fill="black"/>
<rect x="49.24242" y="139.51515" width="4.84848" height="4.84848" fill="black"/>
<rect x="58.93939" y="139.51515" width="4.84848" height="4.84848" fill="black"/>
<rect x="78.33333" y="139.51515" width="4.84848" height="4.84848" fill="black"/>
<rect x="88.03030" y="139.51515" width="4.84848" height="4.84848" fill="black"/>
<rect x="92.87879" y="139.51515" width="4.84848" height="4.84848" fill="black"/>
<rect x="97.72727" y="139.51515" width="4.84848" height="4.84848" fill="black"/>
<rect x="107.42424" y="139.51515" width="4.84848" height="4.84848" fill="black"/>
<rect x="112.27273" y="139.51515" width="4.84848" height="4.84848" fill="black"/>
<rect x="121.96970" y="139.51515" width="4.84848" height="4.84848" fill="black"/>
<rect x="136.51515" y="139.51515" width="4.84848" height="4.84848" fill="black"/>
<rect x="141.36364" y="139.51515" width="4.84848" height="4.84848" fill="black"/>
<rect x="155.90909" y="139.51515" width="4.84848" height="4.84848" fill="black"/>
<rect x="165.60606" y="139.51515" width="4.84848" height="4.84848" fill="black"/>
<rect x="170.45455" y="139.51515" width="4.84848" height="4.84848" fill="black"/>
<rect x="25.00000" y="144.36364" width="4.84848" height="4.84848" fill="black"/>
<rect x="49.24242" y="144.36364" width="4.84848" height="4.84848" fill="black"/>
<rect x="54.09091" y="144.36364" width="4.84848" height="4.84848" fill="black"/>
<rect x="58.93939" y="144.36364" width="4.84848" height="4.84848" fill="black"/>
<rect x="68.63636" y="144.36364" width="4.84848" height="4.84848" fill="black"/>
<rect x="73.48485" y="144.36364" width="4.84848" height="4.84848" fill="black"/>
<rect x="83.18182" y="144.36364" width="4.84848" height="4.84848" fill="black"/>
<rect x="102.57576" y="144.36364" width="4.84848" height="4.84848" fill="black"/>
<rect x="126.81818" y="144.36364" width="4.84848" height="4.84848" fill="black"/>
<rect x="131.66667" y="144.36364" width="4.84848" height="4.84848" fill="black"/>
<rect x="141.36364" y="144.36364" width="4.84848" height="4.84848" fill="black"/>
<rect x="146.21212" y="144.36364" width="4.84848" height="4.84848" fill="black"/>
<rect x="170.45455" y="144.36364" width="4.84848" height="4.84848" fill="black"/>
<rect x="25.00000" y="149.21212" width="4.84848" height="4.84848" fill="black"/>
<rect x="34.69697" y="149.21212" width="4.84848" height="4.84848" fill="black"/>
<rect x="92.87879" y="149.21212" width="4.84848" height="4.84848" fill="black"/>
<rect x="102.57576" y="149.21212" width="4.84848" height="4.84848" fill="black"/>
<rect x="107.42424" y="149.21212" width="4.84848" height="4.84848" fill="black"/>
<rect x="112.27273" y="149.21212" width="4.84848" height="4.84848" fill="black"/>
<rect x="131.66667" y="149.21212" width="4.84848" height="4.84848" fill="black"/>
<rect x="146.21212" y="149.21212" width="4.84848" height="4.84848" fill="black"/>
<rect x="151.06061" y="149.21212" width="4.84848" height="4.84848" fill="black"/>
<rect x="155.90909" y="149.21212" width="4.84848" height="4.84848" fill="black"/>
<rect x="160.75758" y="149.21212" width="4.84848" height="4.84848" fill="black"/>
<rect x="165.60606" y="149.21212" width="4.84848" height="4.84848" fill="black"/>
<rect x="180.15152" y="149.21212" width="4.84848" height="4.84848" fill="black"/>
<rect x="25.00000" y="154.06061" width="4.84848" height="4.84848" fill="black"/>
<rect x="34.69697" y="154.06061" width="4.84848" height="4.84848" fill="black"/>
<rect x="44.39394" y="154.06061" width="4.84848" height="4.84848" fill="black"/>
<rect x="54.09091" y="154.06061" width="4.84848" height="4.84848" fill="black"/>
<rect x="68.63636" y="154.06061" width="4.84848" height="4.84848" fill="black"/>
<rect x="73.48485" y="154.06061" width="4.84848" height="4.84848" fill="black"/>
<rect x="83.18182" y="154.06061" width="4.84848" height="4.84848" fill="black"/>
<rect x="92.87879" y="154.06061" width="4.84848" height="4.84848" fill="black"/>
<rect x="97.72727" y="154.06061" width="4.84848" height="4.84848" fill="black"/>
<rect x="102.57576" y="154.06061" width="4.84848" height="4.84848" fill="black"/>
<rect x="107.42424" y="154.06061" width="4.84848" height="4.84848" fill="black"/>
<rect x="126.81818" y="154.06061" width="4.84848" height="4.84848" fill="black"/>
<rect x="146.21212" y="154.06061" width="4.84848" height="4.84848" fill="black"/>
<rect x="155.90909" y="154.06061" width="4.84848" height="4.84848" fill="black"/>
<rect x="165.60606" y="154.06061" width="4.84848" height="4.84848" fill="black"/>
<rect x="175.30303" y="154.06061" width="4.84848" height="4.84848" fill="black"/>
<rect x="25.00000" y="158.90909" width="4.84848" height="4.84848" fill="black"/>
<rect x="39.54545" y="158.90909" width="4.84848" height="4.84848" fill="black"/>
<rect x="44.39394" y="158.90909" width="4.84848" height="4.84848" fill="black"/>
<rect x="49.24242" y="158.90909" width="4.84848" height="4.84848" fill="black"/>
<rect x="63.78788" y="158.90909" width="4.84848" height="4.84848" fill="black"/>
<rect x="68.63636" y="158.90909" width="4.84848" height="4.84848" fill="black"/>
<rect x="73.48485" y="158.90909" width="4.84848" height="4.84848" fill="black"/>
<rect x="78.33333" y="158.90909" width="4.84848" height="4.84848" fill="black"/>
<rect x="92.87879" y="158.90909" width="4.84848" height="4.84848" fill="black"/>
<rect x="121.96970" y="158.90909" width="4.84848" height="4.84848" fill="black"/>
<rect x="131.66667" y="158.90909" width="4.84848" height="4.84848" fill="black"/>
<rect x="146.21212" y="158.90909" width="4.84848" height="4.84848" fill="black"/>
<rect x="155.90909" y="158.90909" width="4.84848" height="4.84848" fill="black"/>
<rect x="165.60606" y="158.90909" width="4.84848" height="4.84848" fill="black"/>
<rect x="170.45455" y="158.90909" width="4.84848" height="4.84848" fill="black"/>
<rect x="25.00000" y="163.75758" width="4.84848" height="4.84848" fill="black"/>
<rect x="29.84848" y="163.75758" width="4.84848" height="4.84848" fill="black"/>
<rect x="39.54545" y="163.75758" width="4.84848" height="4.84848" fill="black"/>
<rect x="44.39394" y="163.75758" width="4.84848" height="4.84848" fill="black"/>
<rect x="54.09091" y="163.75758" width="4.84848" height="4.84848" fill="black"/>
<rect x="58.93939" y="163.75758" width="4.84848" height="4.84848" fill="black"/>
<rect x="78.33333" y="163.75758" width="4.84848" height="4.84848" fill="black"/>
<rect x="83.18182" y="163.75758" width="4.84848" height="4.84848" fill="black"/>
<rect x="92.87879" y="163.75758" width="4.84848" height="4.84848" fill="black"/>
<rect x="97.72727" y="163.75758" width="4.84848" height="4.84848" fill="black"/>
<rect x="107.42424" y="163.75758" width="4.84848" height="4.84848" fill="black"/>
<rect x="117.12121" y="163.75758" width="4.84848" height="4.84848" fill="black"/>
<rect x="121.96970" y="163.75758" width="4.84848" height="4.84848" fill="black"/>
<rect x="126.81818" y="163.75758" width="4.84848" height="4.84848" fill="black"/>
<rect x="136.51515" y="163.75758" width="4.84848" height="4.84848" fill="black"/>
<rect x="141.36364" y="163.75758" width="4.84848" height="4.84848" fill="black"/>
<rect x="146.21212" y="163.75758" width="4.84848" height="4.84848" fill="black"/>
<rect x="151.06061" y="163.75758" width="4.84848" height="4.84848" fill="black"/>
<rect x="155.90909" y="163.75758" width="4.84848" height="4.84848" fill="black"/>
<rect x="160.75758" y="163.75758" width="4.84848" height="4.84848" fill="black"/>
<rect x="170.45455" y="163.75758" width="4.84848" height="4.84848" fill="black"/>
<rect x="180.15152" y="163.75758" width="4.84848" height="4.84848" fill="black"/>
<rect x="63.78788" y="168.60606" width="4.84848" height="4.84848" fill="black"/>
<rect x="88.03030" y="168.60606" width="4.84848" height="4.84848" fill="black"/>
<rect x="102.57576" y="168.60606" width="4.84848" height="4.84848" fill="black"/>
<rect x="121.96970" y="168.60606" width="4.84848" height="4.84848" fill="black"/>
<rect x="126.81818" y="168.60606" width="4.84848" height="4.84848" fill="black"/>
<rect x="131.66667" y="168.60606" width="4.84848" height="4.84848" fill="black"/>
<rect x="136.51515" y="168.60606" width="4.84848" height="4.84848" fill="black"/>
<rect x="141.36364" y="168.60606" width="4.84848" height="4.84848" fill="black"/>
<rect x="160.75758" y="168.60606" width="4.84848" height="4.84848" fill="black"/>
<rect x="175.30303" y="168.60606" width="4.84848" height="4.84848" fill="black"/>
<rect x="180.15152" y="168.60606" width="4.84848" height="4.84848" fill="black"/>
<rect x="25.00000" y="173.45455" width="4.84848" height="4.84848" fill="black"/>
<rect x="29.84848" y="173.45455" width="4.84848" height="4.84848" fill="black"/>
<rect x="34.69697" y="173.45455" width="4.84848" height="4.84848" fill="black"/>
<rect x="39.54545" y="173.45455" width="4.84848" height="4.84848" fill="black"/>
<rect x="44.39394" y="173.45455" width="4.84848" height="4.84848" fill="black"/>
<rect x="49.24242" y="173.45455" width="4.84848" height="4.84848" fill="black"/>
<rect x="54.09091" y="173.45455" width="4.84848" height="4.84848" fill="black"/>
<rect x="68.63636" y="173.45455" width="4.84848" height="4.84848" fill="black"/>
<rect x="78.33333" y="173.45455" width="4.84848" height="4.84848" fill="black"/>
<rect x="88.03030" y="173.45455" width="4.84848" height="4.84848" fill="black"/>
<rect x="92.87879" y="173.45455" width="4.84848" height="4.84848" fill="black"/>
<rect x="97.72727" y="173.45455" width="4.84848" height="4.84848" fill="black"/>
<rect x="102.57576" y="173.45455" width="4.84848" height="4.84848" fill="black"/>
<rect x="112.27273" y="173.45455" width="4.84848" height="4.84848" fill="black"/>
<rect x="121.96970" y="173.45455" width="4.84848" height="4.84848" fill="black"/>
<rect x="131.66667" y="173.45455" width="4.84848" height="4.84848" fill="black"/>
<rect x="141.36364" y="173.45455" width="4.84848" height="4.84848" fill="black"/>
<rect x="151.06061" y="173.45455" width="4.84848" height="4.84848" fill="black"/>
<rect x="160.75758" y="173.45455" width="4.84848" height="4.84848" fill="black"/>
<rect x="165.60606" y="173.45455" width="4.84848" height="4.84848" fill="black"/>
<rect x="25.00000" y="178.30303" width="4.84848" height="4.84848" fill="black"/>
<rect x="54.09091" y="178.30303" width="4.84848" height="4.84848" fill="black"/>
<rect x="68.63636" y="178.30303" width="4.84848" height="4.84848" fill="black"/>
<rect x="102.57576" y="178.30303" width="4.84848" height="4.84848" fill="black"/>
<rect x="117.12121" y="178.30303" width="4.84848" height="4.84848" fill="black"/>
<rect x="136.51515" y="178.30303" width="4.84848" height="4.84848" fill="black"/>
<rect x="141.36364" y="178.30303" width="4.84848" height="4.84848" fill="black"/>
<rect x="160.75758" y="178.30303" width="4.84848" height="4.84848" fill="black"/>
<rect x="165.60606" y="178.30303" width="4.84848" height="4.84848" fill="black"/>
<rect x="170.45455" y="178.30303" width="4.84848" height="4.84848" fill="black"/>
<rect x="25.00000" y="183.15152" width="4.84848" height="4.84848" fill="black"/>
<rect x="34.69697" y="183.15152" width="4.84848" height="4.84848" fill="black"/>
<rect x="39.54545" y="183.15152" width="4.84848" height="4.84848" fill="black"/>
<rect x="44.39394" y="183.15152" width="4.84848" height="4.84848" fill="black"/>
<rect x="54.09091" y="183.15152" width="4.84848" height="4.84848" fill="black"/>
<rect x="73.48485" y="183.15152" width="4.84848" height="4.84848" fill="black"/>
<rect x="78.33333" y="183.15152" width="4.84848" height="4.84848" fill="black"/>
<rect x="92.87879" y="183.15152" width="4.84848" height="4.84848" fill="black"/>
<rect x="112.27273" y="183.15152" width="4.84848" height="4.84848" fill="black"/>
<rect x="121.96970" y="183.15152" width="4.84848" height="4.84848" fill="black"/>
<rect x="126.81818" y="183.15152" width="4.84848" height="4.84848" fill="black"/>
<rect x="131.66667" y="183.15152" width="4.84848" height="4.84848" fill="black"/>
<rect x="141.36364" y="183.15152" width="4.84848" height="4.84848" fill="black"/>
<rect x="146.21212" y="183.15152" width="4.84848" height="4.84848" fill="black"/>
<rect x="151.06061" y="183.15152" width="4.84848" height="4.84848" fill="black"/>
<rect x="155.90909" y="183.15152" width="4.84848" height="4.84848" fill="black"/>
<rect x="160.75758" y="183.15152" width="4.84848" height="4.84848" fill="black"/>
<rect x="170.45455" y="183.15152" width="4.84848" height="4.84848" fill="black"/>
<rect x="175.30303" y="183.15152" width="4.84848" height="4.84848" fill="black"/>
<rect x="25.00000" y="188.00000" width="4.84848" height="4.84848" fill="black"/>
<rect x="34.69697" y="188.00000" width="4.84848" height="4.84848" fill="black"/>
<rect x="39.54545" y="188.00000" width="4.84848" height="4.84848" fill="black"/>
<rect x="44.39394" y="188.00000" width="4.84848" height="4.84848" fill="black"/>
<rect x="54.09091" y="188.00000" width="4.84848" height="4.84848" fill="black"/>
<rect x="68.63636" y="188.00000" width="4.84848" height="4.84848" fill="black"/>
<rect x="73.48485" y="188.00000" width="4.84848" height="4.84848" fill="black"/>
<rect x="92.87879" y="188.00000" width="4.84848" height="4.84848" fill="black"/>
<rect x="102.57576" y="188.00000" width="4.84848" height="4.84848" fill="black"/>
<rect x="121.96970" y="188.00000" width="4.84848" height="4.84848" fill="black"/>
<rect x="131.66667" y="188.00000" width="4.84848" height="4.84848" fill="black"/>
<rect x="141.36364" y="188.00000" width="4.84848" height="4.84848" fill="black"/>
<rect x="146.21212" y="188.00000" width="4.84848" height="4.84848" fill="black"/>
<rect x="155.90909" y="188.00000" width="4.84848" height="4.84848" fill="black"/>
<rect x="170.45455" y="188.00000" width="4.84848" height="4.84848" fill="black"/>
<rect x="175.30303" y="188.00000" width="4.84848" height="4.84848" fill="black"/>
<rect x="180.15152" y="188.00000" width="4.84848" height="4.84848" fill="black"/>
<rect x="25.00000" y="192.84848" width="4.84848" height="4.84848" fill="black"/>
<rect x="34.69697" y="192.84848" width="4.84848" height="4.84848" fill="black"/>
<rect x="39.54545" y="192.84848" width="4.84848" height="4.84848" fill="black"/>
<rect x="44.39394" y="192.84848" width="4.84848" height="4.84848" fill="black"/>
<rect x="54.09091" y="192.84848" width="4.84848" height="4.84848" fill="black"/>
<rect x="68.63636" y="192.84848" width="4.84848" height="4.84848" fill="black"/>
<rect x="92.87879" y="192.84848" width="4.84848" height="4.84848" fill="black"/>
<rect x="102.57576" y="192.84848" width="4.84848" height="4.84848" fill="black"/>
<rect x="112.27273" y="192.84848" width="4.84848" height="4.84848" fill="black"/>
<rect x="117.12121" y="192.84848" width="4.84848" height="4.84848" fill="black"/>
<rect x="121.96970" y="192.84848" width="4.84848" height="4.84848" fill="black"/>
<rect x="131.66667" y="192.84848" width="4.84848" height="4.84848" fill="black"/>
<rect x="141.36364" y="192.84848" width="4.84848" height="4.84848" fill="black"/>
<rect x="151.06061" y="192.84848" width="4.84848" height="4.84848" fill="black"/>
<rect x="160.75758" y="192.84848" width="4.84848" height="4.84848" fill="black"/>
<rect x="175.30303" y="192.84848" width="4.84848" height="4.84848" fill="black"/>
<rect x="180.15152" y="192.84848" width="4.84848" height="4.84848" fill="black"/>
<rect x="25.00000" y="197.69697" width="4.84848" height="4.84848" fill="black"/>
<rect x="54.09091" y="197.69697" width="4.84848" height="4.84848" fill="black"/>
<rect x="68.63636" y="197.69697" width="4.84848" height="4.84848" fill="black"/>
<rect x="83.18182" y="197.69697" width="4.84848" height="4.84848" fill="black"/>
<rect x="88.03030" y="197.69697" width="4.84848" height="4.84848" fill="black"/>
<rect x="92.87879" y="197.69697" width="4.84848" height="4.84848" fill="black"/>
<rect x="97.72727" y="197.69697" width="4.84848" height="4.84848" fill="black"/>
<rect x="102.57576" y="197.69697" width="4.84848" height="4.84848" fill="black"/>
<rect x="121.96970" y="197.69697" width="4.84848" height="4.84848" fill="black"/>
<rect x="141.36364" y="197.69697" width="4.84848" height="4.84848" fill="black"/>
<rect x="146.21212" y="197.69697" width="4.84848" height="4.84848" fill="black"/>
<rect x="151.06061" y="197.69697" width="4.84848" height="4.84848" fill="black"/>
<rect x="155.90909" y="197.69697" width="4.84848" height="4.84848" fill="black"/>
<rect x="165.60606" y="197.69697" width="4.84848" height="4.84848" fill="black"/>
<rect x="170.45455" y="197.69697" width="4.84848" height="4.84848" fill="black"/>
<rect x="25.00000" y="202.54545" width="4.84848" height="4.84848" fill="black"/>
<rect x="29.84848" y="202.54545" width="4.84848" height="4.84848" fill="black"/>
<rect x="34.69697" y="202.54545" width="4.84848" height="4.84848" fill="black"/>
<rect x="39.54545" y="202.54545" width="4.84848" height="4.84848" fill="black"/>
<rect x="44.39394" y="202.54545" width="4.84848" height="4.84848" fill="black"/>
<rect x="49.24242" y="202.54545" width="4.84848" height="4.84848" fill="black"/>
<rect x="54.09091" y="202.54545" width="4.84848" height="4.84848" fill="black"/>
<rect x="63.78788" y="202.54545" width="4.84848" height="4.84848" fill="black"/>
<rect x="68.63636" y="202.54545" width="4.84848" height="4.84848" fill="black"/>
<rect x="73.48485" y="202.54545" width="4.84848" height="4.84848" fill="black"/>
<rect x="92.87879" y="202.54545" width="4.84848" height="4.84848" fill="black"/>
<rect x="126.81818" y="202.54545" width="4.84848" height="4.84848" fill="black"/>
<rect x="131.66667" y="202.54545" width="4.84848" height="4.84848" fill="black"/>
<rect x="136.51515" y="202.54545" width="4.84848" height="4.84848" fill="black"/>
<rect x="141.36364" y="202.54545" width="4.84848" height="4.84848" fill="black"/>
<rect x="146.21212" y="202.54545" width="4.84848" height="4.84848" fill="black"/>
<rect x="151.06061" y="202.54545" width="4.84848" height="4.84848" fill="black"/>
<rect x="165.60606" y="202.54545" width="4.84848" height="4.84848" fill="black"/>
<rect x="170.45455" y="202.54545" width="4.84848" height="4.84848" fill="black"/>
<rect x="175.30303" y="202.54545" width="4.84848" height="4.84848" fill="black"/>
<line x1="25.0" y1="207.39393939393938" x2="185.0" y2="207.39393939393938" stroke="#e11d48" stroke-width="1.8"/>
<line x1="25.0" y1="203.39393939393938" x2="25.0" y2="211.39393939393938" stroke="#e11d48" stroke-width="1.2"/>
<line x1="185.0" y1="203.39393939393938" x2="185.0" y2="211.39393939393938" stroke="#e11d48" stroke-width="1.2"/>
<text x="105" y="204.39393939393938" text-anchor="middle" font-family="Arial" font-size="3.2" fill="#e11d48" font-weight="bold">CONTROL + STUMP EDGE — THIS RED LINE MUST MEASURE EXACTLY 160 mm</text>
<path d="M105 252.78787878787878 L92 238.78787878787878 L100 238.78787878787878 L100 209.39393939393938 L110 209.39393939393938 L110 238.78787878787878 L118 238.78787878787878 Z" fill="#e11d48"/>
<text x="105" y="262.78787878787875" text-anchor="middle" font-family="Arial" font-size="5.5" font-weight="bold">MIDDLE STUMP TOUCHES THIS RED EDGE</text>
<text x="105" y="269.78787878787875" text-anchor="middle" font-family="Arial" font-size="3.3">Quiet zone (dashed) is outside · Vision / app measure the 160 mm module square only</text>
<text x="105" y="275.78787878787875" text-anchor="middle" font-family="Arial" font-size="3">Payload: KIRKET_METRIC_TARGET_V1_SIZE_160MM_STUMP_EDGE_BOTTOM</text>
<text x="105" y="281.78787878787875" text-anchor="middle" font-family="Arial" font-size="3">Arrow points DOWN THE PITCH · After calibration, remove all 9 sheets</text>
</svg>