<svg xmlns="http://www.w3.org/2000/svg" width="210mm" height="297mm" viewBox="0 0 210 297">
<rect width="210" height="297" fill="white"/>

<text x="105" y="12" text-anchor="middle" font-family="Arial" font-size="6" font-weight="bold">KIRKET 3×3 A4 — SHEET C3 — FRONT-RIGHT</text>
<text x="105" y="18" text-anchor="middle" font-family="Arial" font-size="3.2">Print at 100% / Actual Size · Temporary board: place → calibrate → remove</text>
<text x="105" y="23" text-anchor="middle" font-family="Arial" font-size="3">Overlap 15 mm · Stick sheets ON TOP at dashed attach lines · Crosses = exact corners</text>

<rect x="172.0" y="26.0" width="10" height="10" fill="#f3f4f6" stroke="#111" stroke-width="0.3"/>
<text x="177.0" y="32.2" text-anchor="middle" font-family="Arial" font-size="2.4" fill="#111">A1</text>
<rect x="183.5" y="26.0" width="10" height="10" fill="#f3f4f6" stroke="#111" stroke-width="0.3"/>
<text x="188.5" y="32.2" text-anchor="middle" font-family="Arial" font-size="2.4" fill="#111">A2</text>
<rect x="195.0" y="26.0" width="10" height="10" fill="#f3f4f6" stroke="#111" stroke-width="0.3"/>
<text x="200.0" y="32.2" text-anchor="middle" font-family="Arial" font-size="2.4" fill="#111">A3</text>
<rect x="172.0" y="37.5" width="10" height="10" fill="#f3f4f6" stroke="#111" stroke-width="0.3"/>
<text x="177.0" y="43.7" text-anchor="middle" font-family="Arial" font-size="2.4" fill="#111">B1</text>
<rect x="183.5" y="37.5" width="10" height="10" fill="#f3f4f6" stroke="#111" stroke-width="0.3"/>
<text x="188.5" y="43.7" text-anchor="middle" font-family="Arial" font-size="2.4" fill="#111">B2</text>
<rect x="195.0" y="37.5" width="10" height="10" fill="#f3f4f6" stroke="#111" stroke-width="0.3"/>
<text x="200.0" y="43.7" text-anchor="middle" font-family="Arial" font-size="2.4" fill="#111">B3</text>
<rect x="172.0" y="49.0" width="10" height="10" fill="#f3f4f6" stroke="#111" stroke-width="0.3"/>
<text x="177.0" y="55.2" text-anchor="middle" font-family="Arial" font-size="2.4" fill="#111">C1</text>
<rect x="183.5" y="49.0" width="10" height="10" fill="#f3f4f6" stroke="#111" stroke-width="0.3"/>
<text x="188.5" y="55.2" text-anchor="middle" font-family="Arial" font-size="2.4" fill="#111">C2</text>
<rect x="195.0" y="49.0" width="10" height="10" fill="#e11d48" stroke="#111" stroke-width="0.3"/>
<text x="200.0" y="55.2" text-anchor="middle" font-family="Arial" font-size="2.4" fill="#fff">C3</text>
<text x="189.25" y="64.5" text-anchor="middle" font-family="Arial" font-size="2.2">camera ↓</text>
<line x1="15.0" y1="15.0" x2="15.0" y2="282.0" stroke="#111" stroke-width="0.45" stroke-dasharray="3 2"/>
<line x1="11.0" y1="23.0" x2="19.0" y2="23.0" stroke="#111" stroke-width="0.35"/><line x1="15.0" y1="19.0" x2="15.0" y2="27.0" stroke="#111" stroke-width="0.35"/>
<line x1="11.0" y1="148.5" x2="19.0" y2="148.5" stroke="#111" stroke-width="0.35"/><line x1="15.0" y1="144.5" x2="15.0" y2="152.5" stroke="#111" stroke-width="0.35"/>
<line x1="11.0" y1="274.0" x2="19.0" y2="274.0" stroke="#111" stroke-width="0.35"/><line x1="15.0" y1="270.0" x2="15.0" y2="278.0" stroke="#111" stroke-width="0.35"/>
<text x="17.0" y="148.5" text-anchor="start" font-family="Arial" font-size="3.2" transform="rotate(90 17.0 148.5)">ALIGN RIGHT EDGE OF C2 ON THIS LINE (tape C2 ON TOP)</text>
<rect x="0" y="0" width="15.0" height="297.0" fill="#000" fill-opacity="0.04"/>
<line x1="15.0" y1="0.4" x2="195.0" y2="0.4" stroke="#e11d48" stroke-width="0.8"/>
<line x1="20.0" y1="2.5" x2="26.0" y2="2.5" stroke="#111" stroke-width="0.4"/><line x1="23.0" y1="-0.5" x2="23.0" y2="5.5" stroke="#111" stroke-width="0.4"/>
<line x1="102.0" y1="2.5" x2="108.0" y2="2.5" stroke="#111" stroke-width="0.4"/><line x1="105.0" y1="-0.5" x2="105.0" y2="5.5" stroke="#111" stroke-width="0.4"/>
<line x1="184.0" y1="2.5" x2="190.0" y2="2.5" stroke="#111" stroke-width="0.4"/><line x1="187.0" y1="-0.5" x2="187.0" y2="5.5" stroke="#111" stroke-width="0.4"/>
<text x="105.0" y="8" text-anchor="middle" font-family="Arial" font-size="3" fill="#e11d48">PLACE THIS EDGE ON B3 ATTACH LINE</text>
<rect x="15.0" y="42" width="187.0" height="243.0" fill="white" stroke="#111" stroke-width="0.5"/>
<rect x="18.0" y="45" width="181.0" height="237.0" fill="none" stroke="#111" stroke-width="2"/>
<defs><clipPath id="clip_C3"><rect x="21.0" y="48" width="175.0" height="231.0"/></clipPath></defs>
<g clip-path="url(#clip_C3)">
<line x1="-228.0" y1="48" x2="15.0" y2="279.0" stroke="#111" stroke-width="4"/>
<line x1="-216.0" y1="48" x2="27.0" y2="279.0" stroke="#111" stroke-width="4"/>
<line x1="-204.0" y1="48" x2="39.0" y2="279.0" stroke="#111" stroke-width="4"/>
<line x1="-192.0" y1="48" x2="51.0" y2="279.0" stroke="#111" stroke-width="4"/>
<line x1="-180.0" y1="48" x2="63.0" y2="279.0" stroke="#111" stroke-width="4"/>
<line x1="-168.0" y1="48" x2="75.0" y2="279.0" stroke="#111" stroke-width="4"/>
<line x1="-156.0" y1="48" x2="87.0" y2="279.0" stroke="#111" stroke-width="4"/>
<line x1="-144.0" y1="48" x2="99.0" y2="279.0" stroke="#111" stroke-width="4"/>
<line x1="-132.0" y1="48" x2="111.0" y2="279.0" stroke="#111" stroke-width="4"/>
<line x1="-120.0" y1="48" x2="123.0" y2="279.0" stroke="#111" stroke-width="4"/>
<line x1="-108.0" y1="48" x2="135.0" y2="279.0" stroke="#111" stroke-width="4"/>
<line x1="-96.0" y1="48" x2="147.0" y2="279.0" stroke="#111" stroke-width="4"/>
<line x1="-84.0" y1="48" x2="159.0" y2="279.0" stroke="#111" stroke-width="4"/>
<line x1="-72.0" y1="48" x2="171.0" y2="279.0" stroke="#111" stroke-width="4"/>
<line x1="-60.0" y1="48" x2="183.0" y2="279.0" stroke="#111" stroke-width="4"/>
<line x1="-48.0" y1="48" x2="195.0" y2="279.0" stroke="#111" stroke-width="4"/>
<line x1="-36.0" y1="48" x2="207.0" y2="279.0" stroke="#111" stroke-width="4"/>
<line x1="-24.0" y1="48" x2="219.0" y2="279.0" stroke="#111" stroke-width="4"/>
<line x1="-12.0" y1="48" x2="231.0" y2="279.0" stroke="#111" stroke-width="4"/>
<line x1="0.0" y1="48" x2="243.0" y2="279.0" stroke="#111" stroke-width="4"/>
<line x1="12.0" y1="48" x2="255.0" y2="279.0" stroke="#111" stroke-width="4"/>
<line x1="24.0" y1="48" x2="267.0" y2="279.0" stroke="#111" stroke-width="4"/>
<line x1="36.0" y1="48" x2="279.0" y2="279.0" stroke="#111" stroke-width="4"/>
<line x1="48.0" y1="48" x2="291.0" y2="279.0" stroke="#111" stroke-width="4"/>
<line x1="60.0" y1="48" x2="303.0" y2="279.0" stroke="#111" stroke-width="4"/>
<line x1="72.0" y1="48" x2="315.0" y2="279.0" stroke="#111" stroke-width="4"/>
<line x1="84.0" y1="48" x2="327.0" y2="279.0" stroke="#111" stroke-width="4"/>
<line x1="96.0" y1="48" x2="339.0" y2="279.0" stroke="#111" stroke-width="4"/>
<line x1="108.0" y1="48" x2="351.0" y2="279.0" stroke="#111" stroke-width="4"/>
<line x1="120.0" y1="48" x2="363.0" y2="279.0" stroke="#111" stroke-width="4"/>
<line x1="132.0" y1="48" x2="375.0" y2="279.0" stroke="#111" stroke-width="4"/>
<line x1="144.0" y1="48" x2="387.0" y2="279.0" stroke="#111" stroke-width="4"/>
<line x1="156.0" y1="48" x2="399.0" y2="279.0" stroke="#111" stroke-width="4"/>
<line x1="168.0" y1="48" x2="411.0" y2="279.0" stroke="#111" stroke-width="4"/>
<line x1="180.0" y1="48" x2="423.0" y2="279.0" stroke="#111" stroke-width="4"/>
<line x1="192.0" y1="48" x2="435.0" y2="279.0" stroke="#111" stroke-width="4"/>
<line x1="204.0" y1="48" x2="447.0" y2="279.0" stroke="#111" stroke-width="4"/>
<line x1="216.0" y1="48" x2="459.0" y2="279.0" stroke="#111" stroke-width="4"/>
<line x1="228.0" y1="48" x2="471.0" y2="279.0" stroke="#111" stroke-width="4"/>
<line x1="240.0" y1="48" x2="483.0" y2="279.0" stroke="#111" stroke-width="4"/>
<line x1="252.0" y1="48" x2="495.0" y2="279.0" stroke="#111" stroke-width="4"/>
<line x1="264.0" y1="48" x2="507.0" y2="279.0" stroke="#111" stroke-width="4"/>
<line x1="276.0" y1="48" x2="519.0" y2="279.0" stroke="#111" stroke-width="4"/>
<line x1="288.0" y1="48" x2="531.0" y2="279.0" stroke="#111" stroke-width="4"/>
<line x1="300.0" y1="48" x2="543.0" y2="279.0" stroke="#111" stroke-width="4"/>
<line x1="312.0" y1="48" x2="555.0" y2="279.0" stroke="#111" stroke-width="4"/>
<line x1="324.0" y1="48" x2="567.0" y2="279.0" stroke="#111" stroke-width="4"/>
<line x1="336.0" y1="48" x2="579.0" y2="279.0" stroke="#111" stroke-width="4"/>
<line x1="348.0" y1="48" x2="591.0" y2="279.0" stroke="#111" stroke-width="4"/>
<line x1="360.0" y1="48" x2="603.0" y2="279.0" stroke="#111" stroke-width="4"/>
<line x1="372.0" y1="48" x2="615.0" y2="279.0" stroke="#111" stroke-width="4"/>
<line x1="384.0" y1="48" x2="627.0" y2="279.0" stroke="#111" stroke-width="4"/>
<line x1="396.0" y1="48" x2="639.0" y2="279.0" stroke="#111" stroke-width="4"/>
<line x1="408.0" y1="48" x2="651.0" y2="279.0" stroke="#111" stroke-width="4"/>
<line x1="420.0" y1="48" x2="663.0" y2="279.0" stroke="#111" stroke-width="4"/>
<line x1="432.0" y1="48" x2="675.0" y2="279.0" stroke="#111" stroke-width="4"/>
<line x1="444.0" y1="48" x2="687.0" y2="279.0" stroke="#111" stroke-width="4"/>
</g>
<text x="105" y="163.5" text-anchor="middle" font-family="Arial" font-size="14" font-weight="bold" fill="#111">C3</text>
<text x="105" y="173.5" text-anchor="middle" font-family="Arial" font-size="5" fill="#111">FRONT-RIGHT</text>
<text x="105" y="183.5" text-anchor="middle" font-family="Arial" font-size="3.5" fill="#333">Visibility panel · temporary 3×3 board</text>
</svg>