<svg xmlns="http://www.w3.org/2000/svg" width="210mm" height="297mm" viewBox="0 0 210 297"><rect width="210" height="297" fill="white"/><text x="105" y="18" text-anchor="middle" font-family="Arial" font-size="7" font-weight="bold">KIRKET METRIC CALIBRATION TARGET</text><text x="105" y="27" text-anchor="middle" font-family="Arial" font-size="4">Print at 100% / Actual Size. Verify the ruler before use.</text><rect x="25" y="42" width="160" height="160" fill="white" stroke="black" stroke-width="0.4"/><rect x="38.06122" y="55.06122" width="3.26531" height="3.26531" fill="black"/><rect x="41.32653" y="55.06122" width="3.26531" height="3.26531" fill="black"/><rect x="44.59184" y="55.06122" width="3.26531" height="3.26531" fill="black"/><rect x="47.85714" y="55.06122" width="3.26531" height="3.26531" fill="black"/><rect x="51.12245" y="55.06122" width="3.26531" height="3.26531" fill="black"/><rect x="54.38776" y="55.06122" width="3.26531" height="3.26531" fill="black"/><rect x="57.65306" y="55.06122" width="3.26531" height="3.26531" fill="black"/><rect x="70.71429" y="55.06122" width="3.26531" height="3.26531" fill="black"/><rect x="73.97959" y="55.06122" width="3.26531" height="3.26531" fill="black"/><rect x="77.24490" y="55.06122" width="3.26531" height="3.26531" fill="black"/><rect x="83.77551" y="55.06122" width="3.26531" height="3.26531" fill="black"/><rect x="90.30612" y="55.06122" width="3.26531" height="3.26531" fill="black"/><rect x="103.36735" y="55.06122" width="3.26531" height="3.26531" fill="black"/><rect x="109.89796" y="55.06122" width="3.26531" height="3.26531" fill="black"/><rect x="116.42857" y="55.06122" width="3.26531" height="3.26531" fill="black"/><rect x="119.69388" y="55.06122" width="3.26531" height="3.26531" fill="black"/><rect x="122.95918" y="55.06122" width="3.26531" height="3.26531" fill="black"/><rect x="126.22449" y="55.06122" width="3.26531" height="3.26531" fill="black"/><rect x="136.02041" y="55.06122" width="3.26531" height="3.26531" fill="black"/><rect x="139.28571" y="55.06122" width="3.26531" height="3.26531" fill="black"/><rect x="149.08163" y="55.06122" width="3.26531" height="3.26531" fill="black"/><rect x="152.34694" y="55.06122" width="3.26531" height="3.26531" fill="black"/><rect x="155.61224" y="55.06122" width="3.26531" height="3.26531" fill="black"/><rect x="158.87755" y="55.06122" width="3.26531" height="3.26531" fill="black"/><rect x="162.14286" y="55.06122" width="3.26531" height="3.26531" fill="black"/><rect x="165.40816" y="55.06122" width="3.26531" height="3.26531" fill="black"/><rect x="168.67347" y="55.06122" width="3.26531" height="3.26531" fill="black"/><rect x="38.06122" y="58.32653" width="3.26531" height="3.26531" fill="black"/><rect x="57.65306" y="58.32653" width="3.26531" height="3.26531" fill="black"/><rect x="64.18367" y="58.32653" width="3.26531" height="3.26531" fill="black"/><rect x="67.44898" y="58.32653" width="3.26531" height="3.26531" fill="black"/><rect x="70.71429" y="58.32653" width="3.26531" height="3.26531" fill="black"/><rect x="80.51020" y="58.32653" width="3.26531" height="3.26531" fill="black"/><rect x="83.77551" y="58.32653" width="3.26531" height="3.26531" fill="black"/><rect x="90.30612" y="58.32653" width="3.26531" height="3.26531" fill="black"/><rect x="93.57143" y="58.32653" width="3.26531" height="3.26531" fill="black"/><rect x="100.10204" y="58.32653" width="3.26531" height="3.26531" fill="black"/><rect x="103.36735" y="58.32653" width="3.26531" height="3.26531" fill="black"/><rect x="116.42857" y="58.32653" width="3.26531" height="3.26531" fill="black"/><rect x="132.75510" y="58.32653" width="3.26531" height="3.26531" fill="black"/><rect x="136.02041" y="58.32653" width="3.26531" height="3.26531" fill="black"/><rect x="142.55102" y="58.32653" width="3.26531" height="3.26531" fill="black"/><rect x="149.08163" y="58.32653" width="3.26531" height="3.26531" fill="black"/><rect x="168.67347" y="58.32653" width="3.26531" height="3.26531" fill="black"/><rect x="38.06122" y="61.59184" width="3.26531" height="3.26531" fill="black"/><rect x="44.59184" y="61.59184" width="3.26531" height="3.26531" fill="black"/><rect x="47.85714" y="61.59184" width="3.26531" height="3.26531" fill="black"/><rect x="51.12245" y="61.59184" width="3.26531" height="3.26531" fill="black"/><rect x="57.65306" y="61.59184" width="3.26531" height="3.26531" fill="black"/><rect x="64.18367" y="61.59184" width="3.26531" height="3.26531" fill="black"/><rect x="67.44898" y="61.59184" width="3.26531" height="3.26531" fill="black"/><rect x="77.24490" y="61.59184" width="3.26531" height="3.26531" fill="black"/><rect x="83.77551" y="61.59184" width="3.26531" height="3.26531" fill="black"/><rect x="90.30612" y="61.59184" width="3.26531" height="3.26531" fill="black"/><rect x="93.57143" y="61.59184" width="3.26531" height="3.26531" fill="black"/><rect x="96.83673" y="61.59184" width="3.26531" height="3.26531" fill="black"/><rect x="106.63265" y="61.59184" width="3.26531" height="3.26531" fill="black"/><rect x="113.16327" y="61.59184" width="3.26531" height="3.26531" fill="black"/><rect x="119.69388" y="61.59184" width="3.26531" height="3.26531" fill="black"/><rect x="126.22449" y="61.59184" width="3.26531" height="3.26531" fill="black"/><rect x="136.02041" y="61.59184" width="3.26531" height="3.26531" fill="black"/><rect x="139.28571" y="61.59184" width="3.26531" height="3.26531" fill="black"/><rect x="149.08163" y="61.59184" width="3.26531" height="3.26531" fill="black"/><rect x="155.61224" y="61.59184" width="3.26531" height="3.26531" fill="black"/><rect x="158.87755" y="61.59184" width="3.26531" height="3.26531" fill="black"/><rect x="162.14286" y="61.59184" width="3.26531" height="3.26531" fill="black"/><rect x="168.67347" y="61.59184" width="3.26531" height="3.26531" fill="black"/><rect x="38.06122" y="64.85714" width="3.26531" height="3.26531" fill="black"/><rect x="44.59184" y="64.85714" width="3.26531" height="3.26531" fill="black"/><rect x="47.85714" y="64.85714" width="3.26531" height="3.26531" fill="black"/><rect x="51.12245" y="64.85714" width="3.26531" height="3.26531" fill="black"/><rect x="57.65306" y="64.85714" width="3.26531" height="3.26531" fill="black"/><rect x="64.18367" y="64.85714" width="3.26531" height="3.26531" fill="black"/><rect x="70.71429" y="64.85714" width="3.26531" height="3.26531" fill="black"/><rect x="73.97959" y="64.85714" width="3.26531" height="3.26531" fill="black"/><rect x="77.24490" y="64.85714" width="3.26531" height="3.26531" fill="black"/><rect x="80.51020" y="64.85714" width="3.26531" height="3.26531" fill="black"/><rect x="90.30612" y="64.85714" width="3.26531" height="3.26531" fill="black"/><rect x="96.83673" y="64.85714" width="3.26531" height="3.26531" fill="black"/><rect x="100.10204" y="64.85714" width="3.26531" height="3.26531" fill="black"/><rect x="103.36735" y="64.85714" width="3.26531" height="3.26531" fill="black"/><rect x="106.63265" y="64.85714" width="3.26531" height="3.26531" fill="black"/><rect x="113.16327" y="64.85714" width="3.26531" height="3.26531" fill="black"/><rect x="129.48980" y="64.85714" width="3.26531" height="3.26531" fill="black"/><rect x="136.02041" y="64.85714" width="3.26531" height="3.26531" fill="black"/><rect x="142.55102" y="64.85714" width="3.26531" height="3.26531" fill="black"/><rect x="149.08163" y="64.85714" width="3.26531" height="3.26531" fill="black"/><rect x="155.61224" y="64.85714" width="3.26531" height="3.26531" fill="black"/><rect x="158.87755" y="64.85714" width="3.26531" height="3.26531" fill="black"/><rect x="162.14286" y="64.85714" width="3.26531" height="3.26531" fill="black"/><rect x="168.67347" y="64.85714" width="3.26531" height="3.26531" fill="black"/><rect x="38.06122" y="68.12245" width="3.26531" height="3.26531" fill="black"/><rect x="44.59184" y="68.12245" width="3.26531" height="3.26531" fill="black"/><rect x="47.85714" y="68.12245" width="3.26531" height="3.26531" fill="black"/><rect x="51.12245" y="68.12245" width="3.26531" height="3.26531" fill="black"/><rect x="57.65306" y="68.12245" width="3.26531" height="3.26531" fill="black"/><rect x="64.18367" y="68.12245" width="3.26531" height="3.26531" fill="black"/><rect x="67.44898" y="68.12245" width="3.26531" height="3.26531" fill="black"/><rect x="96.83673" y="68.12245" width="3.26531" height="3.26531" fill="black"/><rect x="116.42857" y="68.12245" width="3.26531" height="3.26531" fill="black"/><rect x="126.22449" y="68.12245" width="3.26531" height="3.26531" fill="black"/><rect x="132.75510" y="68.12245" width="3.26531" height="3.26531" fill="black"/><rect x="136.02041" y="68.12245" width="3.26531" height="3.26531" fill="black"/><rect x="139.28571" y="68.12245" width="3.26531" height="3.26531" fill="black"/><rect x="149.08163" y="68.12245" width="3.26531" height="3.26531" fill="black"/><rect x="155.61224" y="68.12245" width="3.26531" height="3.26531" fill="black"/><rect x="158.87755" y="68.12245" width="3.26531" height="3.26531" fill="black"/><rect x="162.14286" y="68.12245" width="3.26531" height="3.26531" fill="black"/><rect x="168.67347" y="68.12245" width="3.26531" height="3.26531" fill="black"/><rect x="38.06122" y="71.38776" width="3.26531" height="3.26531" fill="black"/><rect x="57.65306" y="71.38776" width="3.26531" height="3.26531" fill="black"/><rect x="64.18367" y="71.38776" width="3.26531" height="3.26531" fill="black"/><rect x="70.71429" y="71.38776" width="3.26531" height="3.26531" fill="black"/><rect x="80.51020" y="71.38776" width="3.26531" height="3.26531" fill="black"/><rect x="83.77551" y="71.38776" width="3.26531" height="3.26531" fill="black"/><rect x="96.83673" y="71.38776" width="3.26531" height="3.26531" fill="black"/><rect x="100.10204" y="71.38776" width="3.26531" height="3.26531" fill="black"/><rect x="103.36735" y="71.38776" width="3.26531" height="3.26531" fill="black"/><rect x="106.63265" y="71.38776" width="3.26531" height="3.26531" fill="black"/><rect x="109.89796" y="71.38776" width="3.26531" height="3.26531" fill="black"/><rect x="119.69388" y="71.38776" width="3.26531" height="3.26531" fill="black"/><rect x="122.95918" y="71.38776" width="3.26531" height="3.26531" fill="black"/><rect x="129.48980" y="71.38776" width="3.26531" height="3.26531" fill="black"/><rect x="136.02041" y="71.38776" width="3.26531" height="3.26531" fill="black"/><rect x="142.55102" y="71.38776" width="3.26531" height="3.26531" fill="black"/><rect x="149.08163" y="71.38776" width="3.26531" height="3.26531" fill="black"/><rect x="168.67347" y="71.38776" width="3.26531" height="3.26531" fill="black"/><rect x="38.06122" y="74.65306" width="3.26531" height="3.26531" fill="black"/><rect x="41.32653" y="74.65306" width="3.26531" height="3.26531" fill="black"/><rect x="44.59184" y="74.65306" width="3.26531" height="3.26531" fill="black"/><rect x="47.85714" y="74.65306" width="3.26531" height="3.26531" fill="black"/><rect x="51.12245" y="74.65306" width="3.26531" height="3.26531" fill="black"/><rect x="54.38776" y="74.65306" width="3.26531" height="3.26531" fill="black"/><rect x="57.65306" y="74.65306" width="3.26531" height="3.26531" fill="black"/><rect x="64.18367" y="74.65306" width="3.26531" height="3.26531" fill="black"/><rect x="70.71429" y="74.65306" width="3.26531" height="3.26531" fill="black"/><rect x="77.24490" y="74.65306" width="3.26531" height="3.26531" fill="black"/><rect x="83.77551" y="74.65306" width="3.26531" height="3.26531" fill="black"/><rect x="90.30612" y="74.65306" width="3.26531" height="3.26531" fill="black"/><rect x="96.83673" y="74.65306" width="3.26531" height="3.26531" fill="black"/><rect x="103.36735" y="74.65306" width="3.26531" height="3.26531" fill="black"/><rect x="109.89796" y="74.65306" width="3.26531" height="3.26531" fill="black"/><rect x="116.42857" y="74.65306" width="3.26531" height="3.26531" fill="black"/><rect x="122.95918" y="74.65306" width="3.26531" height="3.26531" fill="black"/><rect x="129.48980" y="74.65306" width="3.26531" height="3.26531" fill="black"/><rect x="136.02041" y="74.65306" width="3.26531" height="3.26531" fill="black"/><rect x="142.55102" y="74.65306" width="3.26531" height="3.26531" fill="black"/><rect x="149.08163" y="74.65306" width="3.26531" height="3.26531" fill="black"/><rect x="152.34694" y="74.65306" width="3.26531" height="3.26531" fill="black"/><rect x="155.61224" y="74.65306" width="3.26531" height="3.26531" fill="black"/><rect x="158.87755" y="74.65306" width="3.26531" height="3.26531" fill="black"/><rect x="162.14286" y="74.65306" width="3.26531" height="3.26531" fill="black"/><rect x="165.40816" y="74.65306" width="3.26531" height="3.26531" fill="black"/><rect x="168.67347" y="74.65306" width="3.26531" height="3.26531" fill="black"/><rect x="67.44898" y="77.91837" width="3.26531" height="3.26531" fill="black"/><rect x="73.97959" y="77.91837" width="3.26531" height="3.26531" fill="black"/><rect x="77.24490" y="77.91837" width="3.26531" height="3.26531" fill="black"/><rect x="80.51020" y="77.91837" width="3.26531" height="3.26531" fill="black"/><rect x="83.77551" y="77.91837" width="3.26531" height="3.26531" fill="black"/><rect x="87.04082" y="77.91837" width="3.26531" height="3.26531" fill="black"/><rect x="90.30612" y="77.91837" width="3.26531" height="3.26531" fill="black"/><rect x="93.57143" y="77.91837" width="3.26531" height="3.26531" fill="black"/><rect x="100.10204" y="77.91837" width="3.26531" height="3.26531" fill="black"/><rect x="103.36735" y="77.91837" width="3.26531" height="3.26531" fill="black"/><rect x="109.89796" y="77.91837" width="3.26531" height="3.26531" fill="black"/><rect x="116.42857" y="77.91837" width="3.26531" height="3.26531" fill="black"/><rect x="119.69388" y="77.91837" width="3.26531" height="3.26531" fill="black"/><rect x="129.48980" y="77.91837" width="3.26531" height="3.26531" fill="black"/><rect x="136.02041" y="77.91837" width="3.26531" height="3.26531" fill="black"/><rect x="44.59184" y="81.18367" width="3.26531" height="3.26531" fill="black"/><rect x="54.38776" y="81.18367" width="3.26531" height="3.26531" fill="black"/><rect x="57.65306" y="81.18367" width="3.26531" height="3.26531" fill="black"/><rect x="60.91837" y="81.18367" width="3.26531" height="3.26531" fill="black"/><rect x="64.18367" y="81.18367" width="3.26531" height="3.26531" fill="black"/><rect x="70.71429" y="81.18367" width="3.26531" height="3.26531" fill="black"/><rect x="83.77551" y="81.18367" width="3.26531" height="3.26531" fill="black"/><rect x="87.04082" y="81.18367" width="3.26531" height="3.26531" fill="black"/><rect x="90.30612" y="81.18367" width="3.26531" height="3.26531" fill="black"/><rect x="93.57143" y="81.18367" width="3.26531" height="3.26531" fill="black"/><rect x="96.83673" y="81.18367" width="3.26531" height="3.26531" fill="black"/><rect x="103.36735" y="81.18367" width="3.26531" height="3.26531" fill="black"/><rect x="106.63265" y="81.18367" width="3.26531" height="3.26531" fill="black"/><rect x="109.89796" y="81.18367" width="3.26531" height="3.26531" fill="black"/><rect x="113.16327" y="81.18367" width="3.26531" height="3.26531" fill="black"/><rect x="122.95918" y="81.18367" width="3.26531" height="3.26531" fill="black"/><rect x="126.22449" y="81.18367" width="3.26531" height="3.26531" fill="black"/><rect x="132.75510" y="81.18367" width="3.26531" height="3.26531" fill="black"/><rect x="139.28571" y="81.18367" width="3.26531" height="3.26531" fill="black"/><rect x="142.55102" y="81.18367" width="3.26531" height="3.26531" fill="black"/><rect x="145.81633" y="81.18367" width="3.26531" height="3.26531" fill="black"/><rect x="152.34694" y="81.18367" width="3.26531" height="3.26531" fill="black"/><rect x="155.61224" y="81.18367" width="3.26531" height="3.26531" fill="black"/><rect x="158.87755" y="81.18367" width="3.26531" height="3.26531" fill="black"/><rect x="162.14286" y="81.18367" width="3.26531" height="3.26531" fill="black"/><rect x="165.40816" y="81.18367" width="3.26531" height="3.26531" fill="black"/><rect x="38.06122" y="84.44898" width="3.26531" height="3.26531" fill="black"/><rect x="44.59184" y="84.44898" width="3.26531" height="3.26531" fill="black"/><rect x="54.38776" y="84.44898" width="3.26531" height="3.26531" fill="black"/><rect x="64.18367" y="84.44898" width="3.26531" height="3.26531" fill="black"/><rect x="70.71429" y="84.44898" width="3.26531" height="3.26531" fill="black"/><rect x="77.24490" y="84.44898" width="3.26531" height="3.26531" fill="black"/><rect x="87.04082" y="84.44898" width="3.26531" height="3.26531" fill="black"/><rect x="90.30612" y="84.44898" width="3.26531" height="3.26531" fill="black"/><rect x="93.57143" y="84.44898" width="3.26531" height="3.26531" fill="black"/><rect x="103.36735" y="84.44898" width="3.26531" height="3.26531" fill="black"/><rect x="106.63265" y="84.44898" width="3.26531" height="3.26531" fill="black"/><rect x="109.89796" y="84.44898" width="3.26531" height="3.26531" fill="black"/><rect x="116.42857" y="84.44898" width="3.26531" height="3.26531" fill="black"/><rect x="129.48980" y="84.44898" width="3.26531" height="3.26531" fill="black"/><rect x="132.75510" y="84.44898" width="3.26531" height="3.26531" fill="black"/><rect x="136.02041" y="84.44898" width="3.26531" height="3.26531" fill="black"/><rect x="142.55102" y="84.44898" width="3.26531" height="3.26531" fill="black"/><rect x="145.81633" y="84.44898" width="3.26531" height="3.26531" fill="black"/><rect x="152.34694" y="84.44898" width="3.26531" height="3.26531" fill="black"/><rect x="162.14286" y="84.44898" width="3.26531" height="3.26531" fill="black"/><rect x="165.40816" y="84.44898" width="3.26531" height="3.26531" fill="black"/><rect x="38.06122" y="87.71429" width="3.26531" height="3.26531" fill="black"/><rect x="47.85714" y="87.71429" width="3.26531" height="3.26531" fill="black"/><rect x="57.65306" y="87.71429" width="3.26531" height="3.26531" fill="black"/><rect x="60.91837" y="87.71429" width="3.26531" height="3.26531" fill="black"/><rect x="64.18367" y="87.71429" width="3.26531" height="3.26531" fill="black"/><rect x="67.44898" y="87.71429" width="3.26531" height="3.26531" fill="black"/><rect x="70.71429" y="87.71429" width="3.26531" height="3.26531" fill="black"/><rect x="77.24490" y="87.71429" width="3.26531" height="3.26531" fill="black"/><rect x="83.77551" y="87.71429" width="3.26531" height="3.26531" fill="black"/><rect x="90.30612" y="87.71429" width="3.26531" height="3.26531" fill="black"/><rect x="96.83673" y="87.71429" width="3.26531" height="3.26531" fill="black"/><rect x="103.36735" y="87.71429" width="3.26531" height="3.26531" fill="black"/><rect x="106.63265" y="87.71429" width="3.26531" height="3.26531" fill="black"/><rect x="109.89796" y="87.71429" width="3.26531" height="3.26531" fill="black"/><rect x="113.16327" y="87.71429" width="3.26531" height="3.26531" fill="black"/><rect x="126.22449" y="87.71429" width="3.26531" height="3.26531" fill="black"/><rect x="139.28571" y="87.71429" width="3.26531" height="3.26531" fill="black"/><rect x="149.08163" y="87.71429" width="3.26531" height="3.26531" fill="black"/><rect x="155.61224" y="87.71429" width="3.26531" height="3.26531" fill="black"/><rect x="168.67347" y="87.71429" width="3.26531" height="3.26531" fill="black"/><rect x="38.06122" y="90.97959" width="3.26531" height="3.26531" fill="black"/><rect x="44.59184" y="90.97959" width="3.26531" height="3.26531" fill="black"/><rect x="51.12245" y="90.97959" width="3.26531" height="3.26531" fill="black"/><rect x="64.18367" y="90.97959" width="3.26531" height="3.26531" fill="black"/><rect x="77.24490" y="90.97959" width="3.26531" height="3.26531" fill="black"/><rect x="83.77551" y="90.97959" width="3.26531" height="3.26531" fill="black"/><rect x="87.04082" y="90.97959" width="3.26531" height="3.26531" fill="black"/><rect x="90.30612" y="90.97959" width="3.26531" height="3.26531" fill="black"/><rect x="93.57143" y="90.97959" width="3.26531" height="3.26531" fill="black"/><rect x="100.10204" y="90.97959" width="3.26531" height="3.26531" fill="black"/><rect x="106.63265" y="90.97959" width="3.26531" height="3.26531" fill="black"/><rect x="109.89796" y="90.97959" width="3.26531" height="3.26531" fill="black"/><rect x="116.42857" y="90.97959" width="3.26531" height="3.26531" fill="black"/><rect x="119.69388" y="90.97959" width="3.26531" height="3.26531" fill="black"/><rect x="122.95918" y="90.97959" width="3.26531" height="3.26531" fill="black"/><rect x="126.22449" y="90.97959" width="3.26531" height="3.26531" fill="black"/><rect x="136.02041" y="90.97959" width="3.26531" height="3.26531" fill="black"/><rect x="142.55102" y="90.97959" width="3.26531" height="3.26531" fill="black"/><rect x="152.34694" y="90.97959" width="3.26531" height="3.26531" fill="black"/><rect x="155.61224" y="90.97959" width="3.26531" height="3.26531" fill="black"/><rect x="158.87755" y="90.97959" width="3.26531" height="3.26531" fill="black"/><rect x="165.40816" y="90.97959" width="3.26531" height="3.26531" fill="black"/><rect x="38.06122" y="94.24490" width="3.26531" height="3.26531" fill="black"/><rect x="41.32653" y="94.24490" width="3.26531" height="3.26531" fill="black"/><rect x="47.85714" y="94.24490" width="3.26531" height="3.26531" fill="black"/><rect x="57.65306" y="94.24490" width="3.26531" height="3.26531" fill="black"/><rect x="60.91837" y="94.24490" width="3.26531" height="3.26531" fill="black"/><rect x="70.71429" y="94.24490" width="3.26531" height="3.26531" fill="black"/><rect x="80.51020" y="94.24490" width="3.26531" height="3.26531" fill="black"/><rect x="87.04082" y="94.24490" width="3.26531" height="3.26531" fill="black"/><rect x="100.10204" y="94.24490" width="3.26531" height="3.26531" fill="black"/><rect x="106.63265" y="94.24490" width="3.26531" height="3.26531" fill="black"/><rect x="109.89796" y="94.24490" width="3.26531" height="3.26531" fill="black"/><rect x="116.42857" y="94.24490" width="3.26531" height="3.26531" fill="black"/><rect x="119.69388" y="94.24490" width="3.26531" height="3.26531" fill="black"/><rect x="122.95918" y="94.24490" width="3.26531" height="3.26531" fill="black"/><rect x="126.22449" y="94.24490" width="3.26531" height="3.26531" fill="black"/><rect x="129.48980" y="94.24490" width="3.26531" height="3.26531" fill="black"/><rect x="132.75510" y="94.24490" width="3.26531" height="3.26531" fill="black"/><rect x="142.55102" y="94.24490" width="3.26531" height="3.26531" fill="black"/><rect x="149.08163" y="94.24490" width="3.26531" height="3.26531" fill="black"/><rect x="155.61224" y="94.24490" width="3.26531" height="3.26531" fill="black"/><rect x="158.87755" y="94.24490" width="3.26531" height="3.26531" fill="black"/><rect x="162.14286" y="94.24490" width="3.26531" height="3.26531" fill="black"/><rect x="168.67347" y="94.24490" width="3.26531" height="3.26531" fill="black"/><rect x="41.32653" y="97.51020" width="3.26531" height="3.26531" fill="black"/><rect x="54.38776" y="97.51020" width="3.26531" height="3.26531" fill="black"/><rect x="70.71429" y="97.51020" width="3.26531" height="3.26531" fill="black"/><rect x="73.97959" y="97.51020" width="3.26531" height="3.26531" fill="black"/><rect x="80.51020" y="97.51020" width="3.26531" height="3.26531" fill="black"/><rect x="87.04082" y="97.51020" width="3.26531" height="3.26531" fill="black"/><rect x="90.30612" y="97.51020" width="3.26531" height="3.26531" fill="black"/><rect x="93.57143" y="97.51020" width="3.26531" height="3.26531" fill="black"/><rect x="96.83673" y="97.51020" width="3.26531" height="3.26531" fill="black"/><rect x="106.63265" y="97.51020" width="3.26531" height="3.26531" fill="black"/><rect x="122.95918" y="97.51020" width="3.26531" height="3.26531" fill="black"/><rect x="129.48980" y="97.51020" width="3.26531" height="3.26531" fill="black"/><rect x="132.75510" y="97.51020" width="3.26531" height="3.26531" fill="black"/><rect x="136.02041" y="97.51020" width="3.26531" height="3.26531" fill="black"/><rect x="145.81633" y="97.51020" width="3.26531" height="3.26531" fill="black"/><rect x="152.34694" y="97.51020" width="3.26531" height="3.26531" fill="black"/><rect x="165.40816" y="97.51020" width="3.26531" height="3.26531" fill="black"/><rect x="168.67347" y="97.51020" width="3.26531" height="3.26531" fill="black"/><rect x="38.06122" y="100.77551" width="3.26531" height="3.26531" fill="black"/><rect x="44.59184" y="100.77551" width="3.26531" height="3.26531" fill="black"/><rect x="51.12245" y="100.77551" width="3.26531" height="3.26531" fill="black"/><rect x="57.65306" y="100.77551" width="3.26531" height="3.26531" fill="black"/><rect x="70.71429" y="100.77551" width="3.26531" height="3.26531" fill="black"/><rect x="73.97959" y="100.77551" width="3.26531" height="3.26531" fill="black"/><rect x="87.04082" y="100.77551" width="3.26531" height="3.26531" fill="black"/><rect x="90.30612" y="100.77551" width="3.26531" height="3.26531" fill="black"/><rect x="93.57143" y="100.77551" width="3.26531" height="3.26531" fill="black"/><rect x="103.36735" y="100.77551" width="3.26531" height="3.26531" fill="black"/><rect x="106.63265" y="100.77551" width="3.26531" height="3.26531" fill="black"/><rect x="119.69388" y="100.77551" width="3.26531" height="3.26531" fill="black"/><rect x="122.95918" y="100.77551" width="3.26531" height="3.26531" fill="black"/><rect x="129.48980" y="100.77551" width="3.26531" height="3.26531" fill="black"/><rect x="132.75510" y="100.77551" width="3.26531" height="3.26531" fill="black"/><rect x="139.28571" y="100.77551" width="3.26531" height="3.26531" fill="black"/><rect x="149.08163" y="100.77551" width="3.26531" height="3.26531" fill="black"/><rect x="155.61224" y="100.77551" width="3.26531" height="3.26531" fill="black"/><rect x="162.14286" y="100.77551" width="3.26531" height="3.26531" fill="black"/><rect x="165.40816" y="100.77551" width="3.26531" height="3.26531" fill="black"/><rect x="168.67347" y="100.77551" width="3.26531" height="3.26531" fill="black"/><rect x="41.32653" y="104.04082" width="3.26531" height="3.26531" fill="black"/><rect x="44.59184" y="104.04082" width="3.26531" height="3.26531" fill="black"/><rect x="47.85714" y="104.04082" width="3.26531" height="3.26531" fill="black"/><rect x="54.38776" y="104.04082" width="3.26531" height="3.26531" fill="black"/><rect x="60.91837" y="104.04082" width="3.26531" height="3.26531" fill="black"/><rect x="64.18367" y="104.04082" width="3.26531" height="3.26531" fill="black"/><rect x="77.24490" y="104.04082" width="3.26531" height="3.26531" fill="black"/><rect x="87.04082" y="104.04082" width="3.26531" height="3.26531" fill="black"/><rect x="90.30612" y="104.04082" width="3.26531" height="3.26531" fill="black"/><rect x="96.83673" y="104.04082" width="3.26531" height="3.26531" fill="black"/><rect x="109.89796" y="104.04082" width="3.26531" height="3.26531" fill="black"/><rect x="113.16327" y="104.04082" width="3.26531" height="3.26531" fill="black"/><rect x="116.42857" y="104.04082" width="3.26531" height="3.26531" fill="black"/><rect x="119.69388" y="104.04082" width="3.26531" height="3.26531" fill="black"/><rect x="126.22449" y="104.04082" width="3.26531" height="3.26531" fill="black"/><rect x="129.48980" y="104.04082" width="3.26531" height="3.26531" fill="black"/><rect x="136.02041" y="104.04082" width="3.26531" height="3.26531" fill="black"/><rect x="142.55102" y="104.04082" width="3.26531" height="3.26531" fill="black"/><rect x="145.81633" y="104.04082" width="3.26531" height="3.26531" fill="black"/><rect x="152.34694" y="104.04082" width="3.26531" height="3.26531" fill="black"/><rect x="158.87755" y="104.04082" width="3.26531" height="3.26531" fill="black"/><rect x="165.40816" y="104.04082" width="3.26531" height="3.26531" fill="black"/><rect x="41.32653" y="107.30612" width="3.26531" height="3.26531" fill="black"/><rect x="44.59184" y="107.30612" width="3.26531" height="3.26531" fill="black"/><rect x="47.85714" y="107.30612" width="3.26531" height="3.26531" fill="black"/><rect x="54.38776" y="107.30612" width="3.26531" height="3.26531" fill="black"/><rect x="57.65306" y="107.30612" width="3.26531" height="3.26531" fill="black"/><rect x="67.44898" y="107.30612" width="3.26531" height="3.26531" fill="black"/><rect x="70.71429" y="107.30612" width="3.26531" height="3.26531" fill="black"/><rect x="77.24490" y="107.30612" width="3.26531" height="3.26531" fill="black"/><rect x="80.51020" y="107.30612" width="3.26531" height="3.26531" fill="black"/><rect x="90.30612" y="107.30612" width="3.26531" height="3.26531" fill="black"/><rect x="100.10204" y="107.30612" width="3.26531" height="3.26531" fill="black"/><rect x="109.89796" y="107.30612" width="3.26531" height="3.26531" fill="black"/><rect x="113.16327" y="107.30612" width="3.26531" height="3.26531" fill="black"/><rect x="119.69388" y="107.30612" width="3.26531" height="3.26531" fill="black"/><rect x="122.95918" y="107.30612" width="3.26531" height="3.26531" fill="black"/><rect x="129.48980" y="107.30612" width="3.26531" height="3.26531" fill="black"/><rect x="132.75510" y="107.30612" width="3.26531" height="3.26531" fill="black"/><rect x="149.08163" y="107.30612" width="3.26531" height="3.26531" fill="black"/><rect x="152.34694" y="107.30612" width="3.26531" height="3.26531" fill="black"/><rect x="155.61224" y="107.30612" width="3.26531" height="3.26531" fill="black"/><rect x="162.14286" y="107.30612" width="3.26531" height="3.26531" fill="black"/><rect x="165.40816" y="107.30612" width="3.26531" height="3.26531" fill="black"/><rect x="168.67347" y="107.30612" width="3.26531" height="3.26531" fill="black"/><rect x="44.59184" y="110.57143" width="3.26531" height="3.26531" fill="black"/><rect x="51.12245" y="110.57143" width="3.26531" height="3.26531" fill="black"/><rect x="54.38776" y="110.57143" width="3.26531" height="3.26531" fill="black"/><rect x="60.91837" y="110.57143" width="3.26531" height="3.26531" fill="black"/><rect x="67.44898" y="110.57143" width="3.26531" height="3.26531" fill="black"/><rect x="70.71429" y="110.57143" width="3.26531" height="3.26531" fill="black"/><rect x="77.24490" y="110.57143" width="3.26531" height="3.26531" fill="black"/><rect x="87.04082" y="110.57143" width="3.26531" height="3.26531" fill="black"/><rect x="96.83673" y="110.57143" width="3.26531" height="3.26531" fill="black"/><rect x="100.10204" y="110.57143" width="3.26531" height="3.26531" fill="black"/><rect x="103.36735" y="110.57143" width="3.26531" height="3.26531" fill="black"/><rect x="106.63265" y="110.57143" width="3.26531" height="3.26531" fill="black"/><rect x="109.89796" y="110.57143" width="3.26531" height="3.26531" fill="black"/><rect x="119.69388" y="110.57143" width="3.26531" height="3.26531" fill="black"/><rect x="122.95918" y="110.57143" width="3.26531" height="3.26531" fill="black"/><rect x="129.48980" y="110.57143" width="3.26531" height="3.26531" fill="black"/><rect x="136.02041" y="110.57143" width="3.26531" height="3.26531" fill="black"/><rect x="142.55102" y="110.57143" width="3.26531" height="3.26531" fill="black"/><rect x="145.81633" y="110.57143" width="3.26531" height="3.26531" fill="black"/><rect x="152.34694" y="110.57143" width="3.26531" height="3.26531" fill="black"/><rect x="158.87755" y="110.57143" width="3.26531" height="3.26531" fill="black"/><rect x="38.06122" y="113.83673" width="3.26531" height="3.26531" fill="black"/><rect x="47.85714" y="113.83673" width="3.26531" height="3.26531" fill="black"/><rect x="54.38776" y="113.83673" width="3.26531" height="3.26531" fill="black"/><rect x="57.65306" y="113.83673" width="3.26531" height="3.26531" fill="black"/><rect x="60.91837" y="113.83673" width="3.26531" height="3.26531" fill="black"/><rect x="77.24490" y="113.83673" width="3.26531" height="3.26531" fill="black"/><rect x="80.51020" y="113.83673" width="3.26531" height="3.26531" fill="black"/><rect x="83.77551" y="113.83673" width="3.26531" height="3.26531" fill="black"/><rect x="87.04082" y="113.83673" width="3.26531" height="3.26531" fill="black"/><rect x="93.57143" y="113.83673" width="3.26531" height="3.26531" fill="black"/><rect x="96.83673" y="113.83673" width="3.26531" height="3.26531" fill="black"/><rect x="109.89796" y="113.83673" width="3.26531" height="3.26531" fill="black"/><rect x="116.42857" y="113.83673" width="3.26531" height="3.26531" fill="black"/><rect x="119.69388" y="113.83673" width="3.26531" height="3.26531" fill="black"/><rect x="122.95918" y="113.83673" width="3.26531" height="3.26531" fill="black"/><rect x="126.22449" y="113.83673" width="3.26531" height="3.26531" fill="black"/><rect x="132.75510" y="113.83673" width="3.26531" height="3.26531" fill="black"/><rect x="136.02041" y="113.83673" width="3.26531" height="3.26531" fill="black"/><rect x="139.28571" y="113.83673" width="3.26531" height="3.26531" fill="black"/><rect x="142.55102" y="113.83673" width="3.26531" height="3.26531" fill="black"/><rect x="149.08163" y="113.83673" width="3.26531" height="3.26531" fill="black"/><rect x="158.87755" y="113.83673" width="3.26531" height="3.26531" fill="black"/><rect x="168.67347" y="113.83673" width="3.26531" height="3.26531" fill="black"/><rect x="38.06122" y="117.10204" width="3.26531" height="3.26531" fill="black"/><rect x="44.59184" y="117.10204" width="3.26531" height="3.26531" fill="black"/><rect x="54.38776" y="117.10204" width="3.26531" height="3.26531" fill="black"/><rect x="60.91837" y="117.10204" width="3.26531" height="3.26531" fill="black"/><rect x="67.44898" y="117.10204" width="3.26531" height="3.26531" fill="black"/><rect x="70.71429" y="117.10204" width="3.26531" height="3.26531" fill="black"/><rect x="73.97959" y="117.10204" width="3.26531" height="3.26531" fill="black"/><rect x="77.24490" y="117.10204" width="3.26531" height="3.26531" fill="black"/><rect x="96.83673" y="117.10204" width="3.26531" height="3.26531" fill="black"/><rect x="100.10204" y="117.10204" width="3.26531" height="3.26531" fill="black"/><rect x="103.36735" y="117.10204" width="3.26531" height="3.26531" fill="black"/><rect x="106.63265" y="117.10204" width="3.26531" height="3.26531" fill="black"/><rect x="109.89796" y="117.10204" width="3.26531" height="3.26531" fill="black"/><rect x="122.95918" y="117.10204" width="3.26531" height="3.26531" fill="black"/><rect x="129.48980" y="117.10204" width="3.26531" height="3.26531" fill="black"/><rect x="136.02041" y="117.10204" width="3.26531" height="3.26531" fill="black"/><rect x="142.55102" y="117.10204" width="3.26531" height="3.26531" fill="black"/><rect x="155.61224" y="117.10204" width="3.26531" height="3.26531" fill="black"/><rect x="38.06122" y="120.36735" width="3.26531" height="3.26531" fill="black"/><rect x="41.32653" y="120.36735" width="3.26531" height="3.26531" fill="black"/><rect x="47.85714" y="120.36735" width="3.26531" height="3.26531" fill="black"/><rect x="51.12245" y="120.36735" width="3.26531" height="3.26531" fill="black"/><rect x="57.65306" y="120.36735" width="3.26531" height="3.26531" fill="black"/><rect x="64.18367" y="120.36735" width="3.26531" height="3.26531" fill="black"/><rect x="67.44898" y="120.36735" width="3.26531" height="3.26531" fill="black"/><rect x="73.97959" y="120.36735" width="3.26531" height="3.26531" fill="black"/><rect x="77.24490" y="120.36735" width="3.26531" height="3.26531" fill="black"/><rect x="80.51020" y="120.36735" width="3.26531" height="3.26531" fill="black"/><rect x="87.04082" y="120.36735" width="3.26531" height="3.26531" fill="black"/><rect x="90.30612" y="120.36735" width="3.26531" height="3.26531" fill="black"/><rect x="93.57143" y="120.36735" width="3.26531" height="3.26531" fill="black"/><rect x="96.83673" y="120.36735" width="3.26531" height="3.26531" fill="black"/><rect x="100.10204" y="120.36735" width="3.26531" height="3.26531" fill="black"/><rect x="106.63265" y="120.36735" width="3.26531" height="3.26531" fill="black"/><rect x="109.89796" y="120.36735" width="3.26531" height="3.26531" fill="black"/><rect x="113.16327" y="120.36735" width="3.26531" height="3.26531" fill="black"/><rect x="119.69388" y="120.36735" width="3.26531" height="3.26531" fill="black"/><rect x="122.95918" y="120.36735" width="3.26531" height="3.26531" fill="black"/><rect x="126.22449" y="120.36735" width="3.26531" height="3.26531" fill="black"/><rect x="129.48980" y="120.36735" width="3.26531" height="3.26531" fill="black"/><rect x="132.75510" y="120.36735" width="3.26531" height="3.26531" fill="black"/><rect x="136.02041" y="120.36735" width="3.26531" height="3.26531" fill="black"/><rect x="139.28571" y="120.36735" width="3.26531" height="3.26531" fill="black"/><rect x="149.08163" y="120.36735" width="3.26531" height="3.26531" fill="black"/><rect x="155.61224" y="120.36735" width="3.26531" height="3.26531" fill="black"/><rect x="168.67347" y="120.36735" width="3.26531" height="3.26531" fill="black"/><rect x="38.06122" y="123.63265" width="3.26531" height="3.26531" fill="black"/><rect x="41.32653" y="123.63265" width="3.26531" height="3.26531" fill="black"/><rect x="47.85714" y="123.63265" width="3.26531" height="3.26531" fill="black"/><rect x="54.38776" y="123.63265" width="3.26531" height="3.26531" fill="black"/><rect x="67.44898" y="123.63265" width="3.26531" height="3.26531" fill="black"/><rect x="73.97959" y="123.63265" width="3.26531" height="3.26531" fill="black"/><rect x="90.30612" y="123.63265" width="3.26531" height="3.26531" fill="black"/><rect x="93.57143" y="123.63265" width="3.26531" height="3.26531" fill="black"/><rect x="100.10204" y="123.63265" width="3.26531" height="3.26531" fill="black"/><rect x="103.36735" y="123.63265" width="3.26531" height="3.26531" fill="black"/><rect x="109.89796" y="123.63265" width="3.26531" height="3.26531" fill="black"/><rect x="113.16327" y="123.63265" width="3.26531" height="3.26531" fill="black"/><rect x="119.69388" y="123.63265" width="3.26531" height="3.26531" fill="black"/><rect x="129.48980" y="123.63265" width="3.26531" height="3.26531" fill="black"/><rect x="136.02041" y="123.63265" width="3.26531" height="3.26531" fill="black"/><rect x="139.28571" y="123.63265" width="3.26531" height="3.26531" fill="black"/><rect x="145.81633" y="123.63265" width="3.26531" height="3.26531" fill="black"/><rect x="152.34694" y="123.63265" width="3.26531" height="3.26531" fill="black"/><rect x="158.87755" y="123.63265" width="3.26531" height="3.26531" fill="black"/><rect x="162.14286" y="123.63265" width="3.26531" height="3.26531" fill="black"/><rect x="54.38776" y="126.89796" width="3.26531" height="3.26531" fill="black"/><rect x="57.65306" y="126.89796" width="3.26531" height="3.26531" fill="black"/><rect x="64.18367" y="126.89796" width="3.26531" height="3.26531" fill="black"/><rect x="77.24490" y="126.89796" width="3.26531" height="3.26531" fill="black"/><rect x="83.77551" y="126.89796" width="3.26531" height="3.26531" fill="black"/><rect x="96.83673" y="126.89796" width="3.26531" height="3.26531" fill="black"/><rect x="109.89796" y="126.89796" width="3.26531" height="3.26531" fill="black"/><rect x="113.16327" y="126.89796" width="3.26531" height="3.26531" fill="black"/><rect x="119.69388" y="126.89796" width="3.26531" height="3.26531" fill="black"/><rect x="126.22449" y="126.89796" width="3.26531" height="3.26531" fill="black"/><rect x="129.48980" y="126.89796" width="3.26531" height="3.26531" fill="black"/><rect x="132.75510" y="126.89796" width="3.26531" height="3.26531" fill="black"/><rect x="139.28571" y="126.89796" width="3.26531" height="3.26531" fill="black"/><rect x="142.55102" y="126.89796" width="3.26531" height="3.26531" fill="black"/><rect x="168.67347" y="126.89796" width="3.26531" height="3.26531" fill="black"/><rect x="64.18367" y="130.16327" width="3.26531" height="3.26531" fill="black"/><rect x="73.97959" y="130.16327" width="3.26531" height="3.26531" fill="black"/><rect x="80.51020" y="130.16327" width="3.26531" height="3.26531" fill="black"/><rect x="87.04082" y="130.16327" width="3.26531" height="3.26531" fill="black"/><rect x="93.57143" y="130.16327" width="3.26531" height="3.26531" fill="black"/><rect x="96.83673" y="130.16327" width="3.26531" height="3.26531" fill="black"/><rect x="100.10204" y="130.16327" width="3.26531" height="3.26531" fill="black"/><rect x="103.36735" y="130.16327" width="3.26531" height="3.26531" fill="black"/><rect x="106.63265" y="130.16327" width="3.26531" height="3.26531" fill="black"/><rect x="109.89796" y="130.16327" width="3.26531" height="3.26531" fill="black"/><rect x="113.16327" y="130.16327" width="3.26531" height="3.26531" fill="black"/><rect x="116.42857" y="130.16327" width="3.26531" height="3.26531" fill="black"/><rect x="119.69388" y="130.16327" width="3.26531" height="3.26531" fill="black"/><rect x="126.22449" y="130.16327" width="3.26531" height="3.26531" fill="black"/><rect x="139.28571" y="130.16327" width="3.26531" height="3.26531" fill="black"/><rect x="142.55102" y="130.16327" width="3.26531" height="3.26531" fill="black"/><rect x="145.81633" y="130.16327" width="3.26531" height="3.26531" fill="black"/><rect x="149.08163" y="130.16327" width="3.26531" height="3.26531" fill="black"/><rect x="152.34694" y="130.16327" width="3.26531" height="3.26531" fill="black"/><rect x="155.61224" y="130.16327" width="3.26531" height="3.26531" fill="black"/><rect x="158.87755" y="130.16327" width="3.26531" height="3.26531" fill="black"/><rect x="44.59184" y="133.42857" width="3.26531" height="3.26531" fill="black"/><rect x="47.85714" y="133.42857" width="3.26531" height="3.26531" fill="black"/><rect x="54.38776" y="133.42857" width="3.26531" height="3.26531" fill="black"/><rect x="57.65306" y="133.42857" width="3.26531" height="3.26531" fill="black"/><rect x="60.91837" y="133.42857" width="3.26531" height="3.26531" fill="black"/><rect x="64.18367" y="133.42857" width="3.26531" height="3.26531" fill="black"/><rect x="70.71429" y="133.42857" width="3.26531" height="3.26531" fill="black"/><rect x="73.97959" y="133.42857" width="3.26531" height="3.26531" fill="black"/><rect x="77.24490" y="133.42857" width="3.26531" height="3.26531" fill="black"/><rect x="83.77551" y="133.42857" width="3.26531" height="3.26531" fill="black"/><rect x="87.04082" y="133.42857" width="3.26531" height="3.26531" fill="black"/><rect x="90.30612" y="133.42857" width="3.26531" height="3.26531" fill="black"/><rect x="93.57143" y="133.42857" width="3.26531" height="3.26531" fill="black"/><rect x="96.83673" y="133.42857" width="3.26531" height="3.26531" fill="black"/><rect x="100.10204" y="133.42857" width="3.26531" height="3.26531" fill="black"/><rect x="116.42857" y="133.42857" width="3.26531" height="3.26531" fill="black"/><rect x="119.69388" y="133.42857" width="3.26531" height="3.26531" fill="black"/><rect x="129.48980" y="133.42857" width="3.26531" height="3.26531" fill="black"/><rect x="132.75510" y="133.42857" width="3.26531" height="3.26531" fill="black"/><rect x="139.28571" y="133.42857" width="3.26531" height="3.26531" fill="black"/><rect x="142.55102" y="133.42857" width="3.26531" height="3.26531" fill="black"/><rect x="149.08163" y="133.42857" width="3.26531" height="3.26531" fill="black"/><rect x="152.34694" y="133.42857" width="3.26531" height="3.26531" fill="black"/><rect x="155.61224" y="133.42857" width="3.26531" height="3.26531" fill="black"/><rect x="158.87755" y="133.42857" width="3.26531" height="3.26531" fill="black"/><rect x="162.14286" y="133.42857" width="3.26531" height="3.26531" fill="black"/><rect x="168.67347" y="133.42857" width="3.26531" height="3.26531" fill="black"/><rect x="44.59184" y="136.69388" width="3.26531" height="3.26531" fill="black"/><rect x="54.38776" y="136.69388" width="3.26531" height="3.26531" fill="black"/><rect x="64.18367" y="136.69388" width="3.26531" height="3.26531" fill="black"/><rect x="67.44898" y="136.69388" width="3.26531" height="3.26531" fill="black"/><rect x="70.71429" y="136.69388" width="3.26531" height="3.26531" fill="black"/><rect x="80.51020" y="136.69388" width="3.26531" height="3.26531" fill="black"/><rect x="100.10204" y="136.69388" width="3.26531" height="3.26531" fill="black"/><rect x="116.42857" y="136.69388" width="3.26531" height="3.26531" fill="black"/><rect x="119.69388" y="136.69388" width="3.26531" height="3.26531" fill="black"/><rect x="129.48980" y="136.69388" width="3.26531" height="3.26531" fill="black"/><rect x="136.02041" y="136.69388" width="3.26531" height="3.26531" fill="black"/><rect x="142.55102" y="136.69388" width="3.26531" height="3.26531" fill="black"/><rect x="145.81633" y="136.69388" width="3.26531" height="3.26531" fill="black"/><rect x="152.34694" y="136.69388" width="3.26531" height="3.26531" fill="black"/><rect x="162.14286" y="136.69388" width="3.26531" height="3.26531" fill="black"/><rect x="47.85714" y="139.95918" width="3.26531" height="3.26531" fill="black"/><rect x="54.38776" y="139.95918" width="3.26531" height="3.26531" fill="black"/><rect x="57.65306" y="139.95918" width="3.26531" height="3.26531" fill="black"/><rect x="60.91837" y="139.95918" width="3.26531" height="3.26531" fill="black"/><rect x="70.71429" y="139.95918" width="3.26531" height="3.26531" fill="black"/><rect x="77.24490" y="139.95918" width="3.26531" height="3.26531" fill="black"/><rect x="87.04082" y="139.95918" width="3.26531" height="3.26531" fill="black"/><rect x="90.30612" y="139.95918" width="3.26531" height="3.26531" fill="black"/><rect x="96.83673" y="139.95918" width="3.26531" height="3.26531" fill="black"/><rect x="100.10204" y="139.95918" width="3.26531" height="3.26531" fill="black"/><rect x="109.89796" y="139.95918" width="3.26531" height="3.26531" fill="black"/><rect x="113.16327" y="139.95918" width="3.26531" height="3.26531" fill="black"/><rect x="119.69388" y="139.95918" width="3.26531" height="3.26531" fill="black"/><rect x="126.22449" y="139.95918" width="3.26531" height="3.26531" fill="black"/><rect x="136.02041" y="139.95918" width="3.26531" height="3.26531" fill="black"/><rect x="139.28571" y="139.95918" width="3.26531" height="3.26531" fill="black"/><rect x="149.08163" y="139.95918" width="3.26531" height="3.26531" fill="black"/><rect x="155.61224" y="139.95918" width="3.26531" height="3.26531" fill="black"/><rect x="162.14286" y="139.95918" width="3.26531" height="3.26531" fill="black"/><rect x="168.67347" y="139.95918" width="3.26531" height="3.26531" fill="black"/><rect x="38.06122" y="143.22449" width="3.26531" height="3.26531" fill="black"/><rect x="41.32653" y="143.22449" width="3.26531" height="3.26531" fill="black"/><rect x="47.85714" y="143.22449" width="3.26531" height="3.26531" fill="black"/><rect x="64.18367" y="143.22449" width="3.26531" height="3.26531" fill="black"/><rect x="67.44898" y="143.22449" width="3.26531" height="3.26531" fill="black"/><rect x="77.24490" y="143.22449" width="3.26531" height="3.26531" fill="black"/><rect x="83.77551" y="143.22449" width="3.26531" height="3.26531" fill="black"/><rect x="90.30612" y="143.22449" width="3.26531" height="3.26531" fill="black"/><rect x="103.36735" y="143.22449" width="3.26531" height="3.26531" fill="black"/><rect x="106.63265" y="143.22449" width="3.26531" height="3.26531" fill="black"/><rect x="116.42857" y="143.22449" width="3.26531" height="3.26531" fill="black"/><rect x="122.95918" y="143.22449" width="3.26531" height="3.26531" fill="black"/><rect x="136.02041" y="143.22449" width="3.26531" height="3.26531" fill="black"/><rect x="139.28571" y="143.22449" width="3.26531" height="3.26531" fill="black"/><rect x="142.55102" y="143.22449" width="3.26531" height="3.26531" fill="black"/><rect x="152.34694" y="143.22449" width="3.26531" height="3.26531" fill="black"/><rect x="155.61224" y="143.22449" width="3.26531" height="3.26531" fill="black"/><rect x="158.87755" y="143.22449" width="3.26531" height="3.26531" fill="black"/><rect x="165.40816" y="143.22449" width="3.26531" height="3.26531" fill="black"/><rect x="168.67347" y="143.22449" width="3.26531" height="3.26531" fill="black"/><rect x="47.85714" y="146.48980" width="3.26531" height="3.26531" fill="black"/><rect x="51.12245" y="146.48980" width="3.26531" height="3.26531" fill="black"/><rect x="57.65306" y="146.48980" width="3.26531" height="3.26531" fill="black"/><rect x="64.18367" y="146.48980" width="3.26531" height="3.26531" fill="black"/><rect x="67.44898" y="146.48980" width="3.26531" height="3.26531" fill="black"/><rect x="70.71429" y="146.48980" width="3.26531" height="3.26531" fill="black"/><rect x="73.97959" y="146.48980" width="3.26531" height="3.26531" fill="black"/><rect x="77.24490" y="146.48980" width="3.26531" height="3.26531" fill="black"/><rect x="83.77551" y="146.48980" width="3.26531" height="3.26531" fill="black"/><rect x="90.30612" y="146.48980" width="3.26531" height="3.26531" fill="black"/><rect x="93.57143" y="146.48980" width="3.26531" height="3.26531" fill="black"/><rect x="96.83673" y="146.48980" width="3.26531" height="3.26531" fill="black"/><rect x="106.63265" y="146.48980" width="3.26531" height="3.26531" fill="black"/><rect x="109.89796" y="146.48980" width="3.26531" height="3.26531" fill="black"/><rect x="113.16327" y="146.48980" width="3.26531" height="3.26531" fill="black"/><rect x="132.75510" y="146.48980" width="3.26531" height="3.26531" fill="black"/><rect x="142.55102" y="146.48980" width="3.26531" height="3.26531" fill="black"/><rect x="149.08163" y="146.48980" width="3.26531" height="3.26531" fill="black"/><rect x="152.34694" y="146.48980" width="3.26531" height="3.26531" fill="black"/><rect x="155.61224" y="146.48980" width="3.26531" height="3.26531" fill="black"/><rect x="162.14286" y="146.48980" width="3.26531" height="3.26531" fill="black"/><rect x="168.67347" y="146.48980" width="3.26531" height="3.26531" fill="black"/><rect x="44.59184" y="149.75510" width="3.26531" height="3.26531" fill="black"/><rect x="47.85714" y="149.75510" width="3.26531" height="3.26531" fill="black"/><rect x="51.12245" y="149.75510" width="3.26531" height="3.26531" fill="black"/><rect x="54.38776" y="149.75510" width="3.26531" height="3.26531" fill="black"/><rect x="64.18367" y="149.75510" width="3.26531" height="3.26531" fill="black"/><rect x="70.71429" y="149.75510" width="3.26531" height="3.26531" fill="black"/><rect x="73.97959" y="149.75510" width="3.26531" height="3.26531" fill="black"/><rect x="80.51020" y="149.75510" width="3.26531" height="3.26531" fill="black"/><rect x="87.04082" y="149.75510" width="3.26531" height="3.26531" fill="black"/><rect x="90.30612" y="149.75510" width="3.26531" height="3.26531" fill="black"/><rect x="93.57143" y="149.75510" width="3.26531" height="3.26531" fill="black"/><rect x="103.36735" y="149.75510" width="3.26531" height="3.26531" fill="black"/><rect x="109.89796" y="149.75510" width="3.26531" height="3.26531" fill="black"/><rect x="116.42857" y="149.75510" width="3.26531" height="3.26531" fill="black"/><rect x="119.69388" y="149.75510" width="3.26531" height="3.26531" fill="black"/><rect x="142.55102" y="149.75510" width="3.26531" height="3.26531" fill="black"/><rect x="152.34694" y="149.75510" width="3.26531" height="3.26531" fill="black"/><rect x="165.40816" y="149.75510" width="3.26531" height="3.26531" fill="black"/><rect x="168.67347" y="149.75510" width="3.26531" height="3.26531" fill="black"/><rect x="38.06122" y="153.02041" width="3.26531" height="3.26531" fill="black"/><rect x="41.32653" y="153.02041" width="3.26531" height="3.26531" fill="black"/><rect x="47.85714" y="153.02041" width="3.26531" height="3.26531" fill="black"/><rect x="54.38776" y="153.02041" width="3.26531" height="3.26531" fill="black"/><rect x="57.65306" y="153.02041" width="3.26531" height="3.26531" fill="black"/><rect x="64.18367" y="153.02041" width="3.26531" height="3.26531" fill="black"/><rect x="67.44898" y="153.02041" width="3.26531" height="3.26531" fill="black"/><rect x="70.71429" y="153.02041" width="3.26531" height="3.26531" fill="black"/><rect x="77.24490" y="153.02041" width="3.26531" height="3.26531" fill="black"/><rect x="90.30612" y="153.02041" width="3.26531" height="3.26531" fill="black"/><rect x="96.83673" y="153.02041" width="3.26531" height="3.26531" fill="black"/><rect x="109.89796" y="153.02041" width="3.26531" height="3.26531" fill="black"/><rect x="113.16327" y="153.02041" width="3.26531" height="3.26531" fill="black"/><rect x="116.42857" y="153.02041" width="3.26531" height="3.26531" fill="black"/><rect x="119.69388" y="153.02041" width="3.26531" height="3.26531" fill="black"/><rect x="126.22449" y="153.02041" width="3.26531" height="3.26531" fill="black"/><rect x="132.75510" y="153.02041" width="3.26531" height="3.26531" fill="black"/><rect x="136.02041" y="153.02041" width="3.26531" height="3.26531" fill="black"/><rect x="139.28571" y="153.02041" width="3.26531" height="3.26531" fill="black"/><rect x="149.08163" y="153.02041" width="3.26531" height="3.26531" fill="black"/><rect x="158.87755" y="153.02041" width="3.26531" height="3.26531" fill="black"/><rect x="165.40816" y="153.02041" width="3.26531" height="3.26531" fill="black"/><rect x="168.67347" y="153.02041" width="3.26531" height="3.26531" fill="black"/><rect x="44.59184" y="156.28571" width="3.26531" height="3.26531" fill="black"/><rect x="51.12245" y="156.28571" width="3.26531" height="3.26531" fill="black"/><rect x="64.18367" y="156.28571" width="3.26531" height="3.26531" fill="black"/><rect x="67.44898" y="156.28571" width="3.26531" height="3.26531" fill="black"/><rect x="73.97959" y="156.28571" width="3.26531" height="3.26531" fill="black"/><rect x="90.30612" y="156.28571" width="3.26531" height="3.26531" fill="black"/><rect x="93.57143" y="156.28571" width="3.26531" height="3.26531" fill="black"/><rect x="96.83673" y="156.28571" width="3.26531" height="3.26531" fill="black"/><rect x="100.10204" y="156.28571" width="3.26531" height="3.26531" fill="black"/><rect x="103.36735" y="156.28571" width="3.26531" height="3.26531" fill="black"/><rect x="106.63265" y="156.28571" width="3.26531" height="3.26531" fill="black"/><rect x="113.16327" y="156.28571" width="3.26531" height="3.26531" fill="black"/><rect x="119.69388" y="156.28571" width="3.26531" height="3.26531" fill="black"/><rect x="122.95918" y="156.28571" width="3.26531" height="3.26531" fill="black"/><rect x="139.28571" y="156.28571" width="3.26531" height="3.26531" fill="black"/><rect x="142.55102" y="156.28571" width="3.26531" height="3.26531" fill="black"/><rect x="152.34694" y="156.28571" width="3.26531" height="3.26531" fill="black"/><rect x="158.87755" y="156.28571" width="3.26531" height="3.26531" fill="black"/><rect x="165.40816" y="156.28571" width="3.26531" height="3.26531" fill="black"/><rect x="168.67347" y="156.28571" width="3.26531" height="3.26531" fill="black"/><rect x="38.06122" y="159.55102" width="3.26531" height="3.26531" fill="black"/><rect x="41.32653" y="159.55102" width="3.26531" height="3.26531" fill="black"/><rect x="44.59184" y="159.55102" width="3.26531" height="3.26531" fill="black"/><rect x="47.85714" y="159.55102" width="3.26531" height="3.26531" fill="black"/><rect x="51.12245" y="159.55102" width="3.26531" height="3.26531" fill="black"/><rect x="57.65306" y="159.55102" width="3.26531" height="3.26531" fill="black"/><rect x="67.44898" y="159.55102" width="3.26531" height="3.26531" fill="black"/><rect x="80.51020" y="159.55102" width="3.26531" height="3.26531" fill="black"/><rect x="83.77551" y="159.55102" width="3.26531" height="3.26531" fill="black"/><rect x="87.04082" y="159.55102" width="3.26531" height="3.26531" fill="black"/><rect x="100.10204" y="159.55102" width="3.26531" height="3.26531" fill="black"/><rect x="103.36735" y="159.55102" width="3.26531" height="3.26531" fill="black"/><rect x="106.63265" y="159.55102" width="3.26531" height="3.26531" fill="black"/><rect x="109.89796" y="159.55102" width="3.26531" height="3.26531" fill="black"/><rect x="113.16327" y="159.55102" width="3.26531" height="3.26531" fill="black"/><rect x="116.42857" y="159.55102" width="3.26531" height="3.26531" fill="black"/><rect x="126.22449" y="159.55102" width="3.26531" height="3.26531" fill="black"/><rect x="129.48980" y="159.55102" width="3.26531" height="3.26531" fill="black"/><rect x="132.75510" y="159.55102" width="3.26531" height="3.26531" fill="black"/><rect x="142.55102" y="159.55102" width="3.26531" height="3.26531" fill="black"/><rect x="145.81633" y="159.55102" width="3.26531" height="3.26531" fill="black"/><rect x="149.08163" y="159.55102" width="3.26531" height="3.26531" fill="black"/><rect x="152.34694" y="159.55102" width="3.26531" height="3.26531" fill="black"/><rect x="155.61224" y="159.55102" width="3.26531" height="3.26531" fill="black"/><rect x="158.87755" y="159.55102" width="3.26531" height="3.26531" fill="black"/><rect x="162.14286" y="159.55102" width="3.26531" height="3.26531" fill="black"/><rect x="64.18367" y="162.81633" width="3.26531" height="3.26531" fill="black"/><rect x="73.97959" y="162.81633" width="3.26531" height="3.26531" fill="black"/><rect x="80.51020" y="162.81633" width="3.26531" height="3.26531" fill="black"/><rect x="83.77551" y="162.81633" width="3.26531" height="3.26531" fill="black"/><rect x="96.83673" y="162.81633" width="3.26531" height="3.26531" fill="black"/><rect x="100.10204" y="162.81633" width="3.26531" height="3.26531" fill="black"/><rect x="103.36735" y="162.81633" width="3.26531" height="3.26531" fill="black"/><rect x="116.42857" y="162.81633" width="3.26531" height="3.26531" fill="black"/><rect x="119.69388" y="162.81633" width="3.26531" height="3.26531" fill="black"/><rect x="129.48980" y="162.81633" width="3.26531" height="3.26531" fill="black"/><rect x="132.75510" y="162.81633" width="3.26531" height="3.26531" fill="black"/><rect x="136.02041" y="162.81633" width="3.26531" height="3.26531" fill="black"/><rect x="139.28571" y="162.81633" width="3.26531" height="3.26531" fill="black"/><rect x="142.55102" y="162.81633" width="3.26531" height="3.26531" fill="black"/><rect x="155.61224" y="162.81633" width="3.26531" height="3.26531" fill="black"/><rect x="165.40816" y="162.81633" width="3.26531" height="3.26531" fill="black"/><rect x="38.06122" y="166.08163" width="3.26531" height="3.26531" fill="black"/><rect x="41.32653" y="166.08163" width="3.26531" height="3.26531" fill="black"/><rect x="44.59184" y="166.08163" width="3.26531" height="3.26531" fill="black"/><rect x="47.85714" y="166.08163" width="3.26531" height="3.26531" fill="black"/><rect x="51.12245" y="166.08163" width="3.26531" height="3.26531" fill="black"/><rect x="54.38776" y="166.08163" width="3.26531" height="3.26531" fill="black"/><rect x="57.65306" y="166.08163" width="3.26531" height="3.26531" fill="black"/><rect x="64.18367" y="166.08163" width="3.26531" height="3.26531" fill="black"/><rect x="67.44898" y="166.08163" width="3.26531" height="3.26531" fill="black"/><rect x="73.97959" y="166.08163" width="3.26531" height="3.26531" fill="black"/><rect x="87.04082" y="166.08163" width="3.26531" height="3.26531" fill="black"/><rect x="90.30612" y="166.08163" width="3.26531" height="3.26531" fill="black"/><rect x="93.57143" y="166.08163" width="3.26531" height="3.26531" fill="black"/><rect x="96.83673" y="166.08163" width="3.26531" height="3.26531" fill="black"/><rect x="109.89796" y="166.08163" width="3.26531" height="3.26531" fill="black"/><rect x="113.16327" y="166.08163" width="3.26531" height="3.26531" fill="black"/><rect x="116.42857" y="166.08163" width="3.26531" height="3.26531" fill="black"/><rect x="126.22449" y="166.08163" width="3.26531" height="3.26531" fill="black"/><rect x="139.28571" y="166.08163" width="3.26531" height="3.26531" fill="black"/><rect x="142.55102" y="166.08163" width="3.26531" height="3.26531" fill="black"/><rect x="149.08163" y="166.08163" width="3.26531" height="3.26531" fill="black"/><rect x="155.61224" y="166.08163" width="3.26531" height="3.26531" fill="black"/><rect x="158.87755" y="166.08163" width="3.26531" height="3.26531" fill="black"/><rect x="162.14286" y="166.08163" width="3.26531" height="3.26531" fill="black"/><rect x="168.67347" y="166.08163" width="3.26531" height="3.26531" fill="black"/><rect x="38.06122" y="169.34694" width="3.26531" height="3.26531" fill="black"/><rect x="57.65306" y="169.34694" width="3.26531" height="3.26531" fill="black"/><rect x="64.18367" y="169.34694" width="3.26531" height="3.26531" fill="black"/><rect x="67.44898" y="169.34694" width="3.26531" height="3.26531" fill="black"/><rect x="73.97959" y="169.34694" width="3.26531" height="3.26531" fill="black"/><rect x="77.24490" y="169.34694" width="3.26531" height="3.26531" fill="black"/><rect x="80.51020" y="169.34694" width="3.26531" height="3.26531" fill="black"/><rect x="87.04082" y="169.34694" width="3.26531" height="3.26531" fill="black"/><rect x="90.30612" y="169.34694" width="3.26531" height="3.26531" fill="black"/><rect x="96.83673" y="169.34694" width="3.26531" height="3.26531" fill="black"/><rect x="106.63265" y="169.34694" width="3.26531" height="3.26531" fill="black"/><rect x="109.89796" y="169.34694" width="3.26531" height="3.26531" fill="black"/><rect x="119.69388" y="169.34694" width="3.26531" height="3.26531" fill="black"/><rect x="126.22449" y="169.34694" width="3.26531" height="3.26531" fill="black"/><rect x="129.48980" y="169.34694" width="3.26531" height="3.26531" fill="black"/><rect x="132.75510" y="169.34694" width="3.26531" height="3.26531" fill="black"/><rect x="139.28571" y="169.34694" width="3.26531" height="3.26531" fill="black"/><rect x="142.55102" y="169.34694" width="3.26531" height="3.26531" fill="black"/><rect x="155.61224" y="169.34694" width="3.26531" height="3.26531" fill="black"/><rect x="158.87755" y="169.34694" width="3.26531" height="3.26531" fill="black"/><rect x="165.40816" y="169.34694" width="3.26531" height="3.26531" fill="black"/><rect x="168.67347" y="169.34694" width="3.26531" height="3.26531" fill="black"/><rect x="38.06122" y="172.61224" width="3.26531" height="3.26531" fill="black"/><rect x="44.59184" y="172.61224" width="3.26531" height="3.26531" fill="black"/><rect x="47.85714" y="172.61224" width="3.26531" height="3.26531" fill="black"/><rect x="51.12245" y="172.61224" width="3.26531" height="3.26531" fill="black"/><rect x="57.65306" y="172.61224" width="3.26531" height="3.26531" fill="black"/><rect x="67.44898" y="172.61224" width="3.26531" height="3.26531" fill="black"/><rect x="73.97959" y="172.61224" width="3.26531" height="3.26531" fill="black"/><rect x="77.24490" y="172.61224" width="3.26531" height="3.26531" fill="black"/><rect x="83.77551" y="172.61224" width="3.26531" height="3.26531" fill="black"/><rect x="93.57143" y="172.61224" width="3.26531" height="3.26531" fill="black"/><rect x="96.83673" y="172.61224" width="3.26531" height="3.26531" fill="black"/><rect x="103.36735" y="172.61224" width="3.26531" height="3.26531" fill="black"/><rect x="106.63265" y="172.61224" width="3.26531" height="3.26531" fill="black"/><rect x="109.89796" y="172.61224" width="3.26531" height="3.26531" fill="black"/><rect x="116.42857" y="172.61224" width="3.26531" height="3.26531" fill="black"/><rect x="122.95918" y="172.61224" width="3.26531" height="3.26531" fill="black"/><rect x="132.75510" y="172.61224" width="3.26531" height="3.26531" fill="black"/><rect x="139.28571" y="172.61224" width="3.26531" height="3.26531" fill="black"/><rect x="142.55102" y="172.61224" width="3.26531" height="3.26531" fill="black"/><rect x="145.81633" y="172.61224" width="3.26531" height="3.26531" fill="black"/><rect x="149.08163" y="172.61224" width="3.26531" height="3.26531" fill="black"/><rect x="152.34694" y="172.61224" width="3.26531" height="3.26531" fill="black"/><rect x="155.61224" y="172.61224" width="3.26531" height="3.26531" fill="black"/><rect x="158.87755" y="172.61224" width="3.26531" height="3.26531" fill="black"/><rect x="162.14286" y="172.61224" width="3.26531" height="3.26531" fill="black"/><rect x="38.06122" y="175.87755" width="3.26531" height="3.26531" fill="black"/><rect x="44.59184" y="175.87755" width="3.26531" height="3.26531" fill="black"/><rect x="47.85714" y="175.87755" width="3.26531" height="3.26531" fill="black"/><rect x="51.12245" y="175.87755" width="3.26531" height="3.26531" fill="black"/><rect x="57.65306" y="175.87755" width="3.26531" height="3.26531" fill="black"/><rect x="73.97959" y="175.87755" width="3.26531" height="3.26531" fill="black"/><rect x="77.24490" y="175.87755" width="3.26531" height="3.26531" fill="black"/><rect x="80.51020" y="175.87755" width="3.26531" height="3.26531" fill="black"/><rect x="90.30612" y="175.87755" width="3.26531" height="3.26531" fill="black"/><rect x="93.57143" y="175.87755" width="3.26531" height="3.26531" fill="black"/><rect x="96.83673" y="175.87755" width="3.26531" height="3.26531" fill="black"/><rect x="100.10204" y="175.87755" width="3.26531" height="3.26531" fill="black"/><rect x="109.89796" y="175.87755" width="3.26531" height="3.26531" fill="black"/><rect x="113.16327" y="175.87755" width="3.26531" height="3.26531" fill="black"/><rect x="116.42857" y="175.87755" width="3.26531" height="3.26531" fill="black"/><rect x="129.48980" y="175.87755" width="3.26531" height="3.26531" fill="black"/><rect x="139.28571" y="175.87755" width="3.26531" height="3.26531" fill="black"/><rect x="142.55102" y="175.87755" width="3.26531" height="3.26531" fill="black"/><rect x="145.81633" y="175.87755" width="3.26531" height="3.26531" fill="black"/><rect x="165.40816" y="175.87755" width="3.26531" height="3.26531" fill="black"/><rect x="168.67347" y="175.87755" width="3.26531" height="3.26531" fill="black"/><rect x="38.06122" y="179.14286" width="3.26531" height="3.26531" fill="black"/><rect x="44.59184" y="179.14286" width="3.26531" height="3.26531" fill="black"/><rect x="47.85714" y="179.14286" width="3.26531" height="3.26531" fill="black"/><rect x="51.12245" y="179.14286" width="3.26531" height="3.26531" fill="black"/><rect x="57.65306" y="179.14286" width="3.26531" height="3.26531" fill="black"/><rect x="64.18367" y="179.14286" width="3.26531" height="3.26531" fill="black"/><rect x="67.44898" y="179.14286" width="3.26531" height="3.26531" fill="black"/><rect x="73.97959" y="179.14286" width="3.26531" height="3.26531" fill="black"/><rect x="77.24490" y="179.14286" width="3.26531" height="3.26531" fill="black"/><rect x="83.77551" y="179.14286" width="3.26531" height="3.26531" fill="black"/><rect x="87.04082" y="179.14286" width="3.26531" height="3.26531" fill="black"/><rect x="90.30612" y="179.14286" width="3.26531" height="3.26531" fill="black"/><rect x="100.10204" y="179.14286" width="3.26531" height="3.26531" fill="black"/><rect x="103.36735" y="179.14286" width="3.26531" height="3.26531" fill="black"/><rect x="116.42857" y="179.14286" width="3.26531" height="3.26531" fill="black"/><rect x="126.22449" y="179.14286" width="3.26531" height="3.26531" fill="black"/><rect x="136.02041" y="179.14286" width="3.26531" height="3.26531" fill="black"/><rect x="139.28571" y="179.14286" width="3.26531" height="3.26531" fill="black"/><rect x="142.55102" y="179.14286" width="3.26531" height="3.26531" fill="black"/><rect x="149.08163" y="179.14286" width="3.26531" height="3.26531" fill="black"/><rect x="155.61224" y="179.14286" width="3.26531" height="3.26531" fill="black"/><rect x="158.87755" y="179.14286" width="3.26531" height="3.26531" fill="black"/><rect x="165.40816" y="179.14286" width="3.26531" height="3.26531" fill="black"/><rect x="168.67347" y="179.14286" width="3.26531" height="3.26531" fill="black"/><rect x="38.06122" y="182.40816" width="3.26531" height="3.26531" fill="black"/><rect x="57.65306" y="182.40816" width="3.26531" height="3.26531" fill="black"/><rect x="70.71429" y="182.40816" width="3.26531" height="3.26531" fill="black"/><rect x="83.77551" y="182.40816" width="3.26531" height="3.26531" fill="black"/><rect x="90.30612" y="182.40816" width="3.26531" height="3.26531" fill="black"/><rect x="93.57143" y="182.40816" width="3.26531" height="3.26531" fill="black"/><rect x="96.83673" y="182.40816" width="3.26531" height="3.26531" fill="black"/><rect x="103.36735" y="182.40816" width="3.26531" height="3.26531" fill="black"/><rect x="106.63265" y="182.40816" width="3.26531" height="3.26531" fill="black"/><rect x="109.89796" y="182.40816" width="3.26531" height="3.26531" fill="black"/><rect x="122.95918" y="182.40816" width="3.26531" height="3.26531" fill="black"/><rect x="139.28571" y="182.40816" width="3.26531" height="3.26531" fill="black"/><rect x="145.81633" y="182.40816" width="3.26531" height="3.26531" fill="black"/><rect x="149.08163" y="182.40816" width="3.26531" height="3.26531" fill="black"/><rect x="155.61224" y="182.40816" width="3.26531" height="3.26531" fill="black"/><rect x="158.87755" y="182.40816" width="3.26531" height="3.26531" fill="black"/><rect x="38.06122" y="185.67347" width="3.26531" height="3.26531" fill="black"/><rect x="41.32653" y="185.67347" width="3.26531" height="3.26531" fill="black"/><rect x="44.59184" y="185.67347" width="3.26531" height="3.26531" fill="black"/><rect x="47.85714" y="185.67347" width="3.26531" height="3.26531" fill="black"/><rect x="51.12245" y="185.67347" width="3.26531" height="3.26531" fill="black"/><rect x="54.38776" y="185.67347" width="3.26531" height="3.26531" fill="black"/><rect x="57.65306" y="185.67347" width="3.26531" height="3.26531" fill="black"/><rect x="70.71429" y="185.67347" width="3.26531" height="3.26531" fill="black"/><rect x="77.24490" y="185.67347" width="3.26531" height="3.26531" fill="black"/><rect x="83.77551" y="185.67347" width="3.26531" height="3.26531" fill="black"/><rect x="93.57143" y="185.67347" width="3.26531" height="3.26531" fill="black"/><rect x="100.10204" y="185.67347" width="3.26531" height="3.26531" fill="black"/><rect x="109.89796" y="185.67347" width="3.26531" height="3.26531" fill="black"/><rect x="113.16327" y="185.67347" width="3.26531" height="3.26531" fill="black"/><rect x="116.42857" y="185.67347" width="3.26531" height="3.26531" fill="black"/><rect x="119.69388" y="185.67347" width="3.26531" height="3.26531" fill="black"/><rect x="129.48980" y="185.67347" width="3.26531" height="3.26531" fill="black"/><rect x="132.75510" y="185.67347" width="3.26531" height="3.26531" fill="black"/><rect x="142.55102" y="185.67347" width="3.26531" height="3.26531" fill="black"/><rect x="152.34694" y="185.67347" width="3.26531" height="3.26531" fill="black"/><rect x="155.61224" y="185.67347" width="3.26531" height="3.26531" fill="black"/><rect x="158.87755" y="185.67347" width="3.26531" height="3.26531" fill="black"/><rect x="162.14286" y="185.67347" width="3.26531" height="3.26531" fill="black"/><rect x="168.67347" y="185.67347" width="3.26531" height="3.26531" fill="black"/><path d="M105 238 L92 218 L100 218 L100 205 L110 205 L110 218 L118 218 Z" fill="#e11d48"/><text x="105" y="250" text-anchor="middle" font-family="Arial" font-size="8" font-weight="bold">MIDDLE STUMP TOUCHES THIS EDGE</text><text x="105" y="260" text-anchor="middle" font-family="Arial" font-size="5">Arrow points DOWN THE PITCH</text><line x1="25" y1="278" x2="185" y2="278" stroke="black" stroke-width="1"/><line x1="25" y1="274" x2="25" y2="282" stroke="black" stroke-width="1"/><line x1="185" y1="274" x2="185" y2="282" stroke="black" stroke-width="1"/><text x="105" y="289" text-anchor="middle" font-family="Arial" font-size="5">CONTROL RULER: THIS LINE MUST MEASURE EXACTLY 160 mm</text></svg>